<?xml version="1.0" encoding="UTF-8" standalone="no"?>
<!-- Created with Inkscape (http://www.inkscape.org/) -->

<svg
   xmlns:dc="http://purl.org/dc/elements/1.1/"
   xmlns:cc="http://creativecommons.org/ns#"
   xmlns:rdf="http://www.w3.org/1999/02/22-rdf-syntax-ns#"
   xmlns:svg="http://www.w3.org/2000/svg"
   xmlns="http://www.w3.org/2000/svg"
   xmlns:sodipodi="http://sodipodi.sourceforge.net/DTD/sodipodi-0.dtd"
   xmlns:inkscape="http://www.inkscape.org/namespaces/inkscape"
   width="1000"
   height="515.69299"
   id="svg3418"
   version="1.1"
   inkscape:version="0.48.3.1 r9886"
   sodipodi:docname="authomatic-broken.svg">
  <defs
     id="defs3420" />
  <sodipodi:namedview
     id="base"
     pagecolor="#ffffff"
     bordercolor="#666666"
     borderopacity="1.0"
     inkscape:pageopacity="0.0"
     inkscape:pageshadow="2"
     inkscape:zoom="0.35"
     inkscape:cx="-360.66207"
     inkscape:cy="-382.31382"
     inkscape:document-units="px"
     inkscape:current-layer="layer1"
     showgrid="false"
     inkscape:window-width="1280"
     inkscape:window-height="1000"
     inkscape:window-x="0"
     inkscape:window-y="24"
     inkscape:window-maximized="1"
     fit-margin-top="0"
     fit-margin-left="0"
     fit-margin-right="0"
     fit-margin-bottom="0" />
  <metadata
     id="metadata3423">
    <rdf:RDF>
      <cc:Work
         rdf:about="">
        <dc:format>image/svg+xml</dc:format>
        <dc:type
           rdf:resource="http://purl.org/dc/dcmitype/StillImage" />
      </cc:Work>
    </rdf:RDF>
  </metadata>
  <g
     inkscape:label="Layer 1"
     inkscape:groupmode="layer"
     id="layer1"
     transform="translate(-346.06561,-62.07401)">
    <g
       id="g3608"
       transform="matrix(6.0601807,0,0,6.0601807,-1751.1547,-2923.6053)">
      <path
         id="path5904-7"
         d="m 408.51382,492.76608 c -1.3803,0.0338 -2.47133,1.1822 -2.4375,2.5625 l 0,0.0313 0,14.90625 c 1.8e-4,0.0536 -0.001,0.10243 0,0.15625 l 0,0.125 c 0.16561,4.02632 3.49285,7.21671 7.5,7.21875 0.0635,3e-5 0.12367,0.002 0.1875,0 l 9.8125,0 c 0.0635,3e-5 0.12367,0.002 0.1875,0 4.0763,-0.0999 7.30932,-3.44588 7.3125,-7.5 5e-5,-0.0642 0.002,-0.12291 0,-0.1875 l 0,-14.8125 c 2e-5,-0.0214 5.3e-4,-0.041 0,-0.0625 -0.0338,-1.3803 -1.1822,-2.47133 -2.5625,-2.4375 -1.36007,0.0333 -2.43851,1.14687 -2.4375,2.5 10e-6,0.0201 -5e-4,0.0423 0,0.0625 l 0,0.0313 0,2.40625 0,5.40625 0,7.03125 c 5.3e-4,0.0215 2e-5,0.0411 0,0.0625 -9.7e-4,1.3515 -1.07868,2.4667 -2.4375,2.5 -0.0212,5.2e-4 -0.0414,1e-5 -0.0625,0 l -9.9375,0 c -0.0212,5.2e-4 -0.0414,1e-5 -0.0625,0 -1.33588,-9e-4 -2.44479,-1.0641 -2.5,-2.40625 l 0,-0.0313 c -5.3e-4,-0.0215 -2e-5,-0.0411 0,-0.0625 l 0,-7.09375 0,-5.40625 0,-2.5 c 2e-5,-0.0214 5.3e-4,-0.041 0,-0.0625 -0.0338,-1.3803 -1.1822,-2.47133 -2.5625,-2.4375 z"
         style="fill:#53676c;stroke:none;display:inline"
         inkscape:connector-curvature="0" />
      <path
         id="path5906-6"
         d="m 468.51382,492.67233 c -1.36007,0.0333 -2.43851,1.14687 -2.4375,2.5 10e-6,0.0201 -5e-4,0.0423 0,0.0625 l 0,0.0313 0,19.90625 c 10e-6,0.0201 -5e-4,0.0423 0,0.0625 l 0,0.0313 c 0.0561,1.36337 1.19838,2.43968 2.5625,2.40625 1.35881,-0.0333 2.43651,-1.14856 2.4375,-2.5 2e-5,-0.0214 5.3e-4,-0.041 0,-0.0625 l 0,-4.84375 0,-0.0313 c -5e-4,-0.0202 10e-6,-0.0424 0,-0.0625 -0.001,-1.35313 1.07743,-2.46667 2.4375,-2.5 0.0215,-5.3e-4 0.0411,-2e-5 0.0625,0 l 9.9375,0 0.0625,0 c 1.35144,9.9e-4 2.4667,1.07869 2.5,2.4375 5.3e-4,0.0215 2e-5,0.0411 0,0.0625 l 0,5 c 10e-6,0.0201 -5e-4,0.0423 0,0.0625 l 0,0.0313 c 0.0561,1.36337 1.19838,2.43968 2.5625,2.40625 1.35881,-0.0333 2.43651,-1.14856 2.4375,-2.5 2e-5,-0.0214 5.3e-4,-0.041 0,-0.0625 l 0,-19.9375 c 2e-5,-0.0214 5.3e-4,-0.041 0,-0.0625 -0.0338,-1.3803 -1.1822,-2.47133 -2.5625,-2.4375 -1.36007,0.0333 -2.43851,1.14687 -2.4375,2.5 10e-6,0.0201 -5e-4,0.0423 0,0.0625 l 0,0.0313 0,4.84375 c 5.3e-4,0.0215 2e-5,0.0411 0,0.0625 -9.9e-4,1.35144 -1.07869,2.4667 -2.4375,2.5 -0.021,5.1e-4 -0.0416,0 -0.0625,0 l -9.9375,0 c -0.021,5.1e-4 -0.0416,0 -0.0625,0 -1.33611,-2.2e-4 -2.44478,-1.06385 -2.5,-2.40625 l 0,-0.0313 c -5e-4,-0.0202 10e-6,-0.0424 0,-0.0625 l 0,-5 c 2e-5,-0.0214 5.3e-4,-0.041 0,-0.0625 -0.0338,-1.3803 -1.1822,-2.47133 -2.5625,-2.4375 z"
         style="fill:#53676c;stroke:none;display:inline"
         inkscape:connector-curvature="0" />
      <path
         id="path5914-1"
         d="m 378.57632,492.76608 c -1.38071,0 -2.5,1.11929 -2.5,2.5 0,1.38071 1.11929,2.5 2.5,2.5 l 2.5,0 5.4375,0 7,0 0.0625,0 c 1.35144,9.9e-4 2.4667,1.07869 2.5,2.4375 0.0338,1.3803 -1.0572,2.52867 -2.4375,2.5625 -0.021,5.1e-4 -0.0416,0 -0.0625,0 l -7.0625,0 -2.9375,0 -0.78125,0 c -3.78237,0.39058 -6.72277,3.61675 -6.71875,7.5 0.004,4.14213 3.35787,7.47304 7.5,7.46875 l 0,0.0313 5,0 c 1.38071,0 2.5,-1.11929 2.5,-2.5 0,-1.38071 -1.11929,-2.5 -2.5,-2.5 l -2.5,0 -2.5,0 0,-0.0313 c -0.23604,4.1e-4 -0.48083,-0.0234 -0.71875,-0.0937 -1.32409,-0.39136 -2.07886,-1.76966 -1.6875,-3.09375 0.32104,-1.08616 1.32869,-1.77936 2.40625,-1.78125 0.0718,-1.3e-4 0.14634,-0.006 0.21875,0 l 2.28125,0 7.5,0 c 1.38071,0 2.5,1.11929 2.5,2.5 l 0,5 c 0,1.38071 1.11929,2.5 2.5,2.5 1.37009,0 2.48296,-1.1027 2.5,-2.46875 l 0,-0.0313 0,-15 c 5e-5,-0.0642 0.002,-0.12291 0,-0.1875 -0.1,-4.07878 -3.44254,-7.31325 -7.5,-7.3125 l -0.1875,0 -14.8125,0 z"
         style="fill:#53676c;stroke:none;display:inline"
         inkscape:connector-curvature="0" />
      <path
         id="path5924-1"
         d="m 493.38882,522.76608 c -4.08707,0.10016 -7.32645,3.43138 -7.3125,7.5 1.8e-4,0.0536 -0.001,0.10243 0,0.15625 l 0,0.125 0,9.71875 c 1.8e-4,0.0536 -0.001,0.10243 0,0.15625 l 0,0.125 c 0.16561,4.02632 3.49285,7.21671 7.5,7.21875 0.0635,3e-5 0.12367,0.002 0.1875,0 l 9.8125,0 c 0.0635,3e-5 0.12367,0.002 0.1875,0 4.0763,-0.0999 7.30932,-3.44588 7.3125,-7.5 5e-5,-0.0642 0.002,-0.12291 0,-0.1875 l 0,-9.8125 c 5e-5,-0.0642 0.002,-0.12291 0,-0.1875 -0.1,-4.07878 -3.44254,-7.31325 -7.5,-7.3125 l -0.1875,0 -9.21875,0 c -0.19204,-0.0148 -0.39809,-4e-5 -0.59375,0 -0.0618,10e-6 -0.12539,-0.002 -0.1875,0 z m 0.125,5 c 0.0215,-5.3e-4 0.0411,-2e-5 0.0625,0 l 9.9375,0 0.0625,0 c 1.3515,9.7e-4 2.4667,1.07868 2.5,2.4375 5.3e-4,0.0215 2e-5,0.0411 0,0.0625 l 0,9.9375 c 5.3e-4,0.0215 2e-5,0.0411 0,0.0625 -9.7e-4,1.3515 -1.07868,2.4667 -2.4375,2.5 -0.0212,5.2e-4 -0.0414,10e-6 -0.0625,0 l -9.9375,0 c -0.0212,5.2e-4 -0.0414,10e-6 -0.0625,0 -1.33588,-9e-4 -2.44479,-1.0641 -2.5,-2.40625 l 0,-0.0313 c -5.3e-4,-0.0215 -2e-5,-0.0411 0,-0.0625 l 0,-9.90625 0,-0.0313 c -5.3e-4,-0.0215 -2e-5,-0.0411 0,-0.0625 9.7e-4,-1.3515 1.07868,-2.4667 2.4375,-2.5 z"
         style="fill:#53676c;fill-opacity:1;stroke:none;display:inline"
         inkscape:connector-curvature="0" />
      <path
         d="m 358.50336,552.76598 c -1.36007,0.0333 -2.43851,1.14687 -2.4375,2.5 1e-5,0.0201 -5e-4,0.0423 0,0.0625 l 0,0.0313 0,19.90625 c 1e-5,0.0201 -5e-4,0.0423 0,0.0625 l 0,0.0313 c 0.0561,1.36337 1.19838,2.43968 2.5625,2.40625 1.35881,-0.0333 2.43651,-1.14856 2.4375,-2.5 2e-5,-0.0214 5.3e-4,-0.041 0,-0.0625 l 0,-19.9375 c 2e-5,-0.0214 5.3e-4,-0.041 0,-0.0625 -0.0338,-1.3803 -1.1822,-2.47133 -2.5625,-2.4375 z m 10,0 c -1.36007,0.0333 -2.43851,1.14687 -2.4375,2.5 1e-5,0.0201 -5e-4,0.0423 0,0.0625 l 0,0.0313 0,19.90625 c 1e-5,0.0201 -5e-4,0.0423 0,0.0625 l 0,0.0313 c 0.0561,1.36337 1.19838,2.43968 2.5625,2.40625 1.35881,-0.0333 2.43651,-1.14856 2.4375,-2.5 2e-5,-0.0214 5.3e-4,-0.041 0,-0.0625 l 0,-19.9375 c 2e-5,-0.0214 5.3e-4,-0.041 0,-0.0625 -0.0338,-1.3803 -1.1822,-2.47133 -2.5625,-2.4375 z m -20,0 c -1.36007,0.0333 -2.43851,1.14687 -2.4375,2.5 1e-5,0.0201 -5e-4,0.0423 0,0.0625 l 0,0.0313 0,19.90625 c 1e-5,0.0201 -5e-4,0.0423 0,0.0625 l 0,0.0313 c 0.0561,1.36337 1.19838,2.43968 2.5625,2.40625 1.35881,-0.0333 2.43651,-1.14856 2.4375,-2.5 2e-5,-0.0214 5.3e-4,-0.041 0,-0.0625 l 0,-19.9375 c 2e-5,-0.0214 5.3e-4,-0.041 0,-0.0625 -0.0338,-1.3803 -1.1822,-2.47133 -2.5625,-2.4375 z"
         style="fill:#53676c;fill-opacity:1;stroke:none;display:inline"
         id="path6118-9"
         inkscape:connector-curvature="0" />
      <path
         inkscape:connector-curvature="0"
         style="fill:#53676c;stroke:none;display:inline"
         d="m 378.51382,552.75326 c -1.38071,0 -2.5,1.11929 -2.5,2.5 0,1.38071 1.11929,2.5 2.5,2.5 l 2.5,0 5.4375,0 7,0 0.0625,0 c 1.35144,9.9e-4 2.4667,1.07869 2.5,2.4375 0.0338,1.3803 -1.0572,2.52867 -2.4375,2.5625 -0.021,5.1e-4 -0.0416,0 -0.0625,0 l -7.0625,0 -2.9375,0 -0.78125,0 c -3.78237,0.39058 -6.72277,3.61675 -6.71875,7.5 0.004,4.14213 3.35787,7.47304 7.5,7.46875 l 0,0.0313 5,0 c 1.38071,0 2.5,-1.11929 2.5,-2.5 0,-1.38071 -1.11929,-2.5 -2.5,-2.5 l -2.5,0 -2.5,0 0,-0.0313 c -0.23604,4.1e-4 -0.48083,-0.0234 -0.71875,-0.0937 -1.32409,-0.39136 -2.07886,-1.76966 -1.6875,-3.09375 0.32104,-1.08616 1.32869,-1.77936 2.40625,-1.78125 0.0718,-1.3e-4 0.14634,-0.006 0.21875,0 l 2.28125,0 7.5,0 c 1.38071,0 2.5,1.11929 2.5,2.5 l 0,5 c 0,1.38071 1.11929,2.5 2.5,2.5 1.37009,0 2.48296,-1.1027 2.5,-2.46875 l 0,-0.0313 0,-15 c 5e-5,-0.0642 0.002,-0.12291 0,-0.1875 -0.1,-4.07878 -3.44254,-7.31325 -7.5,-7.3125 l -0.1875,0 -14.8125,0 z"
         id="path6121-0" />
      <path
         inkscape:connector-curvature="0"
         style="fill:#53676c;stroke:none;display:inline"
         d="m 491.07637,555.20358 c -0.0338,-1.3803 -1.1822,-2.47133 -2.5625,-2.4375 l -0.0313,0 -14.90625,0 c -0.0536,1.8e-4 -0.10243,-10e-4 -0.15625,0 l -0.125,0 c -4.02632,0.16561 -7.21671,3.49285 -7.21875,7.5 -3e-5,0.0635 -0.002,0.12367 0,0.1875 l 0,9.8125 c -3e-5,0.0635 -0.002,0.12367 0,0.1875 0.0999,4.0763 3.44588,7.30932 7.5,7.3125 0.0642,5e-5 0.12291,0.002 0.1875,0 l 14.8125,0 c 0.0214,2e-5 0.041,5.3e-4 0.0625,0 1.3803,-0.0338 2.47133,-1.1822 2.4375,-2.5625 -0.0333,-1.36007 -1.14687,-2.43851 -2.5,-2.4375 -0.0201,10e-6 -0.0423,-5e-4 -0.0625,0 l -0.0313,0 -2.40625,0 -5.40625,0 -7.03125,0 c -0.0215,5.3e-4 -0.0411,2e-5 -0.0625,0 -1.3515,-9.7e-4 -2.4667,-1.07868 -2.5,-2.4375 -5.2e-4,-0.0212 -1e-5,-0.0414 0,-0.0625 l 0,-9.9375 c -5.2e-4,-0.0212 -1e-5,-0.0414 0,-0.0625 9e-4,-1.33588 1.0641,-2.44479 2.40625,-2.5 l 0.0313,0 c 0.0215,-5.3e-4 0.0411,-2e-5 0.0625,0 l 7.09375,0 5.40625,0 2.5,0 c 0.0214,2e-5 0.041,5.3e-4 0.0625,0 1.3803,-0.0338 2.47133,-1.1822 2.4375,-2.5625 z"
         id="path6123-9" />
      <path
         inkscape:connector-curvature="0"
         style="fill:#53676c;stroke:none;display:inline"
         d="m 461.07643,555.20367 c -0.0333,-1.36007 -1.14687,-2.43851 -2.5,-2.4375 -0.0201,10e-6 -0.0423,-5e-4 -0.0625,0 l -0.0313,0 -19.90625,0 c -0.0201,10e-6 -0.0423,-5e-4 -0.0625,0 l -0.0313,0 c -1.36337,0.0561 -2.43968,1.19838 -2.40625,2.5625 0.0333,1.35881 1.14856,2.43651 2.5,2.4375 0.0214,2e-5 0.041,5.3e-4 0.0625,0 l 4.84375,0 0.0313,0 c 0.0202,-5e-4 0.0424,10e-6 0.0625,0 1.35313,-10e-4 2.46667,1.07743 2.5,2.4375 5.3e-4,0.0215 2e-5,0.0411 0,0.0625 l 0,9.9375 0,0.0625 c -9.9e-4,1.35144 -1.07869,2.4667 -2.4375,2.5 -0.0215,5.3e-4 -0.0411,2e-5 -0.0625,0 l -5,0 c -0.0201,10e-6 -0.0423,-5e-4 -0.0625,0 l -0.0313,0 c -1.36337,0.0561 -2.43968,1.19838 -2.40625,2.5625 0.0333,1.35881 1.14856,2.43651 2.5,2.4375 0.0214,2e-5 0.041,5.3e-4 0.0625,0 l 19.9375,0 c 0.0214,2e-5 0.041,5.3e-4 0.0625,0 1.3803,-0.0338 2.47133,-1.1822 2.4375,-2.5625 -0.0333,-1.36007 -1.14687,-2.43851 -2.5,-2.4375 -0.0201,10e-6 -0.0423,-5e-4 -0.0625,0 l -0.0313,0 -4.84375,0 c -0.0215,5.3e-4 -0.0411,2e-5 -0.0625,0 -1.35144,-9.9e-4 -2.4667,-1.07869 -2.5,-2.4375 -5.1e-4,-0.021 0,-0.0416 0,-0.0625 l 0,-9.9375 c -5.1e-4,-0.021 0,-0.0416 0,-0.0625 2.2e-4,-1.33611 1.06385,-2.44478 2.40625,-2.5 l 0.0313,0 c 0.0202,-5e-4 0.0424,10e-6 0.0625,0 l 5,0 c 0.0214,2e-5 0.041,5.3e-4 0.0625,0 1.3803,-0.0338 2.47133,-1.1822 2.4375,-2.5625 z"
         id="path6125-8" />
      <path
         id="path6445"
         d="m 438.48257,492.8414 c -1.36337,0.0561 -2.43968,1.19838 -2.40625,2.5625 0.0333,1.35881 1.14856,2.43651 2.5,2.4375 0.0214,2e-5 0.041,5.3e-4 0.0625,0 l 4.84375,0 0.0313,0 c 0.0202,-5e-4 0.0424,10e-6 0.0625,0 1.35313,-0.001 2.46667,1.07743 2.5,2.4375 5.3e-4,0.0215 2e-5,0.0411 0,0.0625 l 0,4.9375 0,2.5 0,7.5 c 10e-6,0.0201 -5e-4,0.0423 0,0.0625 l 0,0.0313 c 0.0561,1.36337 1.19838,2.43968 2.5625,2.40625 1.3803,-0.0338 2.47133,-1.1822 2.4375,-2.5625 l 0,-7.4375 0,-2.5 0,-4.875 c -5.1e-4,-0.021 0,-0.0416 0,-0.0625 2.2e-4,-1.33611 1.06385,-2.44478 2.40625,-2.5 l 0.0313,0 c 0.0202,-5e-4 0.0424,10e-6 0.0625,0 l 5,0 c 0.0214,2e-5 0.041,5.3e-4 0.0625,0 1.3803,-0.0338 2.47133,-1.1822 2.4375,-2.5625 -0.0333,-1.36007 -1.14687,-2.43851 -2.5,-2.4375 -0.0201,10e-6 -0.0423,-5e-4 -0.0625,0 l -0.0313,0 -19.90625,0 c -0.0201,10e-6 -0.0423,-5e-4 -0.0625,0 l -0.0313,0 z"
         style="fill:#53676c;stroke:none;display:inline"
         inkscape:connector-curvature="0" />
      <path
         inkscape:connector-curvature="0"
         style="fill:#53676c;stroke:none;display:inline"
         d="m 408.48257,552.82858 c -1.36337,0.0561 -2.43968,1.19838 -2.40625,2.5625 0.0333,1.35881 1.14856,2.43651 2.5,2.4375 0.0214,2e-5 0.041,5.3e-4 0.0625,0 l 4.84375,0 0.0313,0 c 0.0202,-5e-4 0.0424,10e-6 0.0625,0 1.35313,-10e-4 2.46667,1.07743 2.5,2.4375 5.3e-4,0.0215 2e-5,0.0411 0,0.0625 l 0,4.9375 0,2.5 0,7.5 c 10e-6,0.0201 -5e-4,0.0423 0,0.0625 l 0,0.0313 c 0.0561,1.36337 1.19838,2.43968 2.5625,2.40625 1.3803,-0.0338 2.47133,-1.1822 2.4375,-2.5625 l 0,-7.4375 0,-2.5 0,-4.875 c -5.1e-4,-0.021 0,-0.0416 0,-0.0625 2.2e-4,-1.33611 1.06385,-2.44478 2.40625,-2.5 l 0.0313,0 c 0.0202,-5e-4 0.0424,10e-6 0.0625,0 l 5,0 c 0.0214,2e-5 0.041,5.3e-4 0.0625,0 1.3803,-0.0338 2.47133,-1.1822 2.4375,-2.5625 -0.0333,-1.36007 -1.14687,-2.43851 -2.5,-2.4375 -0.0201,10e-6 -0.0423,-5e-4 -0.0625,0 l -0.0313,0 -19.90625,0 c -0.0201,10e-6 -0.0423,-5e-4 -0.0625,0 l -0.0313,0 z"
         id="path6455" />
    </g>
    <g
       id="g3587"
       style="fill:#ccff00"
       transform="matrix(6.0601807,0,0,6.0601807,-1751.1547,-2923.6053)">
      <path
         transform="translate(76.076319,40.403904)"
         sodipodi:open="true"
         sodipodi:end="9.3836687"
         sodipodi:start="3.1170914"
         d="m 300.00075,454.92343 c -0.0338,-1.3803 1.05771,-2.52667 2.438,-2.5605 1.3803,-0.0338 2.52667,1.05771 2.5605,2.43801 0.0338,1.38029 -1.05771,2.52667 -2.438,2.56049 -1.36412,0.0334 -2.50306,-1.03313 -2.55914,-2.3965"
         sodipodi:ry="2.5"
         sodipodi:rx="2.5"
         sodipodi:cy="454.86218"
         sodipodi:cx="302.5"
         id="path6621"
         style="fill:#ccff00;fill-opacity:1;stroke:none"
         sodipodi:type="arc" />
      <path
         transform="translate(76.076319,40.403904)"
         sodipodi:open="true"
         sodipodi:end="9.3836687"
         sodipodi:start="3.1170914"
         d="m 310.00075,474.92343 c -0.0338,-1.3803 1.05771,-2.52667 2.438,-2.5605 1.3803,-0.0338 2.52667,1.05771 2.5605,2.43801 0.0338,1.38029 -1.05771,2.52667 -2.438,2.56049 -1.36412,0.0334 -2.50306,-1.03313 -2.55914,-2.3965"
         sodipodi:ry="2.5"
         sodipodi:rx="2.5"
         sodipodi:cy="474.86218"
         sodipodi:cx="312.5"
         id="path6623"
         style="fill:#ccff00;fill-opacity:1;stroke:none"
         sodipodi:type="arc" />
      <path
         transform="translate(76.076319,40.403904)"
         sodipodi:open="true"
         sodipodi:end="9.3836687"
         sodipodi:start="3.1170914"
         d="m 330.00075,454.92343 c -0.0338,-1.3803 1.05771,-2.52667 2.438,-2.5605 1.3803,-0.0338 2.52667,1.05771 2.5605,2.43801 0.0338,1.38029 -1.05771,2.52667 -2.438,2.56049 -1.36412,0.0334 -2.50306,-1.03313 -2.55914,-2.3965"
         sodipodi:ry="2.5"
         sodipodi:rx="2.5"
         sodipodi:cy="454.86218"
         sodipodi:cx="332.5"
         id="path6625"
         style="fill:#ccff00;fill-opacity:1;stroke:none"
         sodipodi:type="arc" />
      <path
         transform="translate(76.076319,40.403904)"
         sodipodi:open="true"
         sodipodi:end="9.3836687"
         sodipodi:start="3.1170914"
         d="m 350.00075,454.92343 c -0.0338,-1.3803 1.05771,-2.52667 2.438,-2.5605 1.3803,-0.0338 2.52667,1.05771 2.5605,2.43801 0.0338,1.38029 -1.05771,2.52667 -2.438,2.56049 -1.36412,0.0334 -2.50306,-1.03313 -2.55914,-2.3965"
         sodipodi:ry="2.5"
         sodipodi:rx="2.5"
         sodipodi:cy="454.86218"
         sodipodi:cx="352.5"
         id="path6627"
         style="fill:#ccff00;fill-opacity:1;stroke:none"
         sodipodi:type="arc" />
      <path
         transform="translate(76.076319,40.403904)"
         sodipodi:open="true"
         sodipodi:end="9.3836687"
         sodipodi:start="3.1170914"
         d="m 360.00075,454.92343 c -0.0338,-1.3803 1.05771,-2.52667 2.438,-2.5605 1.3803,-0.0338 2.52667,1.05771 2.5605,2.43801 0.0338,1.38029 -1.05771,2.52667 -2.438,2.56049 -1.36412,0.0334 -2.50306,-1.03313 -2.55914,-2.3965"
         sodipodi:ry="2.5"
         sodipodi:rx="2.5"
         sodipodi:cy="454.86218"
         sodipodi:cx="362.5"
         id="path6629"
         style="fill:#ccff00;fill-opacity:1;stroke:none"
         sodipodi:type="arc" />
      <path
         transform="translate(76.076319,40.403904)"
         sodipodi:open="true"
         sodipodi:end="9.3836687"
         sodipodi:start="3.1170914"
         d="m 370.00075,474.92343 c -0.0338,-1.3803 1.05771,-2.52667 2.438,-2.5605 1.3803,-0.0338 2.52667,1.05771 2.5605,2.43801 0.0338,1.38029 -1.05771,2.52667 -2.438,2.56049 -1.36412,0.0334 -2.50306,-1.03313 -2.55914,-2.3965"
         sodipodi:ry="2.5"
         sodipodi:rx="2.5"
         sodipodi:cy="474.86218"
         sodipodi:cx="372.5"
         id="path6631"
         style="fill:#ccff00;fill-opacity:1;stroke:none"
         sodipodi:type="arc" />
      <path
         transform="translate(76.076319,40.403904)"
         sodipodi:open="true"
         sodipodi:end="9.3836687"
         sodipodi:start="3.1170914"
         d="m 390.00075,454.92343 c -0.0338,-1.3803 1.05771,-2.52667 2.438,-2.5605 1.3803,-0.0338 2.52667,1.05771 2.5605,2.43801 0.0338,1.38029 -1.05771,2.52667 -2.438,2.56049 -1.36412,0.0334 -2.50306,-1.03313 -2.55914,-2.3965"
         sodipodi:ry="2.5"
         sodipodi:rx="2.5"
         sodipodi:cy="454.86218"
         sodipodi:cx="392.5"
         id="path6633"
         style="fill:#ccff00;fill-opacity:1;stroke:none"
         sodipodi:type="arc" />
      <path
         transform="translate(76.076319,40.403904)"
         sodipodi:open="true"
         sodipodi:end="9.3836687"
         sodipodi:start="3.1170914"
         d="m 410.00075,474.92343 c -0.0338,-1.3803 1.05771,-2.52667 2.438,-2.5605 1.3803,-0.0338 2.52667,1.05771 2.5605,2.43801 0.0338,1.38029 -1.05771,2.52667 -2.438,2.56049 -1.36412,0.0334 -2.50306,-1.03313 -2.55914,-2.3965"
         sodipodi:ry="2.5"
         sodipodi:rx="2.5"
         sodipodi:cy="474.86218"
         sodipodi:cx="412.5"
         id="path6635"
         style="fill:#ccff00;fill-opacity:1;stroke:none"
         sodipodi:type="arc" />
      <path
         transform="translate(-103.92368,100.4039)"
         sodipodi:open="true"
         sodipodi:end="9.3836687"
         sodipodi:start="3.1170914"
         d="m 450.00075,454.92343 c -0.0338,-1.3803 1.05771,-2.52667 2.438,-2.5605 1.3803,-0.0338 2.52667,1.05771 2.5605,2.43801 0.0338,1.38029 -1.05771,2.52667 -2.438,2.56049 -1.36412,0.0334 -2.50306,-1.03313 -2.55914,-2.3965"
         sodipodi:ry="2.5"
         sodipodi:rx="2.5"
         sodipodi:cy="454.86218"
         sodipodi:cx="452.5"
         id="path6637"
         style="fill:#ccff00;fill-opacity:1;stroke:none"
         sodipodi:type="arc" />
      <path
         transform="translate(-103.92368,100.4039)"
         sodipodi:open="true"
         sodipodi:end="9.3836687"
         sodipodi:start="3.1170914"
         d="m 460.00075,474.92343 c -0.0338,-1.3803 1.05771,-2.52667 2.438,-2.5605 1.3803,-0.0338 2.52667,1.05771 2.5605,2.43801 0.0338,1.38029 -1.05771,2.52667 -2.438,2.56049 -1.36412,0.0334 -2.50306,-1.03313 -2.55914,-2.3965"
         sodipodi:ry="2.5"
         sodipodi:rx="2.5"
         sodipodi:cy="474.86218"
         sodipodi:cx="462.5"
         id="path6639"
         style="fill:#ccff00;fill-opacity:1;stroke:none"
         sodipodi:type="arc" />
      <path
         transform="translate(-103.92368,100.4039)"
         sodipodi:open="true"
         sodipodi:end="9.3836687"
         sodipodi:start="3.1170914"
         d="m 470.00075,454.92343 c -0.0338,-1.3803 1.05771,-2.52667 2.438,-2.5605 1.3803,-0.0338 2.52667,1.05771 2.5605,2.43801 0.0338,1.38029 -1.05771,2.52667 -2.438,2.56049 -1.36412,0.0334 -2.50306,-1.03313 -2.55914,-2.3965"
         sodipodi:ry="2.5"
         sodipodi:rx="2.5"
         sodipodi:cy="454.86218"
         sodipodi:cx="472.5"
         id="path6641"
         style="fill:#ccff00;fill-opacity:1;stroke:none"
         sodipodi:type="arc" />
      <path
         transform="translate(-103.92368,100.4039)"
         sodipodi:open="true"
         sodipodi:end="9.3836687"
         sodipodi:start="3.1170914"
         d="m 480.00075,454.92343 c -0.0338,-1.3803 1.05771,-2.52667 2.438,-2.5605 1.3803,-0.0338 2.52667,1.05771 2.5605,2.43801 0.0338,1.38029 -1.05771,2.52667 -2.438,2.56049 -1.36412,0.0334 -2.50306,-1.03313 -2.55914,-2.3965"
         sodipodi:ry="2.5"
         sodipodi:rx="2.5"
         sodipodi:cy="454.86218"
         sodipodi:cx="482.5"
         id="path6643"
         style="fill:#ccff00;fill-opacity:1;stroke:none"
         sodipodi:type="arc" />
      <path
         transform="translate(-103.92368,100.4039)"
         sodipodi:open="true"
         sodipodi:end="9.3836687"
         sodipodi:start="3.1170914"
         d="m 490.00075,474.92343 c -0.0338,-1.3803 1.05771,-2.52667 2.438,-2.5605 1.3803,-0.0338 2.52667,1.05771 2.5605,2.43801 0.0338,1.38029 -1.05771,2.52667 -2.438,2.56049 -1.36412,0.0334 -2.50306,-1.03313 -2.55914,-2.3965"
         sodipodi:ry="2.5"
         sodipodi:rx="2.5"
         sodipodi:cy="474.86218"
         sodipodi:cx="492.5"
         id="path6645"
         style="fill:#ccff00;fill-opacity:1;stroke:none"
         sodipodi:type="arc" />
      <path
         transform="translate(-103.92368,100.4039)"
         sodipodi:open="true"
         sodipodi:end="9.3836687"
         sodipodi:start="3.1170914"
         d="m 510.00075,454.92343 c -0.0338,-1.3803 1.05771,-2.52667 2.438,-2.5605 1.3803,-0.0338 2.52667,1.05771 2.5605,2.43801 0.0338,1.38029 -1.05771,2.52667 -2.438,2.56049 -1.36412,0.0334 -2.50306,-1.03313 -2.55914,-2.3965"
         sodipodi:ry="2.5"
         sodipodi:rx="2.5"
         sodipodi:cy="454.86218"
         sodipodi:cx="512.5"
         id="path6647"
         style="fill:#ccff00;fill-opacity:1;stroke:none"
         sodipodi:type="arc" />
      <path
         transform="translate(-103.92368,100.4039)"
         sodipodi:open="true"
         sodipodi:end="9.3836687"
         sodipodi:start="3.1170914"
         d="m 520.00075,474.92343 c -0.0338,-1.3803 1.05771,-2.52667 2.438,-2.5605 1.3803,-0.0338 2.52667,1.05771 2.5605,2.43801 0.0338,1.38029 -1.05771,2.52667 -2.438,2.56049 -1.36412,0.0334 -2.50306,-1.03313 -2.55914,-2.3965"
         sodipodi:ry="2.5"
         sodipodi:rx="2.5"
         sodipodi:cy="474.86218"
         sodipodi:cx="522.5"
         id="path6651"
         style="fill:#ccff00;fill-opacity:1;stroke:none"
         sodipodi:type="arc" />
      <path
         transform="translate(-103.92368,100.4039)"
         sodipodi:open="true"
         sodipodi:end="9.3836687"
         sodipodi:start="3.1170914"
         d="m 540.00075,454.92343 c -0.0338,-1.3803 1.05771,-2.52667 2.438,-2.5605 1.3803,-0.0338 2.52667,1.05771 2.5605,2.43801 0.0338,1.38029 -1.05771,2.52667 -2.438,2.56049 -1.36412,0.0334 -2.50306,-1.03313 -2.55914,-2.3965"
         sodipodi:ry="2.5"
         sodipodi:rx="2.5"
         sodipodi:cy="454.86218"
         sodipodi:cx="542.5"
         id="path6653"
         style="fill:#ccff00;fill-opacity:1;stroke:none"
         sodipodi:type="arc" />
      <path
         transform="translate(-103.92368,100.4039)"
         sodipodi:open="true"
         sodipodi:end="9.3836687"
         sodipodi:start="3.1170914"
         d="m 560.00075,474.92343 c -0.0338,-1.3803 1.05771,-2.52667 2.438,-2.5605 1.3803,-0.0338 2.52667,1.05771 2.5605,2.43801 0.0338,1.38029 -1.05771,2.52667 -2.438,2.56049 -1.36412,0.0334 -2.50306,-1.03313 -2.55914,-2.3965"
         sodipodi:ry="2.5"
         sodipodi:rx="2.5"
         sodipodi:cy="474.86218"
         sodipodi:cx="562.5"
         id="path6655"
         style="fill:#ccff00;fill-opacity:1;stroke:none"
         sodipodi:type="arc" />
      <path
         sodipodi:type="arc"
         style="fill:#ccff00;fill-opacity:1;stroke:none"
         id="path3406"
         sodipodi:cx="562.5"
         sodipodi:cy="474.86218"
         sodipodi:rx="2.5"
         sodipodi:ry="2.5"
         d="m 560.00075,474.92343 c -0.0338,-1.3803 1.05771,-2.52667 2.438,-2.5605 1.3803,-0.0338 2.52667,1.05771 2.5605,2.43801 0.0338,1.38029 -1.05771,2.52667 -2.438,2.56049 -1.36412,0.0334 -2.50306,-1.03313 -2.55914,-2.3965"
         sodipodi:start="3.1170914"
         sodipodi:end="9.3836687"
         sodipodi:open="true"
         transform="translate(-73.923681,100.4039)" />
      <path
         transform="translate(-73.923681,80.403904)"
         sodipodi:open="true"
         sodipodi:end="9.3836687"
         sodipodi:start="3.1170914"
         d="m 560.00075,474.92343 c -0.0338,-1.3803 1.05771,-2.52667 2.438,-2.5605 1.3803,-0.0338 2.52667,1.05771 2.5605,2.43801 0.0338,1.38029 -1.05771,2.52667 -2.438,2.56049 -1.36412,0.0334 -2.50306,-1.03313 -2.55914,-2.3965"
         sodipodi:ry="2.5"
         sodipodi:rx="2.5"
         sodipodi:cy="474.86218"
         sodipodi:cx="562.5"
         id="path3408"
         style="fill:#ccff00;fill-opacity:1;stroke:none"
         sodipodi:type="arc" />
    </g>
  </g>
</svg>
