<?xml version="1.0" encoding="UTF-8" standalone="no"?>
<!-- Created with Inkscape (http://www.inkscape.org/) -->

<svg
   xmlns:dc="http://purl.org/dc/elements/1.1/"
   xmlns:cc="http://creativecommons.org/ns#"
   xmlns:rdf="http://www.w3.org/1999/02/22-rdf-syntax-ns#"
   xmlns:svg="http://www.w3.org/2000/svg"
   xmlns="http://www.w3.org/2000/svg"
   xmlns:sodipodi="http://sodipodi.sourceforge.net/DTD/sodipodi-0.dtd"
   xmlns:inkscape="http://www.inkscape.org/namespaces/inkscape"
   width="660.00037"
   height="340.0101"
   id="svg3723"
   version="1.1"
   inkscape:version="0.48.3.1 r9886"
   sodipodi:docname="authomatic-precize-broken-4dots-lighter.svg">
  <defs
     id="defs3725" />
  <sodipodi:namedview
     id="base"
     pagecolor="#363636"
     bordercolor="#666666"
     borderopacity="1.0"
     inkscape:pageopacity="0"
     inkscape:pageshadow="2"
     inkscape:zoom="0.67734953"
     inkscape:cx="235.88598"
     inkscape:cy="-42.053829"
     inkscape:document-units="px"
     inkscape:current-layer="g5236"
     showgrid="false"
     inkscape:window-width="1280"
     inkscape:window-height="1000"
     inkscape:window-x="0"
     inkscape:window-y="24"
     inkscape:window-maximized="1"
     fit-margin-top="0"
     fit-margin-left="0"
     fit-margin-right="0"
     fit-margin-bottom="0">
    <inkscape:grid
       type="xygrid"
       id="grid3731"
       empspacing="2"
       visible="true"
       enabled="true"
       snapvisiblegridlinesonly="true"
       dotted="false"
       spacingx="10px"
       spacingy="10px"
       originx="-39.99994px"
       originy="-500px" />
  </sodipodi:namedview>
  <metadata
     id="metadata3728">
    <rdf:RDF>
      <cc:Work
         rdf:about="">
        <dc:format>image/svg+xml</dc:format>
        <dc:type
           rdf:resource="http://purl.org/dc/dcmitype/StillImage" />
        <dc:title></dc:title>
      </cc:Work>
    </rdf:RDF>
  </metadata>
  <g
     inkscape:label="straight"
     inkscape:groupmode="layer"
     id="layer1"
     transform="translate(-39.99994,-212.35207)"
     style="display:none">
    <g
       id="g4148"
       style="fill:#35869f;fill-opacity:1">
      <path
         inkscape:connector-curvature="0"
         id="rect3745"
         d="m 170.00919,212.35207 0,20 31.71875,0 28.03125,0 0.25,0 c 5.40892,2.1e-4 9.86675,4.31239 10,9.75 0.1353,5.52119 -4.22881,10.1147 -9.75,10.25 -0.0826,0.002 -0.16783,-2e-5 -0.25,0 l -28.28125,0 -12.46875,0 c -16.56357,0.40591 -29.65591,14.18643 -29.25,30.75 l 0.0313,0.46875 c 0.67294,16.36047 14.34937,29.1824 30.71875,28.78125 l 19.25,0 0,-7.625 0,-12.375 -19.75,0 c -0.0826,0.002 -0.16783,-2e-5 -0.25,0 -5.34623,10e-4 -9.77908,-4.22281 -10,-9.59375 l 0,-0.15625 c -0.1353,-5.52119 4.22881,-10.1147 9.75,-10.25 0.0836,-0.002 0.16686,0 0.25,0 l 28.28125,0 11.46875,0 0.25,0 c 5.40892,2.1e-4 9.86675,4.31239 10,9.75 0.002,0.0836 0,0.16686 0,0.25 l 0,20 20,0 0,-59.1875 c 0.0134,-0.51181 0.0127,-1.01364 0,-1.53125 -0.39982,-16.31512 -13.77017,-29.28424 -30,-29.28125 l -60,0 z"
         style="fill:#35869f;fill-opacity:1;stroke:none" />
      <path
         inkscape:connector-curvature="0"
         id="rect3822"
         d="m 410.00919,212.35207 0,20 19.75,0 0.25,0 c 5.40892,2.1e-4 9.86675,4.31239 10,9.75 0.002,0.0836 0,0.16686 0,0.25 l 0,60 20,0 0,-59.59375 0,-0.15625 c -0.002,-0.0836 0,-0.16686 0,-0.25 2.1e-4,-5.40892 4.31239,-9.86675 9.75,-10 0.0836,-0.002 0.16686,0 0.25,0 l 20,0 0,-20 -80,0 z"
         style="fill:#35869f;fill-opacity:1;stroke:none" />
      <path
         inkscape:connector-curvature="0"
         id="rect3840"
         d="m 520.00919,222.35207 0,80 20,0 0,-19.59375 0,-0.15625 c -0.002,-0.0836 0,-0.16686 0,-0.25 2.1e-4,-5.40892 4.31239,-9.86674 9.75,-10 0.0836,-0.002 0.16686,0 0.25,0 l 39.75,0 0.25,0 c 5.40892,2.1e-4 9.86675,4.31239 10,9.75 0.002,0.0836 0,0.16686 0,0.25 l 0,20 20,0 0,-80 -20,0 0,19.75 c 0.002,0.0836 0,0.16686 0,0.25 -2.1e-4,5.40892 -4.31239,9.86675 -9.75,10 -0.0826,0.002 -0.16783,-2e-5 -0.25,0 l -39.75,0 c -0.0826,0.002 -0.16783,-2e-5 -0.25,0 -5.34623,0.001 -9.77909,-4.22281 -10,-9.59375 l 0,-0.15625 c -0.002,-0.0836 0,-0.16686 0,-0.25 l 0,-20 -20,0 z"
         style="fill:#35869f;fill-opacity:1;stroke:none" />
      <path
         inkscape:connector-curvature="0"
         id="rect3879"
         d="m 280.00266,222.36196 0,59.18574 0,0.81248 c 5e-5,0.24712 -0.006,0.50154 0,0.74998 l 0.0313,0.46873 c 0.66253,16.10862 13.9347,28.77974 29.96716,28.7804 0.24922,1e-5 0.49946,0.006 0.74996,0 l 38.46672,0 0.78121,0 c 0.24921,1e-5 0.49944,0.006 0.74996,0 16.31801,-0.39993 29.26015,-13.76333 29.24846,-29.99911 -1.7e-4,-0.24169 0.006,-0.4758 0,-0.71873 l 0,-59.27949 -19.99895,0 0,31.71781 0,28.03042 c 0.002,0.0836 0,0.16685 0,0.24999 -2.1e-4,5.40876 -4.31216,9.86646 -9.74948,9.9997 -0.0826,0.002 -0.16782,-2e-5 -0.24999,0 l -39.7479,0 c -0.0826,0.002 -0.16782,-2e-5 -0.24999,0 -5.34594,0.001 -9.77856,-4.22268 -9.99947,-9.59346 l 0,-0.15625 c -0.002,-0.0836 0,-0.16685 0,-0.24999 l 0,-28.28041 0,-31.71781 -19.99894,0 z"
         style="fill:#35869f;fill-opacity:1;stroke:none" />
      <path
         inkscape:connector-curvature="0"
         d="m 739.99735,342.36216 0,-29.99542 c -5e-5,-0.24711 0.006,-0.50147 0,-0.74989 l -0.0313,-0.46868 c -0.67286,-16.35797 -14.34766,-29.17794 -30.7151,-28.77685 l -39.24533,0 c -0.24922,-1e-5 -0.49939,-0.006 -0.74991,0 -16.5616,0.40585 -29.65243,14.15302 -29.24652,30.71406 l 0,29.27678 19.99762,0 0,-1.71849 0,-28.02697 c -0.002,-0.0836 0,-0.16683 0,-0.24996 2.1e-4,-5.4081 4.31187,-9.86525 9.74884,-9.99847 0.0826,-0.002 0.16781,2e-5 0.24997,0 l 39.74527,0 c 0.0826,-0.002 0.16781,2e-5 0.24998,0 5.34559,-10e-4 9.77791,4.22216 9.99881,9.59228 l 0,0.15623 c 0.002,0.0836 0,0.16683 0,0.24996 l 0,28.27693 0,1.71849 19.99762,0 z m -99.99436,-20 0,29.99542 c 5e-5,0.24711 -0.006,0.50147 0,0.74989 l 0.0313,0.46868 c 0.67286,16.35797 14.34766,29.17794 30.7151,28.77685 l 39.24533,0 c 0.24922,10e-6 0.49939,0.006 0.74991,0 16.5616,-0.40585 29.6524,-14.15302 29.24652,-30.71406 l 0,-29.27678 -19.99762,0 0,1.71849 0,28.02697 c 0.002,0.0836 0,0.16683 0,0.24996 -2.1e-4,5.4081 -4.31187,9.86525 -9.74884,9.99847 -0.0826,0.002 -0.16781,-2e-5 -0.24997,0 l -39.74527,0 c -0.0826,0.002 -0.16781,-2e-5 -0.24998,0 -5.34559,0.001 -9.77791,-4.22216 -9.99881,-9.59228 l 0,-0.15623 c -0.002,-0.0836 0,-0.16683 0,-0.24996 l 0,-28.27693 0,-1.71849 -19.99762,0 z"
         style="fill:#35869f;fill-opacity:1;stroke:none"
         id="path3910" />
      <path
         inkscape:connector-curvature="0"
         d="m 840,222.36196 20,0 0,80.0002 -20,0 z m -40,0 20,0 0,80.0002 -20,0 z m -40,0 20,0 0,80.0002 -20,0 z"
         style="fill:#35869f;fill-opacity:1;stroke:none"
         id="rect3917"
         sodipodi:nodetypes="ccccccccccccccc" />
      <path
         style="fill:#35869f;fill-opacity:1;stroke:none"
         d="m 890.00729,212.36196 0,19.99817 31.7129,0 28.0259,0 0.25,0 c 5.4079,2.1e-4 9.8649,4.31199 9.9981,9.74911 0.1353,5.52068 -4.228,10.11377 -9.7482,10.24906 -0.083,0.002 -0.1677,-2e-5 -0.2499,0 l -28.2759,0 -12.4665,0 c -16.5605,0.40587 -29.6503,14.18513 -29.2445,30.74718 l 0.031,0.46871 c 0.6728,16.35897 14.3467,29.17972 30.713,28.77861 l 19.2464,0 0,-7.6243 0,-12.37387 -19.7463,0 c -0.083,0.002 -0.1678,-2e-5 -0.2499,0 -5.3453,0.001 -9.7773,-4.22242 -9.9981,-9.59287 l 0,-0.15623 c -0.1353,-5.52069 4.228,-10.11378 9.7481,-10.24906 0.084,-0.002 0.1668,0 0.25,0 l 28.2759,0 11.4666,0 0.25,0 c 5.4079,2.1e-4 9.8648,4.31199 9.9981,9.7491 0,0.0836 0,0.16685 0,0.24998 l 0,19.99817 19.9963,0 0,-59.18208 c 0.013,-0.51176 0.013,-1.01355 0,-1.53111 -0.3999,-16.31363 -13.7677,-29.28156 -29.9944,-29.27857 l -59.9888,0 z"
         id="path3923"
         inkscape:connector-curvature="0" />
      <path
         style="fill:#35869f;fill-opacity:1;stroke:none"
         d="m 1010,212.36196 0,20 19.75,0 0.25,0 c 5.4089,2.1e-4 9.8667,4.31239 10,9.75 0,0.0836 0,0.16686 0,0.25 l 0,60 20,0 0,-59.59375 0,-0.15625 c 0,-0.0836 0,-0.16686 0,-0.25 2e-4,-5.40892 4.3124,-9.86675 9.75,-10 0.084,-0.002 0.1668,0 0.25,0 l 20,0 0,-20 -80,0 z"
         id="path3944"
         inkscape:connector-curvature="0" />
      <path
         style="fill:#35869f;fill-opacity:1;stroke:none"
         d="m 1210,212.36196 -80,0 0,20 19.5938,0 0.1562,0 c 0.084,0 0.1669,0 0.25,0 5.4089,2e-4 9.8667,4.3124 10,9.75 0,0.084 0,0.1668 0,0.25 l 0,39.75 0,0.25 c -2e-4,5.4089 -4.3124,9.8667 -9.75,10 -0.084,0 -0.1669,0 -0.25,0 l -20,0 0,20 80,0 0,-20 -19.75,0 c -0.084,0 -0.1669,0 -0.25,0 -5.4089,-2e-4 -9.8668,-4.3124 -10,-9.75 0,-0.083 0,-0.1679 0,-0.25 l 0,-39.75 c 0,-0.083 0,-0.1679 0,-0.25 -10e-4,-5.3463 4.2228,-9.7791 9.5938,-10 l 0.1562,0 c 0.084,0 0.1669,0 0.25,0 l 20,0 0,-20 z"
         id="path3946"
         inkscape:connector-curvature="0" />
      <path
         style="fill:#35869f;fill-opacity:1;stroke:none"
         d="m 1330,212.36658 -59.1846,0 -0.8125,0 c -0.2471,1e-4 -0.5015,-0.01 -0.75,0 l -0.4687,0.031 c -16.1082,0.66248 -28.7791,13.93424 -28.7798,29.96621 0,0.24919 -0.01,0.49938 0,0.74987 l 0,38.46552 0,0.78118 c 0,0.24919 -0.01,0.49938 0,0.74987 0.3999,16.31746 13.763,29.25923 29.9985,29.24753 0.2417,-2e-4 0.4758,0.01 0.7187,0 l 59.2784,0 0,-19.99834 -31.7172,0 -28.0299,0 c -0.084,0 -0.1668,0 -0.25,0 -5.4086,-2e-4 -9.8662,-4.31195 -9.9995,-9.74907 0,-0.083 0,-0.1679 0,-0.24999 l 0,-39.74658 c 0,-0.083 0,-0.1679 0,-0.24999 -10e-4,-5.34583 4.2226,-9.77828 9.5933,-9.99917 l 0.1562,0 c 0.084,0 0.1669,0 0.25,0 l 28.2799,0 31.7172,0 0,-19.99824 z"
         id="path3948"
         inkscape:connector-curvature="0" />
    </g>
  </g>
  <g
     style="display:inline"
     transform="translate(-39.99994,-212.35207)"
     id="g5089"
     inkscape:groupmode="layer"
     inkscape:label="straight + hidden dots" />
  <g
     inkscape:groupmode="layer"
     id="layer3"
     inkscape:label="straight dots"
     style="display:none"
     transform="translate(-39.99994,-212.35209)">
    <path
       sodipodi:type="arc"
       style="fill:#ff2a2a;fill-opacity:1;stroke:none"
       id="path3951"
       sodipodi:cx="170"
       sodipodi:cy="222.36218"
       sodipodi:rx="10"
       sodipodi:ry="10"
       d="m 160.003,222.60717 c -0.1353,-5.52119 4.23082,-10.10668 9.75201,-10.24199 5.52119,-0.1353 10.10669,4.23082 10.24199,9.75201 0.1353,5.52119 -4.23082,10.10669 -9.75201,10.24199 -5.45646,0.13372 -10.01223,-4.13253 -10.23654,-9.58602"
       sodipodi:start="3.1170914"
       sodipodi:end="9.3836687"
       sodipodi:open="true" />
    <path
       sodipodi:open="true"
       sodipodi:end="9.3836687"
       sodipodi:start="3.1170914"
       d="m 160.003,222.60717 c -0.1353,-5.52119 4.23082,-10.10668 9.75201,-10.24199 5.52119,-0.1353 10.10669,4.23082 10.24199,9.75201 0.1353,5.52119 -4.23082,10.10669 -9.75201,10.24199 -5.45646,0.13372 -10.01223,-4.13253 -10.23654,-9.58602"
       sodipodi:ry="10"
       sodipodi:rx="10"
       sodipodi:cy="222.36218"
       sodipodi:cx="170"
       id="path3953"
       style="fill:#ff2a2a;fill-opacity:1;stroke:none"
       sodipodi:type="arc"
       transform="translate(40,80)" />
    <path
       transform="translate(120,0)"
       sodipodi:type="arc"
       style="fill:#ff2a2a;fill-opacity:1;stroke:none"
       id="path3955"
       sodipodi:cx="170"
       sodipodi:cy="222.36218"
       sodipodi:rx="10"
       sodipodi:ry="10"
       d="m 160.003,222.60717 c -0.1353,-5.52119 4.23082,-10.10668 9.75201,-10.24199 5.52119,-0.1353 10.10669,4.23082 10.24199,9.75201 0.1353,5.52119 -4.23082,10.10669 -9.75201,10.24199 -5.45646,0.13372 -10.01223,-4.13253 -10.23654,-9.58602"
       sodipodi:start="3.1170914"
       sodipodi:end="9.3836687"
       sodipodi:open="true" />
    <path
       sodipodi:open="true"
       sodipodi:end="9.3836687"
       sodipodi:start="3.1170914"
       d="m 160.003,222.60717 c -0.1353,-5.52119 4.23082,-10.10668 9.75201,-10.24199 5.52119,-0.1353 10.10669,4.23082 10.24199,9.75201 0.1353,5.52119 -4.23082,10.10669 -9.75201,10.24199 -5.45646,0.13372 -10.01223,-4.13253 -10.23654,-9.58602"
       sodipodi:ry="10"
       sodipodi:rx="10"
       sodipodi:cy="222.36218"
       sodipodi:cx="170"
       id="path3957"
       style="fill:#ff2a2a;fill-opacity:1;stroke:none"
       sodipodi:type="arc"
       transform="translate(200,0)" />
    <path
       transform="translate(240,0)"
       sodipodi:type="arc"
       style="fill:#ff2a2a;fill-opacity:1;stroke:none"
       id="path3959"
       sodipodi:cx="170"
       sodipodi:cy="222.36218"
       sodipodi:rx="10"
       sodipodi:ry="10"
       d="m 160.003,222.60717 c -0.1353,-5.52119 4.23082,-10.10668 9.75201,-10.24199 5.52119,-0.1353 10.10669,4.23082 10.24199,9.75201 0.1353,5.52119 -4.23082,10.10669 -9.75201,10.24199 -5.45646,0.13372 -10.01223,-4.13253 -10.23654,-9.58602"
       sodipodi:start="3.1170914"
       sodipodi:end="9.3836687"
       sodipodi:open="true" />
    <path
       sodipodi:open="true"
       sodipodi:end="9.3836687"
       sodipodi:start="3.1170914"
       d="m 160.003,222.60717 c -0.1353,-5.52119 4.23082,-10.10668 9.75201,-10.24199 5.52119,-0.1353 10.10669,4.23082 10.24199,9.75201 0.1353,5.52119 -4.23082,10.10669 -9.75201,10.24199 -5.45646,0.13372 -10.01223,-4.13253 -10.23654,-9.58602"
       sodipodi:ry="10"
       sodipodi:rx="10"
       sodipodi:cy="222.36218"
       sodipodi:cx="170"
       id="path3961"
       style="fill:#ff2a2a;fill-opacity:1;stroke:none"
       sodipodi:type="arc"
       transform="translate(320,0)" />
    <path
       transform="translate(280,80)"
       sodipodi:type="arc"
       style="fill:#ff2a2a;fill-opacity:1;stroke:none"
       id="path3963"
       sodipodi:cx="170"
       sodipodi:cy="222.36218"
       sodipodi:rx="10"
       sodipodi:ry="10"
       d="m 160.003,222.60717 c -0.1353,-5.52119 4.23082,-10.10668 9.75201,-10.24199 5.52119,-0.1353 10.10669,4.23082 10.24199,9.75201 0.1353,5.52119 -4.23082,10.10669 -9.75201,10.24199 -5.45646,0.13372 -10.01223,-4.13253 -10.23654,-9.58602"
       sodipodi:start="3.1170914"
       sodipodi:end="9.3836687"
       sodipodi:open="true" />
    <path
       transform="translate(360,0)"
       sodipodi:type="arc"
       style="fill:#ff2a2a;fill-opacity:1;stroke:none"
       id="path3965"
       sodipodi:cx="170"
       sodipodi:cy="222.36218"
       sodipodi:rx="10"
       sodipodi:ry="10"
       d="m 160.003,222.60717 c -0.1353,-5.52119 4.23082,-10.10668 9.75201,-10.24199 5.52119,-0.1353 10.10669,4.23082 10.24199,9.75201 0.1353,5.52119 -4.23082,10.10669 -9.75201,10.24199 -5.45646,0.13372 -10.01223,-4.13253 -10.23654,-9.58602"
       sodipodi:start="3.1170914"
       sodipodi:end="9.3836687"
       sodipodi:open="true" />
    <path
       sodipodi:open="true"
       sodipodi:end="9.3836687"
       sodipodi:start="3.1170914"
       d="m 160.003,222.60717 c -0.1353,-5.52119 4.23082,-10.10668 9.75201,-10.24199 5.52119,-0.1353 10.10669,4.23082 10.24199,9.75201 0.1353,5.52119 -4.23082,10.10669 -9.75201,10.24199 -5.45646,0.13372 -10.01223,-4.13253 -10.23654,-9.58602"
       sodipodi:ry="10"
       sodipodi:rx="10"
       sodipodi:cy="222.36218"
       sodipodi:cx="170"
       id="path3967"
       style="fill:#ff2a2a;fill-opacity:1;stroke:none"
       sodipodi:type="arc"
       transform="translate(440,80)" />
    <path
       transform="translate(360,80)"
       sodipodi:type="arc"
       style="fill:#ff2a2a;fill-opacity:1;stroke:none"
       id="path3969"
       sodipodi:cx="170"
       sodipodi:cy="222.36218"
       sodipodi:rx="10"
       sodipodi:ry="10"
       d="m 160.003,222.60717 c -0.1353,-5.52119 4.23082,-10.10668 9.75201,-10.24199 5.52119,-0.1353 10.10669,4.23082 10.24199,9.75201 0.1353,5.52119 -4.23082,10.10669 -9.75201,10.24199 -5.45646,0.13372 -10.01223,-4.13253 -10.23654,-9.58602"
       sodipodi:start="3.1170914"
       sodipodi:end="9.3836687"
       sodipodi:open="true" />
    <path
       sodipodi:open="true"
       sodipodi:end="9.3836687"
       sodipodi:start="3.1170914"
       d="m 160.003,222.60717 c -0.1353,-5.52119 4.23082,-10.10668 9.75201,-10.24199 5.52119,-0.1353 10.10669,4.23082 10.24199,9.75201 0.1353,5.52119 -4.23082,10.10669 -9.75201,10.24199 -5.45646,0.13372 -10.01223,-4.13253 -10.23654,-9.58602"
       sodipodi:ry="10"
       sodipodi:rx="10"
       sodipodi:cy="222.36218"
       sodipodi:cx="170"
       id="path3971"
       style="fill:#ff2a2a;fill-opacity:1;stroke:none"
       sodipodi:type="arc"
       transform="translate(440,0)" />
    <path
       transform="translate(600,0)"
       sodipodi:type="arc"
       style="fill:#ff2a2a;fill-opacity:1;stroke:none"
       id="path3973"
       sodipodi:cx="170"
       sodipodi:cy="222.36218"
       sodipodi:rx="10"
       sodipodi:ry="10"
       d="m 160.003,222.60717 c -0.1353,-5.52119 4.23082,-10.10668 9.75201,-10.24199 5.52119,-0.1353 10.10669,4.23082 10.24199,9.75201 0.1353,5.52119 -4.23082,10.10669 -9.75201,10.24199 -5.45646,0.13372 -10.01223,-4.13253 -10.23654,-9.58602"
       sodipodi:start="3.1170914"
       sodipodi:end="9.3836687"
       sodipodi:open="true" />
    <path
       sodipodi:open="true"
       sodipodi:end="9.3836687"
       sodipodi:start="3.1170914"
       d="m 160.003,222.60717 c -0.1353,-5.52119 4.23082,-10.10668 9.75201,-10.24199 5.52119,-0.1353 10.10669,4.23082 10.24199,9.75201 0.1353,5.52119 -4.23082,10.10669 -9.75201,10.24199 -5.45646,0.13372 -10.01223,-4.13253 -10.23654,-9.58602"
       sodipodi:ry="10"
       sodipodi:rx="10"
       sodipodi:cy="222.36218"
       sodipodi:cx="170"
       id="path3975"
       style="fill:#ff2a2a;fill-opacity:1;stroke:none"
       sodipodi:type="arc"
       transform="translate(680,70)" />
    <path
       transform="translate(640,70)"
       sodipodi:type="arc"
       style="fill:#ff2a2a;fill-opacity:1;stroke:none"
       id="path3977"
       sodipodi:cx="170"
       sodipodi:cy="222.36218"
       sodipodi:rx="10"
       sodipodi:ry="10"
       d="m 160.003,222.60717 c -0.1353,-5.52119 4.23082,-10.10668 9.75201,-10.24199 5.52119,-0.1353 10.10669,4.23082 10.24199,9.75201 0.1353,5.52119 -4.23082,10.10669 -9.75201,10.24199 -5.45646,0.13372 -10.01223,-4.13253 -10.23654,-9.58602"
       sodipodi:start="3.1170914"
       sodipodi:end="9.3836687"
       sodipodi:open="true" />
    <path
       sodipodi:open="true"
       sodipodi:end="9.3836687"
       sodipodi:start="3.1170914"
       d="m 160.003,222.60717 c -0.1353,-5.52119 4.23082,-10.10668 9.75201,-10.24199 5.52119,-0.1353 10.10669,4.23082 10.24199,9.75201 0.1353,5.52119 -4.23082,10.10669 -9.75201,10.24199 -5.45646,0.13372 -10.01223,-4.13253 -10.23654,-9.58602"
       sodipodi:ry="10"
       sodipodi:rx="10"
       sodipodi:cy="222.36218"
       sodipodi:cx="170"
       id="path3979"
       style="fill:#ff2a2a;fill-opacity:1;stroke:none"
       sodipodi:type="arc"
       transform="translate(600,70)" />
    <path
       transform="translate(680,0)"
       sodipodi:type="arc"
       style="fill:#ff2a2a;fill-opacity:1;stroke:none"
       id="path3981"
       sodipodi:cx="170"
       sodipodi:cy="222.36218"
       sodipodi:rx="10"
       sodipodi:ry="10"
       d="m 160.003,222.60717 c -0.1353,-5.52119 4.23082,-10.10668 9.75201,-10.24199 5.52119,-0.1353 10.10669,4.23082 10.24199,9.75201 0.1353,5.52119 -4.23082,10.10669 -9.75201,10.24199 -5.45646,0.13372 -10.01223,-4.13253 -10.23654,-9.58602"
       sodipodi:start="3.1170914"
       sodipodi:end="9.3836687"
       sodipodi:open="true" />
    <path
       sodipodi:open="true"
       sodipodi:end="9.3836687"
       sodipodi:start="3.1170914"
       d="m 160.003,222.60717 c -0.1353,-5.52119 4.23082,-10.10668 9.75201,-10.24199 5.52119,-0.1353 10.10669,4.23082 10.24199,9.75201 0.1353,5.52119 -4.23082,10.10669 -9.75201,10.24199 -5.45646,0.13372 -10.01223,-4.13253 -10.23654,-9.58602"
       sodipodi:ry="10"
       sodipodi:rx="10"
       sodipodi:cy="222.36218"
       sodipodi:cx="170"
       id="path3983"
       style="fill:#ff2a2a;fill-opacity:1;stroke:none"
       sodipodi:type="arc"
       transform="translate(640,0)" />
    <path
       sodipodi:open="true"
       sodipodi:end="9.3836687"
       sodipodi:start="3.1170914"
       d="m 160.003,222.60717 c -0.1353,-5.52119 4.23082,-10.10668 9.75201,-10.24199 5.52119,-0.1353 10.10669,4.23082 10.24199,9.75201 0.1353,5.52119 -4.23082,10.10669 -9.75201,10.24199 -5.45646,0.13372 -10.01223,-4.13253 -10.23654,-9.58602"
       sodipodi:ry="10"
       sodipodi:rx="10"
       sodipodi:cy="222.36218"
       sodipodi:cx="170"
       id="path3985"
       style="fill:#ff2a2a;fill-opacity:1;stroke:none"
       sodipodi:type="arc"
       transform="translate(720,0)" />
    <path
       transform="translate(760,80)"
       sodipodi:type="arc"
       style="fill:#ff2a2a;fill-opacity:1;stroke:none"
       id="path3987"
       sodipodi:cx="170"
       sodipodi:cy="222.36218"
       sodipodi:rx="10"
       sodipodi:ry="10"
       d="m 160.003,222.60717 c -0.1353,-5.52119 4.23082,-10.10668 9.75201,-10.24199 5.52119,-0.1353 10.10669,4.23082 10.24199,9.75201 0.1353,5.52119 -4.23082,10.10669 -9.75201,10.24199 -5.45646,0.13372 -10.01223,-4.13253 -10.23654,-9.58602"
       sodipodi:start="3.1170914"
       sodipodi:end="9.3836687"
       sodipodi:open="true" />
    <path
       sodipodi:open="true"
       sodipodi:end="9.3836687"
       sodipodi:start="3.1170914"
       d="m 160.003,222.60717 c -0.1353,-5.52119 4.23082,-10.10668 9.75201,-10.24199 5.52119,-0.1353 10.10669,4.23082 10.24199,9.75201 0.1353,5.52119 -4.23082,10.10669 -9.75201,10.24199 -5.45646,0.13372 -10.01223,-4.13253 -10.23654,-9.58602"
       sodipodi:ry="10"
       sodipodi:rx="10"
       sodipodi:cy="222.36218"
       sodipodi:cx="170"
       id="path3989"
       style="fill:#ff2a2a;fill-opacity:1;stroke:none"
       sodipodi:type="arc"
       transform="translate(800,80)" />
    <path
       transform="translate(840,0)"
       sodipodi:type="arc"
       style="fill:#ff2a2a;fill-opacity:1;stroke:none"
       id="path3991"
       sodipodi:cx="170"
       sodipodi:cy="222.36218"
       sodipodi:rx="10"
       sodipodi:ry="10"
       d="m 160.003,222.60717 c -0.1353,-5.52119 4.23082,-10.10668 9.75201,-10.24199 5.52119,-0.1353 10.10669,4.23082 10.24199,9.75201 0.1353,5.52119 -4.23082,10.10669 -9.75201,10.24199 -5.45646,0.13372 -10.01223,-4.13253 -10.23654,-9.58602"
       sodipodi:start="3.1170914"
       sodipodi:end="9.3836687"
       sodipodi:open="true" />
    <path
       sodipodi:open="true"
       sodipodi:end="9.3836687"
       sodipodi:start="3.1170914"
       d="m 160.003,222.60717 c -0.1353,-5.52119 4.23082,-10.10668 9.75201,-10.24199 5.52119,-0.1353 10.10669,4.23082 10.24199,9.75201 0.1353,5.52119 -4.23082,10.10669 -9.75201,10.24199 -5.45646,0.13372 -10.01223,-4.13253 -10.23654,-9.58602"
       sodipodi:ry="10"
       sodipodi:rx="10"
       sodipodi:cy="222.36218"
       sodipodi:cx="170"
       id="path3993"
       style="fill:#ff2a2a;fill-opacity:1;stroke:none"
       sodipodi:type="arc"
       transform="translate(920,0)" />
    <path
       transform="translate(880,80)"
       sodipodi:type="arc"
       style="fill:#ff2a2a;fill-opacity:1;stroke:none"
       id="path3995"
       sodipodi:cx="170"
       sodipodi:cy="222.36218"
       sodipodi:rx="10"
       sodipodi:ry="10"
       d="m 160.003,222.60717 c -0.1353,-5.52119 4.23082,-10.10668 9.75201,-10.24199 5.52119,-0.1353 10.10669,4.23082 10.24199,9.75201 0.1353,5.52119 -4.23082,10.10669 -9.75201,10.24199 -5.45646,0.13372 -10.01223,-4.13253 -10.23654,-9.58602"
       sodipodi:start="3.1170914"
       sodipodi:end="9.3836687"
       sodipodi:open="true" />
    <path
       transform="translate(960,0)"
       sodipodi:type="arc"
       style="fill:#ff2a2a;fill-opacity:1;stroke:none"
       id="path3997"
       sodipodi:cx="170"
       sodipodi:cy="222.36218"
       sodipodi:rx="10"
       sodipodi:ry="10"
       d="m 160.003,222.60717 c -0.1353,-5.52119 4.23082,-10.10668 9.75201,-10.24199 5.52119,-0.1353 10.10669,4.23082 10.24199,9.75201 0.1353,5.52119 -4.23082,10.10669 -9.75201,10.24199 -5.45646,0.13372 -10.01223,-4.13253 -10.23654,-9.58602"
       sodipodi:start="3.1170914"
       sodipodi:end="9.3836687"
       sodipodi:open="true" />
    <path
       sodipodi:open="true"
       sodipodi:end="9.3836687"
       sodipodi:start="3.1170914"
       d="m 160.003,222.60717 c -0.1353,-5.52119 4.23082,-10.10668 9.75201,-10.24199 5.52119,-0.1353 10.10669,4.23082 10.24199,9.75201 0.1353,5.52119 -4.23082,10.10669 -9.75201,10.24199 -5.45646,0.13372 -10.01223,-4.13253 -10.23654,-9.58602"
       sodipodi:ry="10"
       sodipodi:rx="10"
       sodipodi:cy="222.36218"
       sodipodi:cx="170"
       id="path3999"
       style="fill:#ff2a2a;fill-opacity:1;stroke:none"
       sodipodi:type="arc"
       transform="translate(1040,80)" />
    <path
       transform="translate(960,80)"
       sodipodi:type="arc"
       style="fill:#ff2a2a;fill-opacity:1;stroke:none"
       id="path4001"
       sodipodi:cx="170"
       sodipodi:cy="222.36218"
       sodipodi:rx="10"
       sodipodi:ry="10"
       d="m 160.003,222.60717 c -0.1353,-5.52119 4.23082,-10.10668 9.75201,-10.24199 5.52119,-0.1353 10.10669,4.23082 10.24199,9.75201 0.1353,5.52119 -4.23082,10.10669 -9.75201,10.24199 -5.45646,0.13372 -10.01223,-4.13253 -10.23654,-9.58602"
       sodipodi:start="3.1170914"
       sodipodi:end="9.3836687"
       sodipodi:open="true" />
    <path
       sodipodi:open="true"
       sodipodi:end="9.3836687"
       sodipodi:start="3.1170914"
       d="m 160.003,222.60717 c -0.1353,-5.52119 4.23082,-10.10668 9.75201,-10.24199 5.52119,-0.1353 10.10669,4.23082 10.24199,9.75201 0.1353,5.52119 -4.23082,10.10669 -9.75201,10.24199 -5.45646,0.13372 -10.01223,-4.13253 -10.23654,-9.58602"
       sodipodi:ry="10"
       sodipodi:rx="10"
       sodipodi:cy="222.36218"
       sodipodi:cx="170"
       id="path4003"
       style="fill:#ff2a2a;fill-opacity:1;stroke:none"
       sodipodi:type="arc"
       transform="translate(1040,0)" />
    <path
       transform="translate(1160,0)"
       sodipodi:type="arc"
       style="fill:#ff2a2a;fill-opacity:1;stroke:none"
       id="path4005"
       sodipodi:cx="170"
       sodipodi:cy="222.36218"
       sodipodi:rx="10"
       sodipodi:ry="10"
       d="m 160.003,222.60717 c -0.1353,-5.52119 4.23082,-10.10668 9.75201,-10.24199 5.52119,-0.1353 10.10669,4.23082 10.24199,9.75201 0.1353,5.52119 -4.23082,10.10669 -9.75201,10.24199 -5.45646,0.13372 -10.01223,-4.13253 -10.23654,-9.58602"
       sodipodi:start="3.1170914"
       sodipodi:end="9.3836687"
       sodipodi:open="true" />
    <path
       sodipodi:open="true"
       sodipodi:end="9.3836687"
       sodipodi:start="3.1170914"
       d="m 160.003,222.60717 c -0.1353,-5.52119 4.23082,-10.10668 9.75201,-10.24199 5.52119,-0.1353 10.10669,4.23082 10.24199,9.75201 0.1353,5.52119 -4.23082,10.10669 -9.75201,10.24199 -5.45646,0.13372 -10.01223,-4.13253 -10.23654,-9.58602"
       sodipodi:ry="10"
       sodipodi:rx="10"
       sodipodi:cy="222.36218"
       sodipodi:cx="170"
       id="path4007"
       style="fill:#ff2a2a;fill-opacity:1;stroke:none"
       sodipodi:type="arc"
       transform="translate(1160,80)" />
    <path
       transform="translate(80,80)"
       sodipodi:type="arc"
       style="fill:#ff2a2a;fill-opacity:1;stroke:none"
       id="path4009"
       sodipodi:cx="170"
       sodipodi:cy="222.36218"
       sodipodi:rx="10"
       sodipodi:ry="10"
       d="m 160.003,222.60717 c -0.1353,-5.52119 4.23082,-10.10668 9.75201,-10.24199 5.52119,-0.1353 10.10669,4.23082 10.24199,9.75201 0.1353,5.52119 -4.23082,10.10669 -9.75201,10.24199 -5.45646,0.13372 -10.01223,-4.13253 -10.23654,-9.58602"
       sodipodi:start="3.1170914"
       sodipodi:end="9.3836687"
       sodipodi:open="true" />
  </g>
  <g
     inkscape:label="straight dots hidden"
     id="g4011"
     inkscape:groupmode="layer"
     style="display:none"
     transform="translate(-39.99994,-212.35209)">
    <path
       transform="translate(320,0)"
       sodipodi:type="arc"
       style="fill:#35869f;fill-opacity:1;stroke:none"
       id="path4023"
       sodipodi:cx="170"
       sodipodi:cy="222.36218"
       sodipodi:rx="10"
       sodipodi:ry="10"
       d="m 160.003,222.60717 c -0.1353,-5.52119 4.23082,-10.10668 9.75201,-10.24199 5.52119,-0.1353 10.10669,4.23082 10.24199,9.75201 0.1353,5.52119 -4.23082,10.10669 -9.75201,10.24199 -5.45646,0.13372 -10.01223,-4.13253 -10.23654,-9.58602"
       sodipodi:start="3.1170914"
       sodipodi:end="9.3836687"
       sodipodi:open="true" />
    <path
       sodipodi:open="true"
       sodipodi:end="9.3836687"
       sodipodi:start="3.1170914"
       d="m 160.003,222.60717 c -0.1353,-5.52119 4.23082,-10.10668 9.75201,-10.24199 5.52119,-0.1353 10.10669,4.23082 10.24199,9.75201 0.1353,5.52119 -4.23082,10.10669 -9.75201,10.24199 -5.45646,0.13372 -10.01223,-4.13253 -10.23654,-9.58602"
       sodipodi:ry="10"
       sodipodi:rx="10"
       sodipodi:cy="222.36218"
       sodipodi:cx="170"
       id="path4031"
       style="fill:#35869f;fill-opacity:1;stroke:none"
       sodipodi:type="arc"
       transform="translate(360,80)" />
    <path
       transform="translate(440,0)"
       sodipodi:type="arc"
       style="fill:#35869f;fill-opacity:1;stroke:none"
       id="path4033"
       sodipodi:cx="170"
       sodipodi:cy="222.36218"
       sodipodi:rx="10"
       sodipodi:ry="10"
       d="m 160.003,222.60717 c -0.1353,-5.52119 4.23082,-10.10668 9.75201,-10.24199 5.52119,-0.1353 10.10669,4.23082 10.24199,9.75201 0.1353,5.52119 -4.23082,10.10669 -9.75201,10.24199 -5.45646,0.13372 -10.01223,-4.13253 -10.23654,-9.58602"
       sodipodi:start="3.1170914"
       sodipodi:end="9.3836687"
       sodipodi:open="true" />
    <path
       transform="translate(680,80)"
       sodipodi:type="arc"
       style="fill:#35869f;fill-opacity:1;stroke:none"
       id="path4037"
       sodipodi:cx="170"
       sodipodi:cy="222.36218"
       sodipodi:rx="10"
       sodipodi:ry="10"
       d="m 160.003,222.60717 c -0.1353,-5.52119 4.23082,-10.10668 9.75201,-10.24199 5.52119,-0.1353 10.10669,4.23082 10.24199,9.75201 0.1353,5.52119 -4.23082,10.10669 -9.75201,10.24199 -5.45646,0.13372 -10.01223,-4.13253 -10.23654,-9.58602"
       sodipodi:start="3.1170914"
       sodipodi:end="9.3836687"
       sodipodi:open="true" />
    <path
       transform="translate(600,80)"
       sodipodi:type="arc"
       style="fill:#35869f;fill-opacity:1;stroke:none"
       id="path4041"
       sodipodi:cx="170"
       sodipodi:cy="222.36218"
       sodipodi:rx="10"
       sodipodi:ry="10"
       d="m 160.003,222.60717 c -0.1353,-5.52119 4.23082,-10.10668 9.75201,-10.24199 5.52119,-0.1353 10.10669,4.23082 10.24199,9.75201 0.1353,5.52119 -4.23082,10.10669 -9.75201,10.24199 -5.45646,0.13372 -10.01223,-4.13253 -10.23654,-9.58602"
       sodipodi:start="3.1170914"
       sodipodi:end="9.3836687"
       sodipodi:open="true" />
    <path
       transform="translate(640,0)"
       sodipodi:type="arc"
       style="fill:#35869f;fill-opacity:1;stroke:none"
       id="path4045"
       sodipodi:cx="170"
       sodipodi:cy="222.36218"
       sodipodi:rx="10"
       sodipodi:ry="10"
       d="m 160.003,222.60717 c -0.1353,-5.52119 4.23082,-10.10668 9.75201,-10.24199 5.52119,-0.1353 10.10669,4.23082 10.24199,9.75201 0.1353,5.52119 -4.23082,10.10669 -9.75201,10.24199 -5.45646,0.13372 -10.01223,-4.13253 -10.23654,-9.58602"
       sodipodi:start="3.1170914"
       sodipodi:end="9.3836687"
       sodipodi:open="true" />
    <path
       transform="translate(800,80)"
       sodipodi:type="arc"
       style="fill:#35869f;fill-opacity:1;stroke:none"
       id="path4051"
       sodipodi:cx="170"
       sodipodi:cy="222.36218"
       sodipodi:rx="10"
       sodipodi:ry="10"
       d="m 160.003,222.60717 c -0.1353,-5.52119 4.23082,-10.10668 9.75201,-10.24199 5.52119,-0.1353 10.10669,4.23082 10.24199,9.75201 0.1353,5.52119 -4.23082,10.10669 -9.75201,10.24199 -5.45646,0.13372 -10.01223,-4.13253 -10.23654,-9.58602"
       sodipodi:start="3.1170914"
       sodipodi:end="9.3836687"
       sodipodi:open="true" />
    <path
       transform="translate(920,0)"
       sodipodi:type="arc"
       style="fill:#35869f;fill-opacity:1;stroke:none"
       id="path4055"
       sodipodi:cx="170"
       sodipodi:cy="222.36218"
       sodipodi:rx="10"
       sodipodi:ry="10"
       d="m 160.003,222.60717 c -0.1353,-5.52119 4.23082,-10.10668 9.75201,-10.24199 5.52119,-0.1353 10.10669,4.23082 10.24199,9.75201 0.1353,5.52119 -4.23082,10.10669 -9.75201,10.24199 -5.45646,0.13372 -10.01223,-4.13253 -10.23654,-9.58602"
       sodipodi:start="3.1170914"
       sodipodi:end="9.3836687"
       sodipodi:open="true" />
    <path
       sodipodi:open="true"
       sodipodi:end="9.3836687"
       sodipodi:start="3.1170914"
       d="m 160.003,222.60717 c -0.1353,-5.52119 4.23082,-10.10668 9.75201,-10.24199 5.52119,-0.1353 10.10669,4.23082 10.24199,9.75201 0.1353,5.52119 -4.23082,10.10669 -9.75201,10.24199 -5.45646,0.13372 -10.01223,-4.13253 -10.23654,-9.58602"
       sodipodi:ry="10"
       sodipodi:rx="10"
       sodipodi:cy="222.36218"
       sodipodi:cx="170"
       id="path4063"
       style="fill:#35869f;fill-opacity:1;stroke:none"
       sodipodi:type="arc"
       transform="translate(960,80)" />
    <path
       transform="translate(1040,0)"
       sodipodi:type="arc"
       style="fill:#35869f;fill-opacity:1;stroke:none"
       id="path4065"
       sodipodi:cx="170"
       sodipodi:cy="222.36218"
       sodipodi:rx="10"
       sodipodi:ry="10"
       d="m 160.003,222.60717 c -0.1353,-5.52119 4.23082,-10.10668 9.75201,-10.24199 5.52119,-0.1353 10.10669,4.23082 10.24199,9.75201 0.1353,5.52119 -4.23082,10.10669 -9.75201,10.24199 -5.45646,0.13372 -10.01223,-4.13253 -10.23654,-9.58602"
       sodipodi:start="3.1170914"
       sodipodi:end="9.3836687"
       sodipodi:open="true" />
    <path
       sodipodi:open="true"
       sodipodi:end="9.3836687"
       sodipodi:start="3.1170914"
       d="m 160.003,222.60717 c -0.1353,-5.52119 4.23082,-10.10668 9.75201,-10.24199 5.52119,-0.1353 10.10669,4.23082 10.24199,9.75201 0.1353,5.52119 -4.23082,10.10669 -9.75201,10.24199 -5.45646,0.13372 -10.01223,-4.13253 -10.23654,-9.58602"
       sodipodi:ry="10"
       sodipodi:rx="10"
       sodipodi:cy="222.36218"
       sodipodi:cx="170"
       id="path4071"
       style="fill:#35869f;fill-opacity:1;stroke:none"
       sodipodi:type="arc"
       transform="translate(80,80)" />
  </g>
  <g
     style="display:none"
     inkscape:label="straight dots visible"
     id="g4086"
     inkscape:groupmode="layer"
     transform="translate(-39.99994,-212.35209)">
    <path
       sodipodi:open="true"
       sodipodi:end="9.3836687"
       sodipodi:start="3.1170914"
       d="m 160.003,222.60717 c -0.1353,-5.52119 4.23082,-10.10668 9.75201,-10.24199 5.52119,-0.1353 10.10669,4.23082 10.24199,9.75201 0.1353,5.52119 -4.23082,10.10669 -9.75201,10.24199 -5.45646,0.13372 -10.01223,-4.13253 -10.23654,-9.58602"
       sodipodi:ry="10"
       sodipodi:rx="10"
       sodipodi:cy="222.36218"
       sodipodi:cx="170"
       id="path4088"
       style="fill:#ff2a2a;fill-opacity:1;stroke:none"
       sodipodi:type="arc" />
    <path
       transform="translate(40,80)"
       sodipodi:type="arc"
       style="fill:#ff2a2a;fill-opacity:1;stroke:none"
       id="path4090"
       sodipodi:cx="170"
       sodipodi:cy="222.36218"
       sodipodi:rx="10"
       sodipodi:ry="10"
       d="m 160.003,222.60717 c -0.1353,-5.52119 4.23082,-10.10668 9.75201,-10.24199 5.52119,-0.1353 10.10669,4.23082 10.24199,9.75201 0.1353,5.52119 -4.23082,10.10669 -9.75201,10.24199 -5.45646,0.13372 -10.01223,-4.13253 -10.23654,-9.58602"
       sodipodi:start="3.1170914"
       sodipodi:end="9.3836687"
       sodipodi:open="true" />
    <path
       sodipodi:open="true"
       sodipodi:end="9.3836687"
       sodipodi:start="3.1170914"
       d="m 160.003,222.60717 c -0.1353,-5.52119 4.23082,-10.10668 9.75201,-10.24199 5.52119,-0.1353 10.10669,4.23082 10.24199,9.75201 0.1353,5.52119 -4.23082,10.10669 -9.75201,10.24199 -5.45646,0.13372 -10.01223,-4.13253 -10.23654,-9.58602"
       sodipodi:ry="10"
       sodipodi:rx="10"
       sodipodi:cy="222.36218"
       sodipodi:cx="170"
       id="path4092"
       style="fill:#ff2a2a;fill-opacity:1;stroke:none"
       sodipodi:type="arc"
       transform="translate(120,0)" />
    <path
       transform="translate(200,0)"
       sodipodi:type="arc"
       style="fill:#ff2a2a;fill-opacity:1;stroke:none"
       id="path4094"
       sodipodi:cx="170"
       sodipodi:cy="222.36218"
       sodipodi:rx="10"
       sodipodi:ry="10"
       d="m 160.003,222.60717 c -0.1353,-5.52119 4.23082,-10.10668 9.75201,-10.24199 5.52119,-0.1353 10.10669,4.23082 10.24199,9.75201 0.1353,5.52119 -4.23082,10.10669 -9.75201,10.24199 -5.45646,0.13372 -10.01223,-4.13253 -10.23654,-9.58602"
       sodipodi:start="3.1170914"
       sodipodi:end="9.3836687"
       sodipodi:open="true" />
    <path
       sodipodi:open="true"
       sodipodi:end="9.3836687"
       sodipodi:start="3.1170914"
       d="m 160.003,222.60717 c -0.1353,-5.52119 4.23082,-10.10668 9.75201,-10.24199 5.52119,-0.1353 10.10669,4.23082 10.24199,9.75201 0.1353,5.52119 -4.23082,10.10669 -9.75201,10.24199 -5.45646,0.13372 -10.01223,-4.13253 -10.23654,-9.58602"
       sodipodi:ry="10"
       sodipodi:rx="10"
       sodipodi:cy="222.36218"
       sodipodi:cx="170"
       id="path4096"
       style="fill:#ff2a2a;fill-opacity:1;stroke:none"
       sodipodi:type="arc"
       transform="translate(240,0)" />
    <path
       sodipodi:open="true"
       sodipodi:end="9.3836687"
       sodipodi:start="3.1170914"
       d="m 160.003,222.60717 c -0.1353,-5.52119 4.23082,-10.10668 9.75201,-10.24199 5.52119,-0.1353 10.10669,4.23082 10.24199,9.75201 0.1353,5.52119 -4.23082,10.10669 -9.75201,10.24199 -5.45646,0.13372 -10.01223,-4.13253 -10.23654,-9.58602"
       sodipodi:ry="10"
       sodipodi:rx="10"
       sodipodi:cy="222.36218"
       sodipodi:cx="170"
       id="path4100"
       style="fill:#ff2a2a;fill-opacity:1;stroke:none"
       sodipodi:type="arc"
       transform="translate(280,80)" />
    <path
       sodipodi:open="true"
       sodipodi:end="9.3836687"
       sodipodi:start="3.1170914"
       d="m 160.003,222.60717 c -0.1353,-5.52119 4.23082,-10.10668 9.75201,-10.24199 5.52119,-0.1353 10.10669,4.23082 10.24199,9.75201 0.1353,5.52119 -4.23082,10.10669 -9.75201,10.24199 -5.45646,0.13372 -10.01223,-4.13253 -10.23654,-9.58602"
       sodipodi:ry="10"
       sodipodi:rx="10"
       sodipodi:cy="222.36218"
       sodipodi:cx="170"
       id="path4102"
       style="fill:#ff2a2a;fill-opacity:1;stroke:none"
       sodipodi:type="arc"
       transform="translate(360,0)" />
    <path
       transform="translate(440,80)"
       sodipodi:type="arc"
       style="fill:#ff2a2a;fill-opacity:1;stroke:none"
       id="path4104"
       sodipodi:cx="170"
       sodipodi:cy="222.36218"
       sodipodi:rx="10"
       sodipodi:ry="10"
       d="m 160.003,222.60717 c -0.1353,-5.52119 4.23082,-10.10668 9.75201,-10.24199 5.52119,-0.1353 10.10669,4.23082 10.24199,9.75201 0.1353,5.52119 -4.23082,10.10669 -9.75201,10.24199 -5.45646,0.13372 -10.01223,-4.13253 -10.23654,-9.58602"
       sodipodi:start="3.1170914"
       sodipodi:end="9.3836687"
       sodipodi:open="true" />
    <path
       sodipodi:open="true"
       sodipodi:end="9.3836687"
       sodipodi:start="3.1170914"
       d="m 160.003,222.60717 c -0.1353,-5.52119 4.23082,-10.10668 9.75201,-10.24199 5.52119,-0.1353 10.10669,4.23082 10.24199,9.75201 0.1353,5.52119 -4.23082,10.10669 -9.75201,10.24199 -5.45646,0.13372 -10.01223,-4.13253 -10.23654,-9.58602"
       sodipodi:ry="10"
       sodipodi:rx="10"
       sodipodi:cy="222.36218"
       sodipodi:cx="170"
       id="path4110"
       style="fill:#ff2a2a;fill-opacity:1;stroke:none"
       sodipodi:type="arc"
       transform="translate(600,0)" />
    <path
       sodipodi:open="true"
       sodipodi:end="9.3836687"
       sodipodi:start="3.1170914"
       d="m 160.003,222.60717 c -0.1353,-5.52119 4.23082,-10.10668 9.75201,-10.24199 5.52119,-0.1353 10.10669,4.23082 10.24199,9.75201 0.1353,5.52119 -4.23082,10.10669 -9.75201,10.24199 -5.45646,0.13372 -10.01223,-4.13253 -10.23654,-9.58602"
       sodipodi:ry="10"
       sodipodi:rx="10"
       sodipodi:cy="222.36218"
       sodipodi:cx="170"
       id="path4114"
       style="fill:#ff2a2a;fill-opacity:1;stroke:none"
       sodipodi:type="arc"
       transform="translate(640,70)" />
    <path
       sodipodi:open="true"
       sodipodi:end="9.3836687"
       sodipodi:start="3.1170914"
       d="m 160.003,222.60717 c -0.1353,-5.52119 4.23082,-10.10668 9.75201,-10.24199 5.52119,-0.1353 10.10669,4.23082 10.24199,9.75201 0.1353,5.52119 -4.23082,10.10669 -9.75201,10.24199 -5.45646,0.13372 -10.01223,-4.13253 -10.23654,-9.58602"
       sodipodi:ry="10"
       sodipodi:rx="10"
       sodipodi:cy="222.36218"
       sodipodi:cx="170"
       id="path4118"
       style="fill:#ff2a2a;fill-opacity:1;stroke:none"
       sodipodi:type="arc"
       transform="translate(680,0)" />
    <path
       transform="translate(720,0)"
       sodipodi:type="arc"
       style="fill:#ff2a2a;fill-opacity:1;stroke:none"
       id="path4122"
       sodipodi:cx="170"
       sodipodi:cy="222.36218"
       sodipodi:rx="10"
       sodipodi:ry="10"
       d="m 160.003,222.60717 c -0.1353,-5.52119 4.23082,-10.10668 9.75201,-10.24199 5.52119,-0.1353 10.10669,4.23082 10.24199,9.75201 0.1353,5.52119 -4.23082,10.10669 -9.75201,10.24199 -5.45646,0.13372 -10.01223,-4.13253 -10.23654,-9.58602"
       sodipodi:start="3.1170914"
       sodipodi:end="9.3836687"
       sodipodi:open="true" />
    <path
       sodipodi:open="true"
       sodipodi:end="9.3836687"
       sodipodi:start="3.1170914"
       d="m 160.003,222.60717 c -0.1353,-5.52119 4.23082,-10.10668 9.75201,-10.24199 5.52119,-0.1353 10.10669,4.23082 10.24199,9.75201 0.1353,5.52119 -4.23082,10.10669 -9.75201,10.24199 -5.45646,0.13372 -10.01223,-4.13253 -10.23654,-9.58602"
       sodipodi:ry="10"
       sodipodi:rx="10"
       sodipodi:cy="222.36218"
       sodipodi:cx="170"
       id="path4124"
       style="fill:#ff2a2a;fill-opacity:1;stroke:none"
       sodipodi:type="arc"
       transform="translate(760,80)" />
    <path
       sodipodi:open="true"
       sodipodi:end="9.3836687"
       sodipodi:start="3.1170914"
       d="m 160.003,222.60717 c -0.1353,-5.52119 4.23082,-10.10668 9.75201,-10.24199 5.52119,-0.1353 10.10669,4.23082 10.24199,9.75201 0.1353,5.52119 -4.23082,10.10669 -9.75201,10.24199 -5.45646,0.13372 -10.01223,-4.13253 -10.23654,-9.58602"
       sodipodi:ry="10"
       sodipodi:rx="10"
       sodipodi:cy="222.36218"
       sodipodi:cx="170"
       id="path4128"
       style="fill:#ff2a2a;fill-opacity:1;stroke:none"
       sodipodi:type="arc"
       transform="translate(840,0)" />
    <path
       sodipodi:open="true"
       sodipodi:end="9.3836687"
       sodipodi:start="3.1170914"
       d="m 160.003,222.60717 c -0.1353,-5.52119 4.23082,-10.10668 9.75201,-10.24199 5.52119,-0.1353 10.10669,4.23082 10.24199,9.75201 0.1353,5.52119 -4.23082,10.10669 -9.75201,10.24199 -5.45646,0.13372 -10.01223,-4.13253 -10.23654,-9.58602"
       sodipodi:ry="10"
       sodipodi:rx="10"
       sodipodi:cy="222.36218"
       sodipodi:cx="170"
       id="path4132"
       style="fill:#ff2a2a;fill-opacity:1;stroke:none"
       sodipodi:type="arc"
       transform="translate(880,80)" />
    <path
       sodipodi:open="true"
       sodipodi:end="9.3836687"
       sodipodi:start="3.1170914"
       d="m 160.003,222.60717 c -0.1353,-5.52119 4.23082,-10.10668 9.75201,-10.24199 5.52119,-0.1353 10.10669,4.23082 10.24199,9.75201 0.1353,5.52119 -4.23082,10.10669 -9.75201,10.24199 -5.45646,0.13372 -10.01223,-4.13253 -10.23654,-9.58602"
       sodipodi:ry="10"
       sodipodi:rx="10"
       sodipodi:cy="222.36218"
       sodipodi:cx="170"
       id="path4134"
       style="fill:#ff2a2a;fill-opacity:1;stroke:none"
       sodipodi:type="arc"
       transform="translate(960,0)" />
    <path
       transform="translate(1040,80)"
       sodipodi:type="arc"
       style="fill:#ff2a2a;fill-opacity:1;stroke:none"
       id="path4136"
       sodipodi:cx="170"
       sodipodi:cy="222.36218"
       sodipodi:rx="10"
       sodipodi:ry="10"
       d="m 160.003,222.60717 c -0.1353,-5.52119 4.23082,-10.10668 9.75201,-10.24199 5.52119,-0.1353 10.10669,4.23082 10.24199,9.75201 0.1353,5.52119 -4.23082,10.10669 -9.75201,10.24199 -5.45646,0.13372 -10.01223,-4.13253 -10.23654,-9.58602"
       sodipodi:start="3.1170914"
       sodipodi:end="9.3836687"
       sodipodi:open="true" />
    <path
       sodipodi:open="true"
       sodipodi:end="9.3836687"
       sodipodi:start="3.1170914"
       d="m 160.003,222.60717 c -0.1353,-5.52119 4.23082,-10.10668 9.75201,-10.24199 5.52119,-0.1353 10.10669,4.23082 10.24199,9.75201 0.1353,5.52119 -4.23082,10.10669 -9.75201,10.24199 -5.45646,0.13372 -10.01223,-4.13253 -10.23654,-9.58602"
       sodipodi:ry="10"
       sodipodi:rx="10"
       sodipodi:cy="222.36218"
       sodipodi:cx="170"
       id="path4142"
       style="fill:#ff2a2a;fill-opacity:1;stroke:none"
       sodipodi:type="arc"
       transform="translate(1160,0)" />
    <path
       transform="translate(1160,80)"
       sodipodi:type="arc"
       style="fill:#ff2a2a;fill-opacity:1;stroke:none"
       id="path4144"
       sodipodi:cx="170"
       sodipodi:cy="222.36218"
       sodipodi:rx="10"
       sodipodi:ry="10"
       d="m 160.003,222.60717 c -0.1353,-5.52119 4.23082,-10.10668 9.75201,-10.24199 5.52119,-0.1353 10.10669,4.23082 10.24199,9.75201 0.1353,5.52119 -4.23082,10.10669 -9.75201,10.24199 -5.45646,0.13372 -10.01223,-4.13253 -10.23654,-9.58602"
       sodipodi:start="3.1170914"
       sodipodi:end="9.3836687"
       sodipodi:open="true" />
  </g>
  <g
     inkscape:groupmode="layer"
     id="g5236"
     inkscape:label="straight dots multicolor"
     style="display:inline"
     transform="translate(-39.99994,-212.35209)">
    <path
       id="path5111"
       transform="translate(39.99994,212.35209)"
       style="fill:#6f6573;fill-opacity:1;stroke:none"
       d="m 509.25,240 -0.46875,0.0313 C 492.67305,240.69373 480.0007,253.96803 480,270 c 0,0.24919 -0.01,0.49951 0,0.75 l 0,38.46875 0,0.78125 c 0,0.24919 -0.01,0.49951 0,0.75 0.3999,16.31746 13.7645,29.2617 30,29.25 0.2417,-2e-4 0.47585,0.01 0.71875,0 L 570,340 c 0.0822,-2e-5 0.1674,0.002 0.25,0 5.52119,-0.1353 9.8853,-4.72881 9.75,-10.25 -0.13325,-5.43761 -4.59108,-9.74979 -10,-9.75 l -0.25,0 -31.46875,0 -28.03125,0 -0.25,0 c -5.4086,-2e-4 -9.8667,-4.31288 -10,-9.75 l 0,-0.25 0,-39.75 0,-0.25 c -10e-4,-5.34583 4.22305,-9.77911 9.59375,-10 l 0.15625,0 0.25,0 28.28125,0 L 570,260 c 0.0822,-2e-5 0.1674,0.002 0.25,0 5.52119,-0.1353 9.8853,-4.72881 9.75,-10.25 -0.13325,-5.43761 -4.59108,-9.74979 -10,-9.75 l -0.25,0 -58.9375,0 -0.8125,0 c -0.2471,1e-4 -0.5015,-0.01 -0.75,0 z m -139.5,0 c -5.52119,0.1353 -9.8853,4.72881 -9.75,10.25 l 0,0.15625 c 0.22092,5.37094 4.65377,9.59497 10,9.59375 0.0822,-2e-5 0.1674,0.002 0.25,0 l 19.34375,0 0.15625,0 0.25,0 c 5.4089,2e-4 9.8667,4.3124 10,9.75 l 0,0.25 0,39.75 0,0.25 c -2e-4,5.4089 -4.3124,9.8667 -9.75,10 l -0.25,0 -20,0 c -0.0831,0 -0.16642,-0.002 -0.25,0 -5.52119,0.1353 -9.8853,4.72881 -9.75,10.25 l 0,0.15625 c 0.22092,5.37094 4.65377,9.59497 10,9.59375 0.0822,-2e-5 0.1674,0.002 0.25,0 l 79.75,0 c 0.0822,-2e-5 0.1674,0.002 0.25,0 5.52119,-0.1353 9.8853,-4.72881 9.75,-10.25 -0.13325,-5.43761 -4.59108,-9.74979 -10,-9.75 l -0.25,0 -19.5,0 -0.25,0 c -5.4089,-2e-4 -9.8668,-4.3124 -10,-9.75 l 0,-0.25 0,-39.75 0,-0.25 c -10e-4,-5.3463 4.22275,-9.7791 9.59375,-10 l 0.15625,0 0.25,0 20,0 c 0.0822,-2e-5 0.1674,0.002 0.25,0 5.52119,-0.1353 9.8853,-4.72881 9.75,-10.25 -0.13325,-5.43761 -4.59108,-9.74979 -10,-9.75 l -0.25,0 -79.75,0 c -0.0831,0 -0.16642,-0.002 -0.25,0 z m -120,0 c -5.52119,0.1353 -9.8853,4.72881 -9.75,10.25 l 0,0.15625 c 0.22092,5.37094 4.65377,9.59497 10,9.59375 0.0822,-2e-5 0.1674,0.002 0.25,0 l 19.5,0 0.25,0 c 5.4089,2.1e-4 9.8667,4.31239 10,9.75 l 0,0.25 0,60 c 0,0.0831 -0.002,0.16642 0,0.25 l 0,0.15625 c 0.22432,5.45349 4.79354,9.72747 10.25,9.59375 5.43761,-0.13325 9.74979,-4.59108 9.75,-10 0,-0.0831 0.002,-0.16642 0,-0.25 l 0,-59.34375 0,-0.15625 0,-0.25 c 2e-4,-5.40892 4.3124,-9.86675 9.75,-10 0.084,-0.002 0.1668,0 0.25,0 l 20,0 c 0.0822,-2e-5 0.1674,0.002 0.25,0 5.52119,-0.1353 9.8853,-4.72881 9.75,-10.25 -0.13325,-5.43761 -4.59108,-9.74979 -10,-9.75 l -0.25,0 -79.75,0 c -0.0831,0 -0.16642,-0.002 -0.25,0 z m -120,0 c -5.52119,0.1353 -9.8853,4.72881 -9.75,10.25 l 0,0.15625 c 0.22092,5.37094 4.65377,9.59497 10,9.59375 0.0822,-2e-5 0.1674,0.002 0.25,0 l 31.46875,0 28.03125,0 0.25,0 c 5.4079,2.1e-4 9.8668,4.31288 10,9.75 0.1353,5.52068 -4.2298,10.11471 -9.75,10.25 -0.083,0.002 -0.1678,-2e-5 -0.25,0 l -28.28125,0 -12.46875,0 c -16.5605,0.40587 -29.6558,14.18795 -29.25,30.75 l 0.0313,0.46875 C 120.70405,327.57772 134.3837,340.40111 150.75,340 l 19.25,0 c 0.0822,-2e-5 0.1674,0.002 0.25,0 5.52119,-0.1353 9.8853,-4.72881 9.75,-10.25 -0.13325,-5.43761 -4.59108,-9.74979 -10,-9.75 l -0.25,0 -19.5,0 c -0.083,0.002 -0.1679,-2e-5 -0.25,0 -5.3453,10e-4 -9.7792,-4.2233 -10,-9.59375 l 0,-0.15625 c -0.1353,-5.52069 4.2299,-10.11472 9.75,-10.25 0.084,-0.002 0.1668,0 0.25,0 l 28.28125,0 11.46875,0 0.25,0 c 5.4079,2.1e-4 9.8667,4.31289 10,9.75 l 0,0.25 0,20 c 0,0.0831 -0.002,0.16642 0,0.25 l 0,0.15625 c 0.22432,5.45349 4.79354,9.72747 10.25,9.59375 5.43761,-0.13325 9.74979,-4.59108 9.75,-10 0,-0.0831 0.002,-0.16642 0,-0.25 l 0,-58.9375 c 0.013,-0.51176 0.013,-1.01369 0,-1.53125 C 219.6001,252.96762 206.2267,239.99701 190,240 l -60,0 c -0.0831,0 -0.16642,-0.002 -0.25,0 z m -120,0 c -5.4376122,0.13325 -9.74979142955,4.59108 -9.75,10 -3.2057871e-6,0.0831 -0.00204817,0.16642 0,0.25 L 0,250.40625 0,330 c -3.2057871e-6,0.0831 -0.00204817,0.16642 0,0.25 l 0,0.15625 c 0.22431527,5.45349 4.793538,9.72747 10.25,9.59375 5.437612,-0.13325 9.749791,-4.59108 9.75,-10 3e-6,-0.0831 0.002,-0.16642 0,-0.25 L 20,250 c 3e-6,-0.0831 0.002,-0.16642 0,-0.25 -0.135303,-5.52119 -4.72881,-9.8853 -10.25,-9.75 z m 40,0 c -5.437612,0.13325 -9.749791,4.59108 -9.75,10 -3e-6,0.0831 -0.002,0.16642 0,0.25 l 0,0.15625 L 40,330 c -3e-6,0.0831 -0.002,0.16642 0,0.25 l 0,0.15625 c 0.224315,5.45349 4.793538,9.72747 10.25,9.59375 5.437612,-0.13325 9.749791,-4.59108 9.75,-10 3e-6,-0.0831 0.002,-0.16642 0,-0.25 L 60,250 c 3e-6,-0.0831 0.002,-0.16642 0,-0.25 -0.135303,-5.52119 -4.72881,-9.8853 -10.25,-9.75 z m 40,0 c -5.437612,0.13325 -9.749791,4.59108 -9.75,10 -3e-6,0.0831 -0.002,0.16642 0,0.25 l 0,0.15625 L 80,330 c -3e-6,0.0831 -0.002,0.16642 0,0.25 l 0,0.15625 c 0.224315,5.45349 4.793538,9.72747 10.25,9.59375 5.437612,-0.13325 9.749791,-4.59108 9.75,-10 0,-0.0831 0.002,-0.16642 0,-0.25 L 100,250 c 0,-0.0831 0.002,-0.16642 0,-0.25 -0.135303,-5.52119 -4.72881,-9.8853 -10.25,-9.75 z m 570.24735,-79.98991 0,29.99542 c -5e-5,0.24711 0.006,0.50147 0,0.74989 l -0.0313,0.46868 c -0.67286,16.35797 -14.34766,29.17794 -30.7151,28.77685 l -39.24533,0 c -0.24922,1e-5 -0.49939,0.006 -0.74991,0 -16.5616,-0.40585 -29.65243,-14.15302 -29.24652,-30.71406 l 0,-29.27678 19.99762,0 0,1.71849 0,28.02697 c -0.002,0.0836 0,0.16683 0,0.24996 2.1e-4,5.4081 4.31187,9.86525 9.74884,9.99847 0.0826,0.002 0.16781,-2e-5 0.24997,0 l 39.74527,0 c 0.0826,0.002 0.16781,-2e-5 0.24998,0 5.34559,10e-4 9.77791,-4.22216 9.99881,-9.59228 l 0,-0.15623 c 0.002,-0.0836 0,-0.16683 0,-0.24996 l 0,-28.27693 0,-1.71849 19.99762,0 z m -99.99436,20 0,-29.99542 c 5e-5,-0.24711 -0.006,-0.50147 0,-0.74989 l 0.0313,-0.46868 c 0.67286,-16.35797 14.34766,-29.17794 30.7151,-28.77685 l 39.24533,0 c 0.24922,-1e-5 0.49939,-0.006 0.74991,0 16.5616,0.40585 29.6524,14.15302 29.24652,30.71406 l 0,29.27678 -19.99762,0 0,-1.71849 0,-28.02697 c 0.002,-0.0836 0,-0.16683 0,-0.24996 -2.1e-4,-5.4081 -4.31187,-9.86525 -9.74884,-9.99847 -0.0826,-0.002 -0.16781,2e-5 -0.24997,0 l -39.74527,0 c -0.0826,-0.002 -0.16781,2e-5 -0.24998,0 -5.34559,-0.001 -9.77791,4.22216 -9.99881,9.59228 l 0,0.15623 c -0.002,0.0836 0,0.16683 0,0.24996 l 0,28.27693 0,1.71849 -19.99762,0 z M 249.75,0 c -5.43761,0.13325498 -9.74979,4.5910805 -9.75,10 0,0.08314 -0.002,0.166422 0,0.25 l 0,0.15625 0,58.78125 0,0.8125 c 5e-5,0.24712 -0.006,0.50156 0,0.75 l 0.0313,0.46875 C 240.69378,87.32737 253.96754,99.99934 270,100 c 0.24922,1e-5 0.4995,0.006 0.75,0 l 38.46875,0 0.78125,0 c 0.24921,1e-5 0.49948,0.006 0.75,0 16.31801,-0.39993 29.26169,-13.76422 29.25,-30 -1.7e-4,-0.24169 0.006,-0.47582 0,-0.71875 L 340,10 c 0,-0.083137 0.002,-0.1664224 0,-0.25 -0.1353,-5.5211899 -4.72881,-9.88530315 -10.25,-9.75 -5.43761,0.13325498 -9.74979,4.5910805 -9.75,10 0,0.08314 -0.002,0.166422 0,0.25 l 0,0.15625 0,31.3125 0,28.03125 c 0.002,0.0836 0,0.16686 0,0.25 -2.1e-4,5.40876 -4.31268,9.86676 -9.75,10 -0.0826,0.002 -0.16783,-2e-5 -0.25,0 l -39.75,0 c -0.0826,0.002 -0.16783,-2e-5 -0.25,0 -5.34594,0.001 -9.77909,-4.22297 -10,-9.59375 L 260,70.25 c -0.002,-0.0836 0,-0.16686 0,-0.25 L 260,41.71875 260,10 c 0,-0.083137 0.002,-0.1664224 0,-0.25 C 259.8647,4.2288101 255.27119,-0.13530315 249.75,0 z m 240,0 c -5.43761,0.13325498 -9.74979,4.5910805 -9.75,10 0,0.08314 -0.002,0.166422 0,0.25 l 0,0.15625 L 480,90 c 0,0.08314 -0.002,0.166422 0,0.25 l 0,0.15625 c 0.22432,5.453489 4.79354,9.72747 10.25,9.59375 5.43761,-0.133255 9.74979,-4.591081 9.75,-10 0,-0.08314 0.002,-0.166422 0,-0.25 l 0,-19.34375 0,-0.15625 c -0.002,-0.0836 0,-0.16686 0,-0.25 2.1e-4,-5.40892 4.31239,-9.86674 9.75,-10 0.0836,-0.002 0.16686,0 0.25,0 l 39.75,0 0.25,0 c 5.40892,2.1e-4 9.86675,4.31239 10,9.75 0.002,0.0836 0,0.16686 0,0.25 l 0,20 c 0,0.08314 -0.002,0.166422 0,0.25 l 0,0.15625 c 0.22432,5.453489 4.79354,9.72747 10.25,9.59375 5.43761,-0.133255 9.74979,-4.591081 9.75,-10 0,-0.08314 0.002,-0.166422 0,-0.25 L 580,10 c 0,-0.083137 0.002,-0.1664224 0,-0.25 -0.1353,-5.5211899 -4.72881,-9.88530315 -10.25,-9.75 -5.43761,0.13325498 -9.74979,4.5910805 -9.75,10 0,0.08314 -0.002,0.166422 0,0.25 l 0,0.15625 0,19.34375 c 0.002,0.0836 0,0.16686 0,0.25 -2.1e-4,5.40892 -4.31239,9.86675 -9.75,10 -0.0826,0.002 -0.16783,-2e-5 -0.25,0 l -39.75,0 c -0.0826,0.002 -0.16783,-2e-5 -0.25,0 -5.34623,10e-4 -9.77909,-4.22281 -10,-9.59375 L 500,30.25 c -0.002,-0.0836 0,-0.16686 0,-0.25 l 0,-20 c 0,-0.083137 0.002,-0.1664224 0,-0.25 C 499.8647,4.2288101 495.27119,-0.13530315 489.75,0 z m -120,0 c -5.52119,0.13530315 -9.8853,4.7288101 -9.75,10.25 l 0,0.15625 c 0.22092,5.370936 4.65377,9.594974 10,9.59375 0.0822,-1.9e-5 0.1674,0.002 0.25,0 l 19.5,0 0.25,0 c 5.40892,2.1e-4 9.86675,4.31239 10,9.75 0.002,0.0836 0,0.16686 0,0.25 l 0,60 c 0,0.08314 -0.002,0.166422 0,0.25 l 0,0.15625 c 0.22432,5.453489 4.79354,9.72747 10.25,9.59375 5.43761,-0.133255 9.74979,-4.591081 9.75,-10 0,-0.08314 0.002,-0.166422 0,-0.25 l 0,-59.34375 0,-0.15625 c -0.002,-0.0836 0,-0.16686 0,-0.25 2.1e-4,-5.40892 4.31239,-9.86675 9.75,-10 0.0836,-0.002 0.16686,0 0.25,0 l 20,0 c 0.0822,-1.9e-5 0.1674,0.002 0.25,0 5.52119,-0.135303 9.8853,-4.72881 9.75,-10.25 C 459.86675,4.3123878 455.40892,2.0857045e-4 450,0 L 449.75,0 370,0 c -0.0831,-3.2057871e-6 -0.16642,-0.00204817 -0.25,0 z m -240,0 c -5.52119,0.13530315 -9.8853,4.7288101 -9.75,10.25 l 0,0.15625 c 0.22092,5.370936 4.65377,9.594974 10,9.59375 0.0822,-1.9e-5 0.1674,0.002 0.25,0 l 31.46875,0 28.03125,0 0.25,0 c 5.40892,2.1e-4 9.86675,4.31239 10,9.75 0.1353,5.52119 -4.22881,10.1147 -9.75,10.25 -0.0826,0.002 -0.16783,-2e-5 -0.25,0 L 161.71875,40 149.25,40 C 132.68643,40.40591 119.59409,54.18643 120,70.75 l 0.0313,0.46875 C 120.70419,87.57922 134.38062,100.40115 150.75,100 l 19.25,0 c 0.0822,-1.9e-5 0.1674,0.002 0.25,0 5.52119,-0.135303 9.8853,-4.72881 9.75,-10.25 -0.13325,-5.437612 -4.59108,-9.749791 -10,-9.75 l -0.25,0 -19.5,0 c -0.0826,0.002 -0.16783,-2e-5 -0.25,0 -5.34623,0.001 -9.77908,-4.22281 -10,-9.59375 L 140,70.25 c -0.1353,-5.52119 4.22881,-10.1147 9.75,-10.25 0.0836,-0.002 0.16686,0 0.25,0 l 28.28125,0 11.46875,0 0.25,0 c 5.40892,2.1e-4 9.86675,4.31239 10,9.75 0.002,0.0836 0,0.16686 0,0.25 l 0,20 c 0,0.08314 -0.002,0.166422 0,0.25 l 0,0.15625 c 0.22432,5.453489 4.79354,9.72747 10.25,9.59375 5.43761,-0.133255 9.74979,-4.591081 9.75,-10 0,-0.08314 0.002,-0.166422 0,-0.25 l 0,-58.9375 c 0.0134,-0.51181 0.0127,-1.01364 0,-1.53125 C 219.60018,12.96613 206.22983,-0.00299 190,0 l -60,0 c -0.0831,-3.2057871e-6 -0.16642,-0.00204817 -0.25,0 z" />
    <path
       transform="translate(500,140.00001)"
       sodipodi:type="arc"
       style="fill:#dd0b79;fill-opacity:1;stroke:none"
       id="path3152"
       sodipodi:cx="170"
       sodipodi:cy="222.36218"
       sodipodi:rx="10"
       sodipodi:ry="10"
       d="m 160.003,222.60717 c -0.1353,-5.52119 4.23082,-10.10668 9.75201,-10.24199 5.52119,-0.1353 10.10669,4.23082 10.24199,9.75201 0.1353,5.52119 -4.23082,10.10669 -9.75201,10.24199 -5.45646,0.13372 -10.01223,-4.13253 -10.23654,-9.58602"
       sodipodi:start="3.1170914"
       sodipodi:end="9.3836687"
       sodipodi:open="true" />
    <path
       sodipodi:open="true"
       sodipodi:end="9.3836687"
       sodipodi:start="3.1170914"
       d="m 160.003,222.60717 c -0.1353,-5.52119 4.23082,-10.10668 9.75201,-10.24199 5.52119,-0.1353 10.10669,4.23082 10.24199,9.75201 0.1353,5.52119 -4.23082,10.10669 -9.75201,10.24199 -5.45646,0.13372 -10.01223,-4.13253 -10.23654,-9.58602"
       sodipodi:ry="10"
       sodipodi:rx="10"
       sodipodi:cy="222.36218"
       sodipodi:cx="170"
       id="path3154"
       style="fill:#f2cb05;fill-opacity:1;stroke:none"
       sodipodi:type="arc"
       transform="translate(500,179.99995)" />
    <path
       transform="translate(460,180.00001)"
       sodipodi:type="arc"
       style="fill:#c5ec09;fill-opacity:1;stroke:none"
       id="path3156"
       sodipodi:cx="170"
       sodipodi:cy="222.36218"
       sodipodi:rx="10"
       sodipodi:ry="10"
       d="m 160.003,222.60717 c -0.1353,-5.52119 4.23082,-10.10668 9.75201,-10.24199 5.52119,-0.1353 10.10669,4.23082 10.24199,9.75201 0.1353,5.52119 -4.23082,10.10669 -9.75201,10.24199 -5.45646,0.13372 -10.01223,-4.13253 -10.23654,-9.58602"
       sodipodi:start="3.1170914"
       sodipodi:end="9.3836687"
       sodipodi:open="true" />
    <path
       sodipodi:open="true"
       sodipodi:end="9.3836687"
       sodipodi:start="3.1170914"
       d="m 160.003,222.60717 c -0.1353,-5.52119 4.23082,-10.10668 9.75201,-10.24199 5.52119,-0.1353 10.10669,4.23082 10.24199,9.75201 0.1353,5.52119 -4.23082,10.10669 -9.75201,10.24199 -5.45646,0.13372 -10.01223,-4.13253 -10.23654,-9.58602"
       sodipodi:ry="10"
       sodipodi:rx="10"
       sodipodi:cy="222.36218"
       sodipodi:cx="170"
       id="path3158"
       style="fill:#77b8f4;fill-opacity:1;stroke:none"
       sodipodi:type="arc"
       transform="translate(460,139.99995)" />
  </g>
  <g
     inkscape:groupmode="layer"
     id="g4160"
     inkscape:label="straight dots color 1"
     style="display:none"
     transform="translate(-39.99994,-212.35209)">
    <g
       id="g4968"
       style="fill:#ddff55">
      <path
         sodipodi:open="true"
         sodipodi:end="9.3836687"
         sodipodi:start="3.1170914"
         d="m 160.003,222.60717 c -0.1353,-5.52119 4.23082,-10.10668 9.75201,-10.24199 5.52119,-0.1353 10.10669,4.23082 10.24199,9.75201 0.1353,5.52119 -4.23082,10.10669 -9.75201,10.24199 -5.45646,0.13372 -10.01223,-4.13253 -10.23654,-9.58602"
         sodipodi:ry="10"
         sodipodi:rx="10"
         sodipodi:cy="222.36218"
         sodipodi:cx="170"
         id="path4162"
         style="fill:#ddff55;fill-opacity:1;stroke:none"
         sodipodi:type="arc" />
      <path
         sodipodi:open="true"
         sodipodi:end="9.3836687"
         sodipodi:start="3.1170914"
         d="m 160.003,222.60717 c -0.1353,-5.52119 4.23082,-10.10668 9.75201,-10.24199 5.52119,-0.1353 10.10669,4.23082 10.24199,9.75201 0.1353,5.52119 -4.23082,10.10669 -9.75201,10.24199 -5.45646,0.13372 -10.01223,-4.13253 -10.23654,-9.58602"
         sodipodi:ry="10"
         sodipodi:rx="10"
         sodipodi:cy="222.36218"
         sodipodi:cx="170"
         id="path4170"
         style="fill:#ddff55;fill-opacity:1;stroke:none"
         sodipodi:type="arc"
         transform="translate(240,0)" />
      <path
         sodipodi:open="true"
         sodipodi:end="9.3836687"
         sodipodi:start="3.1170914"
         d="m 160.003,222.60717 c -0.1353,-5.52119 4.23082,-10.10668 9.75201,-10.24199 5.52119,-0.1353 10.10669,4.23082 10.24199,9.75201 0.1353,5.52119 -4.23082,10.10669 -9.75201,10.24199 -5.45646,0.13372 -10.01223,-4.13253 -10.23654,-9.58602"
         sodipodi:ry="10"
         sodipodi:rx="10"
         sodipodi:cy="222.36218"
         sodipodi:cx="170"
         id="path4178"
         style="fill:#ddff55;fill-opacity:1;stroke:none"
         sodipodi:type="arc"
         transform="translate(600,0)" />
      <path
         transform="translate(720,0)"
         sodipodi:type="arc"
         style="fill:#ddff55;fill-opacity:1;stroke:none"
         id="path4184"
         sodipodi:cx="170"
         sodipodi:cy="222.36218"
         sodipodi:rx="10"
         sodipodi:ry="10"
         d="m 160.003,222.60717 c -0.1353,-5.52119 4.23082,-10.10668 9.75201,-10.24199 5.52119,-0.1353 10.10669,4.23082 10.24199,9.75201 0.1353,5.52119 -4.23082,10.10669 -9.75201,10.24199 -5.45646,0.13372 -10.01223,-4.13253 -10.23654,-9.58602"
         sodipodi:start="3.1170914"
         sodipodi:end="9.3836687"
         sodipodi:open="true" />
      <path
         sodipodi:open="true"
         sodipodi:end="9.3836687"
         sodipodi:start="3.1170914"
         d="m 160.003,222.60717 c -0.1353,-5.52119 4.23082,-10.10668 9.75201,-10.24199 5.52119,-0.1353 10.10669,4.23082 10.24199,9.75201 0.1353,5.52119 -4.23082,10.10669 -9.75201,10.24199 -5.45646,0.13372 -10.01223,-4.13253 -10.23654,-9.58602"
         sodipodi:ry="10"
         sodipodi:rx="10"
         sodipodi:cy="222.36218"
         sodipodi:cx="170"
         id="path4188"
         style="fill:#ddff55;fill-opacity:1;stroke:none"
         sodipodi:type="arc"
         transform="translate(840,0)" />
      <path
         sodipodi:open="true"
         sodipodi:end="9.3836687"
         sodipodi:start="3.1170914"
         d="m 160.003,222.60717 c -0.1353,-5.52119 4.23082,-10.10668 9.75201,-10.24199 5.52119,-0.1353 10.10669,4.23082 10.24199,9.75201 0.1353,5.52119 -4.23082,10.10669 -9.75201,10.24199 -5.45646,0.13372 -10.01223,-4.13253 -10.23654,-9.58602"
         sodipodi:ry="10"
         sodipodi:rx="10"
         sodipodi:cy="222.36218"
         sodipodi:cx="170"
         id="path4196"
         style="fill:#ddff55;fill-opacity:1;stroke:none"
         sodipodi:type="arc"
         transform="translate(1160,0)" />
    </g>
  </g>
  <g
     inkscape:groupmode="layer"
     id="g4976"
     inkscape:label="straight dots color 2"
     style="display:none"
     transform="translate(-39.99994,-212.35209)">
    <g
       id="g5081"
       style="fill:#800080">
      <path
         transform="translate(40,80)"
         sodipodi:type="arc"
         style="fill:#800080;fill-opacity:1;stroke:none"
         id="path4980"
         sodipodi:cx="170"
         sodipodi:cy="222.36218"
         sodipodi:rx="10"
         sodipodi:ry="10"
         d="m 160.003,222.60717 c -0.1353,-5.52119 4.23082,-10.10668 9.75201,-10.24199 5.52119,-0.1353 10.10669,4.23082 10.24199,9.75201 0.1353,5.52119 -4.23082,10.10669 -9.75201,10.24199 -5.45646,0.13372 -10.01223,-4.13253 -10.23654,-9.58602"
         sodipodi:start="3.1170914"
         sodipodi:end="9.3836687"
         sodipodi:open="true" />
      <path
         sodipodi:open="true"
         sodipodi:end="9.3836687"
         sodipodi:start="3.1170914"
         d="m 160.003,222.60717 c -0.1353,-5.52119 4.23082,-10.10668 9.75201,-10.24199 5.52119,-0.1353 10.10669,4.23082 10.24199,9.75201 0.1353,5.52119 -4.23082,10.10669 -9.75201,10.24199 -5.45646,0.13372 -10.01223,-4.13253 -10.23654,-9.58602"
         sodipodi:ry="10"
         sodipodi:rx="10"
         sodipodi:cy="222.36218"
         sodipodi:cx="170"
         id="path4988"
         style="fill:#800080;fill-opacity:1;stroke:none"
         sodipodi:type="arc"
         transform="translate(280,80)" />
      <path
         sodipodi:open="true"
         sodipodi:end="9.3836687"
         sodipodi:start="3.1170914"
         d="m 160.003,222.60717 c -0.1353,-5.52119 4.23082,-10.10668 9.75201,-10.24199 5.52119,-0.1353 10.10669,4.23082 10.24199,9.75201 0.1353,5.52119 -4.23082,10.10669 -9.75201,10.24199 -5.45646,0.13372 -10.01223,-4.13253 -10.23654,-9.58602"
         sodipodi:ry="10"
         sodipodi:rx="10"
         sodipodi:cy="222.36218"
         sodipodi:cx="170"
         id="path4996"
         style="fill:#800080;fill-opacity:1;stroke:none"
         sodipodi:type="arc"
         transform="translate(640,80)" />
      <path
         sodipodi:open="true"
         sodipodi:end="9.3836687"
         sodipodi:start="3.1170914"
         d="m 160.003,222.60717 c -0.1353,-5.52119 4.23082,-10.10668 9.75201,-10.24199 5.52119,-0.1353 10.10669,4.23082 10.24199,9.75201 0.1353,5.52119 -4.23082,10.10669 -9.75201,10.24199 -5.45646,0.13372 -10.01223,-4.13253 -10.23654,-9.58602"
         sodipodi:ry="10"
         sodipodi:rx="10"
         sodipodi:cy="222.36218"
         sodipodi:cx="170"
         id="path5002"
         style="fill:#800080;fill-opacity:1;stroke:none"
         sodipodi:type="arc"
         transform="translate(760,80)" />
      <path
         sodipodi:open="true"
         sodipodi:end="9.3836687"
         sodipodi:start="3.1170914"
         d="m 160.003,222.60717 c -0.1353,-5.52119 4.23082,-10.10668 9.75201,-10.24199 5.52119,-0.1353 10.10669,4.23082 10.24199,9.75201 0.1353,5.52119 -4.23082,10.10669 -9.75201,10.24199 -5.45646,0.13372 -10.01223,-4.13253 -10.23654,-9.58602"
         sodipodi:ry="10"
         sodipodi:rx="10"
         sodipodi:cy="222.36218"
         sodipodi:cx="170"
         id="path5006"
         style="fill:#800080;fill-opacity:1;stroke:none"
         sodipodi:type="arc"
         transform="translate(880,80)" />
      <path
         transform="translate(1160,80)"
         sodipodi:type="arc"
         style="fill:#800080;fill-opacity:1;stroke:none"
         id="path5014"
         sodipodi:cx="170"
         sodipodi:cy="222.36218"
         sodipodi:rx="10"
         sodipodi:ry="10"
         d="m 160.003,222.60717 c -0.1353,-5.52119 4.23082,-10.10668 9.75201,-10.24199 5.52119,-0.1353 10.10669,4.23082 10.24199,9.75201 0.1353,5.52119 -4.23082,10.10669 -9.75201,10.24199 -5.45646,0.13372 -10.01223,-4.13253 -10.23654,-9.58602"
         sodipodi:start="3.1170914"
         sodipodi:end="9.3836687"
         sodipodi:open="true" />
    </g>
  </g>
  <g
     inkscape:groupmode="layer"
     id="g5016"
     inkscape:label="straight dots color 3"
     style="display:none"
     transform="translate(-39.99994,-212.35209)">
    <path
       transform="translate(120,0)"
       sodipodi:type="arc"
       style="fill:#ff2a2a;fill-opacity:1;stroke:none"
       id="path5022"
       sodipodi:cx="170"
       sodipodi:cy="222.36218"
       sodipodi:rx="10"
       sodipodi:ry="10"
       d="m 160.003,222.60717 c -0.1353,-5.52119 4.23082,-10.10668 9.75201,-10.24199 5.52119,-0.1353 10.10669,4.23082 10.24199,9.75201 0.1353,5.52119 -4.23082,10.10669 -9.75201,10.24199 -5.45646,0.13372 -10.01223,-4.13253 -10.23654,-9.58602"
       sodipodi:start="3.1170914"
       sodipodi:end="9.3836687"
       sodipodi:open="true" />
    <path
       transform="translate(240,0)"
       sodipodi:type="arc"
       style="fill:#ff2a2a;fill-opacity:1;stroke:none"
       id="path5026"
       sodipodi:cx="170"
       sodipodi:cy="222.36218"
       sodipodi:rx="10"
       sodipodi:ry="10"
       d="m 160.003,222.60717 c -0.1353,-5.52119 4.23082,-10.10668 9.75201,-10.24199 5.52119,-0.1353 10.10669,4.23082 10.24199,9.75201 0.1353,5.52119 -4.23082,10.10669 -9.75201,10.24199 -5.45646,0.13372 -10.01223,-4.13253 -10.23654,-9.58602"
       sodipodi:start="3.1170914"
       sodipodi:end="9.3836687"
       sodipodi:open="true" />
    <path
       transform="translate(280,80)"
       sodipodi:type="arc"
       style="fill:#ff2a2a;fill-opacity:1;stroke:none"
       id="path5028"
       sodipodi:cx="170"
       sodipodi:cy="222.36218"
       sodipodi:rx="10"
       sodipodi:ry="10"
       d="m 160.003,222.60717 c -0.1353,-5.52119 4.23082,-10.10668 9.75201,-10.24199 5.52119,-0.1353 10.10669,4.23082 10.24199,9.75201 0.1353,5.52119 -4.23082,10.10669 -9.75201,10.24199 -5.45646,0.13372 -10.01223,-4.13253 -10.23654,-9.58602"
       sodipodi:start="3.1170914"
       sodipodi:end="9.3836687"
       sodipodi:open="true" />
    <path
       transform="translate(360,0)"
       sodipodi:type="arc"
       style="fill:#ff2a2a;fill-opacity:1;stroke:none"
       id="path5030"
       sodipodi:cx="170"
       sodipodi:cy="222.36218"
       sodipodi:rx="10"
       sodipodi:ry="10"
       d="m 160.003,222.60717 c -0.1353,-5.52119 4.23082,-10.10668 9.75201,-10.24199 5.52119,-0.1353 10.10669,4.23082 10.24199,9.75201 0.1353,5.52119 -4.23082,10.10669 -9.75201,10.24199 -5.45646,0.13372 -10.01223,-4.13253 -10.23654,-9.58602"
       sodipodi:start="3.1170914"
       sodipodi:end="9.3836687"
       sodipodi:open="true" />
    <path
       transform="translate(680,0)"
       sodipodi:type="arc"
       style="fill:#ff2a2a;fill-opacity:1;stroke:none"
       id="path5038"
       sodipodi:cx="170"
       sodipodi:cy="222.36218"
       sodipodi:rx="10"
       sodipodi:ry="10"
       d="m 160.003,222.60717 c -0.1353,-5.52119 4.23082,-10.10668 9.75201,-10.24199 5.52119,-0.1353 10.10669,4.23082 10.24199,9.75201 0.1353,5.52119 -4.23082,10.10669 -9.75201,10.24199 -5.45646,0.13372 -10.01223,-4.13253 -10.23654,-9.58602"
       sodipodi:start="3.1170914"
       sodipodi:end="9.3836687"
       sodipodi:open="true" />
    <path
       transform="translate(960,0)"
       sodipodi:type="arc"
       style="fill:#ff2a2a;fill-opacity:1;stroke:none"
       id="path5048"
       sodipodi:cx="170"
       sodipodi:cy="222.36218"
       sodipodi:rx="10"
       sodipodi:ry="10"
       d="m 160.003,222.60717 c -0.1353,-5.52119 4.23082,-10.10668 9.75201,-10.24199 5.52119,-0.1353 10.10669,4.23082 10.24199,9.75201 0.1353,5.52119 -4.23082,10.10669 -9.75201,10.24199 -5.45646,0.13372 -10.01223,-4.13253 -10.23654,-9.58602"
       sodipodi:start="3.1170914"
       sodipodi:end="9.3836687"
       sodipodi:open="true" />
  </g>
</svg>
