<?xml version="1.0" encoding="UTF-8" standalone="no"?>
<!-- Created with Inkscape (http://www.inkscape.org/) -->

<svg
   xmlns:dc="http://purl.org/dc/elements/1.1/"
   xmlns:cc="http://creativecommons.org/ns#"
   xmlns:rdf="http://www.w3.org/1999/02/22-rdf-syntax-ns#"
   xmlns:svg="http://www.w3.org/2000/svg"
   xmlns="http://www.w3.org/2000/svg"
   version="1.1"
   viewBox="0 0 1180 100"
   preserveAspectRatio="xMidYMid meet"
   id="svg4101">
  <defs
     id="defs4103" />
  <metadata
     id="metadata4106">
    <rdf:RDF>
      <cc:Work
         rdf:about="">
        <dc:format>image/svg+xml</dc:format>
        <dc:type
           rdf:resource="http://purl.org/dc/dcmitype/StillImage" />
        <dc:title></dc:title>
      </cc:Work>
    </rdf:RDF>
  </metadata>
  <g
     transform="translate(398.57602,240.48884)"
     id="layer1">
    <path
       d="m 110.64102,-240.45382 c -15.683113,0.40284 -28.53557,12.90141 -29.187398,28.74601 l -0.03125,0.46873 c -0.006,0.24837 5e-5,0.50283 0,0.7499 l 0,9.99861 0,19.99722 0,9.27992 c -0.405908,16.5587 12.688358,30.30879 29.249898,30.71453 0.25052,0.01 0.50078,0 0.75,0 l 39.24987,0 c 16.36739,0.40105 30.04579,-12.42167 30.71865,-28.7772 l 0.0313,-0.46874 c 0.006,-0.24836 -5e-5,-0.50283 0,-0.74989 l 0,-9.99862 0,-19.99722 0,-9.27991 c 0.40588,-16.5587 -12.68836,-30.2775 -29.2499,-30.68334 -0.25052,-0.01 -0.50078,0 -0.75,0 l -39.24987,0 c -0.51148,-0.012 -1.02534,-0.013 -1.53125,0 z m 0.78125,19.99722 0.25,0 39.74987,0 0.25,0 c 5.43695,0.13318 9.74975,4.56007 9.74996,9.96742 0,0.083 0.002,0.16597 0,0.24996 l 0,9.74865 0,18.27866 0,1.71856 0,9.99862 c 0,0.083 0.002,0.16597 0,0.24996 l 0,0.15618 c -0.22089,5.36945 -4.65439,9.59347 -9.99996,9.59247 l -0.25,0 -39.74987,0 -0.25,0 c -5.43695,-0.13318 -9.74975,-4.59127 -9.74996,-9.99861 0,-0.083 -0.002,-0.16598 0,-0.24997 l 0,-9.74865 0,-1.71856 0,-16.5601 0,-1.71856 0,-9.99861 c 0,-0.083 -0.002,-0.16598 0,-0.24997 l 0,-0.15618 c 0.22089,-5.36945 4.65439,-9.56127 9.99996,-9.56127 z"
       id="path3875"
       style="fill:#f2cb05;fill-opacity:1;stroke:none" />
    <path
       d="m -388.81686,-240.48412 c -5.52117,0.13528 -9.88527,4.72814 -9.74997,10.24858 l 0,0.15628 c 0.22092,5.37015 4.65375,9.59366 9.99997,9.59236 0.0822,0 0.1674,0 0.25,0 l 31.46864,0 28.03116,0 0.25,0 c 5.4089,2e-4 9.86671,4.31181 9.99996,9.74865 0.1353,5.52044 -4.22879,10.1133 -9.74997,10.24858 -0.0826,0 -0.16782,0 -0.24999,0 l -28.28116,0 -12.46871,0 c -16.56351,0.40584 -29.65581,14.18443 -29.2499,30.74573 l 0.0313,0.46864 c 0.67289,16.35823 14.34927,29.17835 30.7186,28.7773 l 19.24993,0 c 0.0822,0 0.1674,0 0.25,0 5.52117,-0.13528 9.88527,-4.72814 9.74997,-10.24858 -0.13325,-5.43684 -4.59107,-9.74844 -9.99997,-9.74864 l -0.24999,0 -19.49994,0 c -0.0826,0 -0.16783,0 -0.25,0 -5.34621,0 -9.77905,-4.22222 -9.99997,-9.59247 l 0,-0.15618 c -0.1353,-5.52043 4.2288,-10.1133 9.74997,-10.24858 0.0836,0 0.16686,0 0.25,0 l 28.28115,0 11.46872,0 0.25,0 c 5.4089,2e-4 9.86671,4.3118 9.99996,9.74865 0.002,0.084 0,0.16688 0,0.24997 l 0,19.99722 c 0,0.083 -0.002,0.16638 0,0.24996 l 0,0.15618 c 0.22432,5.45275 4.79353,9.72615 10.24997,9.59247 5.43759,-0.13328 9.74976,-4.59046 9.74997,-9.99861 0,-0.083 0.002,-0.16638 0,-0.24997 l 0,-58.92932 c 0.0134,-0.51172 0.0127,-1.01346 0,-1.53098 -0.39982,-16.31284 -13.77013,-29.28024 -29.9999,-29.27724 l -59.9998,0 c -0.0831,0 -0.16642,0 -0.25,0 z m 239.99919,0 c -5.52117,0.13528 -9.88526,4.72814 -9.74996,10.24858 l 0,0.15628 c 0.22092,5.37015 4.65375,9.59366 9.99996,9.59236 0.0822,0 0.1674,0 0.25,0 l 19.49994,0 0.25,0 c 5.4089,2e-4 9.86671,4.31181 9.99996,9.74865 0.002,0.084 0,0.16688 0,0.24997 l 0,59.99167 c 0,0.083 -0.002,0.16638 0,0.24996 l 0,0.15618 c 0.22432,5.45275 4.79353,9.72615 10.24997,9.59247 5.43759,-0.13328 9.749755,-4.59046 9.749965,-9.99861 0,-0.083 0.002,-0.16638 0,-0.24997 l 0,-59.33546 0,-0.15628 c -0.002,-0.084 0,-0.16677 0,-0.24996 2.1e-4,-5.40815 4.312376,-9.86533 9.749968,-9.99862 0.0836,0 0.166859,0 0.249999,0 l 19.999933,0 c 0.0822,0 0.167399,0 0.249999,0 5.521171,-0.13528 9.885267,-4.72814 9.749967,-10.24857 -0.133249,-5.43685 -4.591064,-9.74845 -9.999966,-9.74865 l -0.249999,0 -79.749736,0 c -0.0831,0 -0.16642,0 -0.25,0 z m 119.999602,0 c -5.437592,0.13328 -9.749758,4.59046 -9.749968,9.99861 0,0.083 -0.002,0.16648 0,0.24997 l 0,0.15628 0,79.58265 c 0,0.083 -0.002,0.16638 0,0.24996 l 0,0.15618 c 0.22432,5.45275 4.793524,9.72615 10.249966,9.59247 5.437592,-0.13328 9.749757,-4.59046 9.749967,-9.99861 0,-0.083 0.002,-0.16638 0,-0.24997 l 0,-19.34111 0,-0.15618 c -0.002,-0.084 0,-0.16688 0,-0.24996 2.1e-4,-5.40815 4.312376,-9.86534 9.7499677,-9.99862 0.0836,0 0.1668594,0 0.2499991,0 l 39.7498672,0 0.249999,0 c 5.408902,2e-4 9.866717,4.3118 9.999966,9.74865 0.002,0.084 0,0.16688 0,0.24997 l 0,19.99722 c 0,0.083 -0.002,0.16638 0,0.24996 l 0,0.15618 c 0.22432,5.45275 4.793524,9.72615 10.249966,9.59247 5.437592,-0.13328 9.749757,-4.59046 9.749967,-9.99861 0,-0.083 0.002,-0.16638 0,-0.24997 l 0,-79.73893 c 0,-0.083 0.002,-0.16637 0,-0.24996 -0.135299,-5.52044 -4.728794,-9.88393 -10.249965,-9.74865 -5.437592,0.13328 -9.749758,4.59046 -9.749968,9.99861 0,0.083 -0.002,0.16648 0,0.24997 l 0,0.15628 0,19.34101 c 0.002,0.084 0,0.16688 0,0.24997 -2.1e-4,5.40825 -4.312375,9.86543 -9.749967,9.99861 -0.0826,0 -0.167829,0 -0.249999,0 l -39.749867,0 c -0.0826,0 -0.1678294,0 -0.2499992,0 -5.3462118,0 -9.7790568,-4.22221 -9.9999668,-9.59237 l 0,-0.15628 c -0.002,-0.084 0,-0.16677 0,-0.24996 l 0,-19.99723 c 0,-0.083 0.002,-0.16637 0,-0.24996 -0.135299,-5.52044 -4.728794,-9.88393 -10.249965,-9.74865 z m -239.999192,0 c -5.4376,0.13328 -9.74976,4.59046 -9.74997,9.99861 0,0.083 -0.002,0.16648 0,0.24997 l 0,0.15628 0,58.77304 0,0.81239 c 5e-5,0.24706 -0.006,0.50153 0,0.74989 l 0.0313,0.46864 c 0.66248,16.10646 13.93619,28.7766 29.96861,28.7773 0.24922,0 0.4995,0.01 0.75,0 l 38.46861,0 0.78124,0 c 0.24921,0 0.49948,0.01 0.75,0 16.31796,-0.39984 29.26159,-13.76229 29.2499,-29.99583 -1.7e-4,-0.24167 0.006,-0.47574 0,-0.71871 l 0,-59.27297 c 0,-0.083 0.002,-0.16637 0,-0.24996 -0.1353,-5.52044 -4.72879,-9.88393 -10.24996,-9.74865 -5.43759,0.13328 -9.74976,4.59046 -9.74997,9.99861 0,0.083 -0.002,0.16648 0,0.24997 l 0,0.15628 0,31.30815 0,28.02731 c 0.002,0.084 0,0.16688 0,0.24997 -2.1e-4,5.40804 -4.31267,9.86543 -9.74997,9.99861 -0.0826,0 -0.16783,0 -0.25,0 l -39.74985,0 c -0.0826,0 -0.16783,0 -0.25,0 -5.34592,0 -9.77906,-4.22242 -9.99997,-9.59247 l 0,-0.15618 c -0.002,-0.084 0,-0.16688 0,-0.24996 l 0,-28.27728 0,-31.7144 c 0,-0.083 0.002,-0.16637 0,-0.24996 -0.13531,-5.52044 -4.7288,-9.88393 -10.24997,-9.74865 z m 559.98982,0 c -5.43759,0.13318 -9.74976,4.59046 -9.74997,9.99861 0,0.083 -0.002,0.16638 0,0.24997 l 0,0.15618 0,79.58275 c 0,0.083 -0.002,0.16638 0,0.24996 l 0,0.15618 c 0.22431,5.45275 4.79353,9.72615 10.24997,9.59247 5.43759,-0.13328 9.74976,-4.59046 9.74997,-9.99861 0,-0.083 0.002,-0.16638 0,-0.24997 l 0,-79.73893 c 0,-0.083 0.002,-0.16637 0,-0.24996 -0.1353,-5.52044 -4.7288,-9.88393 -10.24997,-9.74865 z m -39.99987,0 c -5.43759,0.13318 -9.74975,4.59046 -9.74996,9.99861 0,0.083 -0.002,0.16638 0,0.24997 l 0,0.15618 0,79.58275 c 0,0.083 -0.002,0.16638 0,0.24996 l 0,0.15618 c 0.22431,5.45275 4.79352,9.72615 10.24996,9.59247 5.43759,-0.13328 9.74976,-4.59046 9.74997,-9.99861 0,-0.083 0.002,-0.16638 0,-0.24997 l 0,-79.73893 c 0,-0.083 0.002,-0.16637 0,-0.24996 -0.1353,-5.52044 -4.72879,-9.88393 -10.24997,-9.74865 z m -39.99986,0 c -5.43759,0.13318 -9.74976,4.59046 -9.74997,9.99861 0,0.083 -0.002,0.16638 0,0.24997 l 0,0.15618 0,79.58275 c 0,0.083 -0.002,0.16638 0,0.24996 l 0,0.15618 c 0.22432,5.45275 4.79352,9.72615 10.24997,9.59247 5.43759,-0.13328 9.74975,-4.59046 9.74996,-9.99861 0,-0.083 0.002,-0.16638 0,-0.24997 l 0,-79.73893 c 0,-0.083 0.002,-0.16637 0,-0.24996 -0.1353,-5.52044 -4.72879,-9.88393 -10.24996,-9.74865 z m 119.9996,0 c -5.52118,0.13528 -9.88527,4.72814 -9.74997,10.24858 l 0,0.15618 c 0.22092,5.37025 4.65375,9.59366 9.99997,9.59246 0.0822,0 0.16739,0 0.24999,0 l 31.46865,0 28.03116,0 0.24999,0 c 5.40789,2e-4 9.86677,4.31231 9.99997,9.74865 0.1353,5.51994 -4.22979,10.1133 -9.74997,10.24858 -0.083,0 -0.1678,0 -0.25,0 l -28.28115,0 -12.46871,0 c -16.56044,0.40584 -29.6557,14.18593 -29.2499,30.74573 l 0.0313,0.46864 c 0.67275,16.35673 14.35235,29.17835 30.7186,28.7773 l 19.24993,0 c 0.0822,0 0.1674,0 0.25,0 5.52117,-0.13528 9.88527,-4.72814 9.74997,-10.24858 -0.13325,-5.43684 -4.59107,-9.74844 -9.99997,-9.74864 l -0.24999,0 -19.49994,0 c -0.083,0 -0.1679,0 -0.25,0 -5.34528,0 -9.77917,-4.22272 -9.99997,-9.59247 l 0,-0.15618 c -0.1353,-5.51993 4.22989,-10.1133 9.74997,-10.24858 0.084,0 0.1668,0 0.25,0 l 28.28115,0 11.46872,0 0.24999,0 c 5.40789,2e-4 9.86667,4.3123 9.99997,9.74865 l 0,0.24997 0,19.99722 c 0,0.083 -0.002,0.16638 0,0.24996 l 0,0.15618 c 0.22432,5.45275 4.79352,9.72615 10.24997,9.59247 5.43759,-0.13328 9.74975,-4.59046 9.74996,-9.99861 0,-0.083 0.002,-0.16638 0,-0.24997 l 0,-58.92932 c 0.013,-0.51172 0.013,-1.01356 0,-1.53108 -0.39989,-16.31134 -13.77325,-29.28014 -29.9999,-29.27714 l -59.99979,0 c -0.0831,0 -0.16642,0 -0.25,0 z m 119.99959,0 c -5.52117,0.13528 -9.88526,4.72814 -9.74996,10.24858 l 0,0.15618 c 0.22092,5.37025 4.65375,9.59366 9.99996,9.59246 0.0822,0 0.1674,0 0.25,0 l 19.49995,0 0.25,0 c 5.40888,2e-4 9.86665,4.31181 9.99995,9.74865 l 0,0.24997 0,59.99167 c 0,0.083 -0.002,0.16638 0,0.24996 l 0,0.15618 c 0.22432,5.45275 4.79353,9.72615 10.24997,9.59247 5.43759,-0.13328 9.74976,-4.59046 9.74997,-9.99861 0,-0.083 0.002,-0.16638 0,-0.24997 l 0,-59.33556 0,-0.15618 0,-0.24996 c 2e-4,-5.40815 4.31238,-9.86543 9.74996,-9.99862 0.084,0 0.1668,0 0.25,0 l 19.99994,0 c 0.0822,0 0.16739,0 0.24999,0 5.52118,-0.13528 9.88527,-4.72814 9.74997,-10.24857 -0.13325,-5.43685 -4.59106,-9.74845 -9.99996,-9.74865 l -0.25,0 -79.74974,0 c -0.0831,0 -0.16642,0 -0.25,0 z m 119.9996,0 c -5.52117,0.13528 -9.88526,4.72814 -9.74997,10.24858 l 0,0.15618 c 0.22092,5.37025 4.65376,9.59366 9.99997,9.59246 0.0822,0 0.1674,0 0.25,0 l 19.34369,0 0.15625,0 0.24999,0 c 5.40889,2e-4 9.86667,4.31181 9.99997,9.74865 l 0,0.24997 0,39.74448 0,0.24997 c -2e-4,5.40814 -4.31238,9.86533 -9.74997,9.99861 l -0.25,0 -19.99993,0 c -0.0831,0 -0.16642,0 -0.25,0 -5.52117,0.13528 -9.88526,4.72814 -9.74997,10.24857 l 0,0.15618 c 0.22092,5.37026 4.65376,9.59367 9.99997,9.59247 0.0822,0 0.1674,0 0.25,0 l 79.74973,0 c 0.0822,0 0.1674,0 0.25,0 5.52117,-0.13528 9.88527,-4.72814 9.74997,-10.24858 -0.13325,-5.43684 -4.59106,-9.74844 -9.99997,-9.74864 l -0.25,0 -19.49993,0 -0.25,0 c -5.40888,-2e-4 -9.86677,-4.3118 -9.99997,-9.74865 l 0,-0.24996 0,-39.74449 0,-0.24996 c -0.001,-5.34556 4.22274,-9.77775 9.59372,-9.99862 l 0.15625,0 0.25,0 19.99993,0 c 0.0822,0 0.1674,0 0.25,0 5.52117,-0.13528 9.88527,-4.72814 9.74997,-10.24857 -0.13325,-5.43685 -4.59106,-9.74845 -9.99997,-9.74865 l -0.25,0 -79.74973,0 c -0.0831,0 -0.16642,0 -0.25,0 z m 139.49954,0 -0.46875,0.031 c -16.10815,0.6623 -28.78046,13.93476 -28.78116,29.96454 0,0.24916 -0.01,0.49943 0,0.74989 l 0,38.46336 0,0.7812 c 0,0.24916 -0.01,0.49943 0,0.74989 0.3999,16.31524 13.76446,29.25764 29.9999,29.24594 0.2417,-2e-4 0.47585,0.01 0.71875,0 l 59.28105,0 c 0.0822,0 0.1674,0 0.25,0 5.52117,-0.13528 9.88527,-4.72814 9.74997,-10.24858 -0.13325,-5.43684 -4.59107,-9.74844 -9.99997,-9.74864 l -0.25,0 -31.46864,0 -28.03116,0 -0.25,0 c -5.40858,-2e-4 -9.86666,-4.3123 -9.99996,-9.74865 l 0,-0.24996 0,-39.74449 0,-0.24996 c -10e-4,-5.34506 4.22303,-9.77775 9.59371,-9.99862 l 0.15625,0 0.25,0 28.28116,0 31.71864,0 c 0.0822,0 0.1674,0 0.25,0 5.52117,-0.13528 9.88527,-4.72814 9.74997,-10.24857 -0.13325,-5.43685 -4.59107,-9.74845 -9.99997,-9.74865 l -0.25,0 -58.9373,0 -0.8125,0 c -0.2471,1e-4 -0.5015,-0.01 -0.74999,0 z"
       id="path3087"
       style="fill:#6f6573;fill-opacity:1;stroke:none" />
  </g>
</svg>
