<?xml version="1.0" encoding="UTF-8" standalone="no"?>
<!-- Created with Inkscape (http://www.inkscape.org/) -->

<svg
   xmlns:dc="http://purl.org/dc/elements/1.1/"
   xmlns:cc="http://creativecommons.org/ns#"
   xmlns:rdf="http://www.w3.org/1999/02/22-rdf-syntax-ns#"
   xmlns:svg="http://www.w3.org/2000/svg"
   xmlns="http://www.w3.org/2000/svg"
   xmlns:sodipodi="http://sodipodi.sourceforge.net/DTD/sodipodi-0.dtd"
   xmlns:inkscape="http://www.inkscape.org/namespaces/inkscape"
   width="800"
   height="150"
   id="svg4101"
   version="1.1"
   inkscape:version="0.48.3.1 r9886"
   sodipodi:docname="155x100.svg"
   inkscape:export-filename="/home/peto/Desktop/authomatic_logo/nove/banners/800x150.png"
   inkscape:export-xdpi="90"
   inkscape:export-ydpi="90">
  <defs
     id="defs4103" />
  <sodipodi:namedview
     id="base"
     pagecolor="#ffffff"
     bordercolor="#666666"
     borderopacity="1.0"
     inkscape:pageopacity="0.0"
     inkscape:pageshadow="2"
     inkscape:zoom="0.7"
     inkscape:cx="466.02088"
     inkscape:cy="40.875207"
     inkscape:document-units="px"
     inkscape:current-layer="layer1"
     showgrid="false"
     fit-margin-top="0"
     fit-margin-left="0"
     fit-margin-right="0"
     fit-margin-bottom="0"
     inkscape:window-width="1280"
     inkscape:window-height="1000"
     inkscape:window-x="0"
     inkscape:window-y="24"
     inkscape:window-maximized="1"
     inkscape:snap-global="false" />
  <metadata
     id="metadata4106">
    <rdf:RDF>
      <cc:Work
         rdf:about="">
        <dc:format>image/svg+xml</dc:format>
        <dc:type
           rdf:resource="http://purl.org/dc/dcmitype/StillImage" />
        <dc:title></dc:title>
      </cc:Work>
    </rdf:RDF>
  </metadata>
  <g
     inkscape:label="Layer 1"
     inkscape:groupmode="layer"
     id="layer1"
     transform="translate(653.57605,182.98885)">
    <rect
       style="fill:#faf7f4;fill-opacity:1;stroke:none"
       id="rect3009"
       width="800"
       height="150"
       x="-653.57605"
       y="-182.98885" />
    <g
       inkscape:label="Layer 1"
       id="g3847"
       transform="matrix(0.49209386,0,0,0.49209386,-274.91845,-30.136503)">
      <path
         style="fill:#f2cb05;fill-opacity:1;stroke:none"
         d="m 110.64273,-240.4677 c -15.68317,0.4029 -28.53567,12.9032 -29.1875,28.75 l -0.03125,0.4688 c -0.006,0.2484 5e-5,0.5029 0,0.75 l 0,10 0,20 0,9.2812 c -0.40591,16.561 12.6884,30.313 29.25,30.7188 0.25052,0.01 0.50078,0 0.75,0 l 39.25,0 c 16.36744,0.4011 30.04589,-12.4234 30.71875,-28.7812 l 0.0313,-0.4688 c 0.006,-0.2484 -5e-5,-0.5029 0,-0.75 l 0,-10 0,-20 0,-9.2812 c 0.40588,-16.561 -12.6884,-30.2817 -29.25,-30.6876 -0.25052,-0.01 -0.50078,0 -0.75,0 l -39.25,0 c -0.51148,-0.012 -1.02534,-0.013 -1.53125,0 z m 0.78125,20 0.25,0 39.75,0 0.25,0 c 5.43697,0.1332 9.74979,4.5607 9.75,9.9688 0,0.083 0.002,0.166 0,0.25 l 0,9.75 0,18.2812 0,1.7188 0,10 c 0,0.083 0.002,0.166 0,0.25 l 0,0.1562 c -0.2209,5.3702 -4.65441,9.5948 -10,9.5938 l -0.25,0 -39.75,0 -0.25,0 c -5.43697,-0.1332 -9.74979,-4.5919 -9.75,-10 0,-0.083 -0.002,-0.166 0,-0.25 l 0,-9.75 0,-1.7188 0,-16.5624 0,-1.7188 0,-10 c 0,-0.083 -0.002,-0.166 0,-0.25 l 0,-0.1562 c 0.2209,-5.3702 4.65441,-9.5626 10,-9.5626 z"
         id="path3849"
         inkscape:connector-curvature="0" />
      <path
         inkscape:connector-curvature="0"
         id="path3851"
         style="fill:#413744;fill-opacity:1;stroke:none"
         d="m -388.81683,-240.498 c -5.52119,0.1353 -9.8853,4.7288 -9.75,10.25 l 0,0.1563 c 0.22092,5.3709 4.65377,9.595 10,9.5937 0.0822,0 0.1674,0 0.25,0 l 31.46875,0 28.03125,0 0.25,0 c 5.40892,2e-4 9.86675,4.3124 10,9.75 0.1353,5.5212 -4.22881,10.1147 -9.75,10.25 -0.0826,0 -0.16783,0 -0.25,0 l -28.28125,0 -12.46875,0 c -16.56357,0.4059 -29.65591,14.1864 -29.25,30.75 l 0.0313,0.4687 c 0.67289,16.3605 14.34932,29.1824 30.7187,28.7813 l 19.25,0 c 0.0822,0 0.1674,0 0.25,0 5.52119,-0.1353 9.8853,-4.7288 9.75,-10.25 -0.13325,-5.4376 -4.59108,-9.7498 -10,-9.75 l -0.24999,0 -19.50001,0 c -0.0826,0 -0.16783,0 -0.25,0 -5.34623,0 -9.77908,-4.2228 -10,-9.5938 l 0,-0.1562 c -0.1353,-5.5212 4.22881,-10.1147 9.75,-10.25 0.0836,0 0.16686,0 0.25,0 l 28.28125,0 11.46875,0 0.25,0 c 5.40892,2e-4 9.86675,4.3124 10,9.75 0.002,0.084 0,0.1669 0,0.25 l 0,20 c 0,0.083 -0.002,0.1664 0,0.25 l 0,0.1562 c 0.22432,5.4535 4.79354,9.7275 10.25,9.5938 5.43761,-0.1333 9.74979,-4.5911 9.75,-10 0,-0.083 0.002,-0.1664 0,-0.25 l 0,-58.9375 c 0.0134,-0.5118 0.0127,-1.0136 0,-1.5312 -0.39982,-16.3151 -13.77017,-29.2843 -30,-29.2813 l -60,0 c -0.0831,0 -0.16642,0 -0.25,0 z m 240,0 c -5.52119,0.1353 -9.8853,4.7288 -9.75,10.25 l 0,0.1563 c 0.22092,5.3709 4.65377,9.595 10,9.5937 0.0822,0 0.1674,0 0.25,0 l 19.5,0 0.25,0 c 5.40892,2e-4 9.86675,4.3124 10,9.75 0.002,0.084 0,0.1669 0,0.25 l 0,60 c 0,0.083 -0.002,0.1664 0,0.25 l 0,0.1562 c 0.22432,5.4535 4.79354,9.7275 10.25,9.5938 5.43761,-0.1333 9.74979,-4.5911 9.75,-10 0,-0.083 0.002,-0.1664 0,-0.25 l 0,-59.3437 0,-0.1563 c -0.002,-0.084 0,-0.1668 0,-0.25 2.1e-4,-5.4089 4.31239,-9.8667 9.75,-10 0.0836,0 0.16686,0 0.25,0 l 20,0 c 0.0822,0 0.1674,0 0.25,0 5.52119,-0.1353 9.8853,-4.7288 9.75,-10.25 -0.13325,-5.4376 -4.59108,-9.7498 -10,-9.75 l -0.25,0 -79.75,0 c -0.0831,0 -0.16642,0 -0.25,0 z m 120,0 c -5.43761,0.1333 -9.74979,4.5911 -9.75,10 0,0.083 -0.002,0.1665 0,0.25 l 0,0.1563 0,79.5937 c 0,0.083 -0.002,0.1664 0,0.25 l 0,0.1562 c 0.22432,5.4535 4.79354,9.7275 10.25,9.5938 5.43761,-0.1333 9.74979,-4.5911 9.75,-10 0,-0.083 0.002,-0.1664 0,-0.25 l 0,-19.3438 0,-0.1562 c -0.002,-0.084 0,-0.1669 0,-0.25 2.1e-4,-5.4089 4.31239,-9.8667 9.75,-10 0.0836,0 0.16686,0 0.25,0 l 39.75,0 0.25,0 c 5.40892,2e-4 9.86675,4.3124 10,9.75 0.002,0.084 0,0.1669 0,0.25 l 0,20 c 0,0.083 -0.002,0.1664 0,0.25 l 0,0.1562 c 0.22432,5.4535 4.79354,9.7275 10.25,9.5938 5.43761,-0.1333 9.74979,-4.5911 9.75,-10 0,-0.083 0.002,-0.1664 0,-0.25 l 0,-79.75 c 0,-0.083 0.002,-0.1664 0,-0.25 -0.1353,-5.5212 -4.72881,-9.8853 -10.25,-9.75 -5.43761,0.1333 -9.74979,4.5911 -9.75,10 0,0.083 -0.002,0.1665 0,0.25 l 0,0.1563 0,19.3437 c 0.002,0.084 0,0.1669 0,0.25 -2.1e-4,5.409 -4.31239,9.8668 -9.75,10 -0.0826,0 -0.16783,0 -0.25,0 l -39.75,0 c -0.0826,0 -0.16783,0 -0.25,0 -5.34623,0 -9.77909,-4.2228 -10,-9.5937 l 0,-0.1563 c -0.002,-0.084 0,-0.1668 0,-0.25 l 0,-20 c 0,-0.083 0.002,-0.1664 0,-0.25 -0.1353,-5.5212 -4.72881,-9.8853 -10.25,-9.75 z m -240,0 c -5.43761,0.1333 -9.74979,4.5911 -9.75,10 0,0.083 -0.002,0.1665 0,0.25 l 0,0.1563 0,58.7812 0,0.8125 c 5e-5,0.2471 -0.006,0.5016 0,0.75 l 0.0313,0.4687 c 0.66248,16.1087 13.93624,28.7806 29.96871,28.7813 0.24922,0 0.4995,0.01 0.75,0 l 38.46874,0 0.78125,0 c 0.24921,0 0.49948,0.01 0.75,0 16.31801,-0.3999 29.26169,-13.7642 29.25,-30 -1.7e-4,-0.2417 0.006,-0.4758 0,-0.7188 l 0,-59.2812 c 0,-0.083 0.002,-0.1664 0,-0.25 -0.1353,-5.5212 -4.72881,-9.8853 -10.25,-9.75 -5.43761,0.1333 -9.74979,4.5911 -9.75,10 0,0.083 -0.002,0.1665 0,0.25 l 0,0.1563 0,31.3125 0,28.0312 c 0.002,0.084 0,0.1669 0,0.25 -2.1e-4,5.4088 -4.31268,9.8668 -9.75,10 -0.0826,0 -0.16783,0 -0.25,0 l -39.74999,0 c -0.0826,0 -0.16783,0 -0.25,0 -5.34594,0 -9.77909,-4.223 -10,-9.5938 l 0,-0.1562 c -0.002,-0.084 0,-0.1669 0,-0.25 l 0,-28.2812 0,-31.7188 c 0,-0.083 0.002,-0.1664 0,-0.25 -0.13531,-5.5212 -4.72882,-9.8853 -10.25001,-9.75 z m 559.9917,0 c -5.43761,0.1332 -9.74979,4.5911 -9.75,10 0,0.083 -0.002,0.1664 0,0.25 l 0,0.1562 0,79.5938 c 0,0.083 -0.002,0.1664 0,0.25 l 0,0.1562 c 0.22431,5.4535 4.79354,9.7275 10.25,9.5938 5.43761,-0.1333 9.74979,-4.5911 9.75,-10 0,-0.083 0.002,-0.1664 0,-0.25 l 0,-79.75 c 0,-0.083 0.002,-0.1664 0,-0.25 -0.1353,-5.5212 -4.72881,-9.8853 -10.25,-9.75 z m -40,0 c -5.43761,0.1332 -9.74979,4.5911 -9.75,10 0,0.083 -0.002,0.1664 0,0.25 l 0,0.1562 0,79.5938 c 0,0.083 -0.002,0.1664 0,0.25 l 0,0.1562 c 0.22431,5.4535 4.79354,9.7275 10.25,9.5938 5.43761,-0.1333 9.74979,-4.5911 9.75,-10 0,-0.083 0.002,-0.1664 0,-0.25 l 0,-79.75 c 0,-0.083 0.002,-0.1664 0,-0.25 -0.1353,-5.5212 -4.72881,-9.8853 -10.25,-9.75 z m -40,0 c -5.43761,0.1332 -9.74979,4.5911 -9.75,10 0,0.083 -0.002,0.1664 0,0.25 l 0,0.1562 0,79.5938 c 0,0.083 -0.002,0.1664 0,0.25 l 0,0.1562 c 0.22432,5.4535 4.79354,9.7275 10.25,9.5938 5.43761,-0.1333 9.74979,-4.5911 9.75,-10 0,-0.083 0.002,-0.1664 0,-0.25 l 0,-79.75 c 0,-0.083 0.002,-0.1664 0,-0.25 -0.1353,-5.5212 -4.72881,-9.8853 -10.25,-9.75 z m 120,0 c -5.52119,0.1353 -9.8853,4.7288 -9.75,10.25 l 0,0.1562 c 0.22092,5.371 4.65377,9.595 10,9.5938 0.0822,0 0.1674,0 0.25,0 l 31.46875,0 28.03125,0 0.25,0 c 5.4079,2e-4 9.8668,4.3129 10,9.75 0.1353,5.5207 -4.2298,10.1147 -9.75,10.25 -0.083,0 -0.1678,0 -0.25,0 l -28.28125,0 -12.46875,0 c -16.5605,0.4059 -29.6558,14.1879 -29.25,30.75 l 0.0313,0.4687 c 0.67275,16.359 14.3524,29.1824 30.7187,28.7813 l 19.25,0 c 0.0822,0 0.1674,0 0.25,0 5.52119,-0.1353 9.8853,-4.7288 9.75,-10.25 -0.13325,-5.4376 -4.59108,-9.7498 -10,-9.75 l -0.24999,0 -19.50001,0 c -0.083,0 -0.1679,0 -0.25,0 -5.3453,0 -9.7792,-4.2233 -10,-9.5938 l 0,-0.1562 c -0.1353,-5.5207 4.2299,-10.1147 9.75,-10.25 0.084,0 0.1668,0 0.25,0 l 28.28125,0 11.46875,0 0.25,0 c 5.4079,2e-4 9.8667,4.3129 10,9.75 l 0,0.25 0,20 c 0,0.083 -0.002,0.1664 0,0.25 l 0,0.1562 c 0.22432,5.4535 4.79354,9.7275 10.25,9.5938 5.43761,-0.1333 9.74979,-4.5911 9.75,-10 0,-0.083 0.002,-0.1664 0,-0.25 l 0,-58.9375 c 0.013,-0.5118 0.013,-1.0137 0,-1.5313 -0.3999,-16.3136 -13.7733,-29.2842 -30,-29.2812 l -60,0 c -0.0831,0 -0.16642,0 -0.25,0 z m 120,0 c -5.52119,0.1353 -9.8853,4.7288 -9.75,10.25 l 0,0.1562 c 0.22092,5.371 4.65377,9.595 10,9.5938 0.0822,0 0.1674,0 0.25,0 l 19.50001,0 0.25,0 c 5.4089,2e-4 9.86669,4.3124 9.99999,9.75 l 0,0.25 0,60 c 0,0.083 -0.002,0.1664 0,0.25 l 0,0.1562 c 0.22432,5.4535 4.79354,9.7275 10.25,9.5938 5.43761,-0.1333 9.74979,-4.5911 9.75,-10 0,-0.083 0.002,-0.1664 0,-0.25 l 0,-59.3438 0,-0.1562 0,-0.25 c 2e-4,-5.4089 4.3124,-9.8668 9.75,-10 0.084,0 0.1668,0 0.25,0 l 20,0 c 0.0822,0 0.1674,0 0.25,0 5.52119,-0.1353 9.8853,-4.7288 9.75,-10.25 -0.13325,-5.4376 -4.59108,-9.7498 -10,-9.75 l -0.25,0 -79.75,0 c -0.0831,0 -0.16642,0 -0.25,0 z m 120,0 c -5.52119,0.1353 -9.8853,4.7288 -9.75,10.25 l 0,0.1562 c 0.22092,5.371 4.65377,9.595 10,9.5938 0.0822,0 0.1674,0 0.25,0 l 19.34375,0 0.15625,0 0.25,0 c 5.4089,2e-4 9.8667,4.3124 10,9.75 l 0,0.25 0,39.75 0,0.25 c -2e-4,5.4089 -4.3124,9.8667 -9.75,10 l -0.25,0 -20,0 c -0.0831,0 -0.16642,0 -0.25,0 -5.52119,0.1353 -9.8853,4.7288 -9.75,10.25 l 0,0.1562 c 0.22092,5.371 4.65377,9.595 10,9.5938 0.0822,0 0.1674,0 0.25,0 l 79.75,0 c 0.0822,0 0.1674,0 0.25,0 5.52119,-0.1353 9.8853,-4.7288 9.75,-10.25 -0.13325,-5.4376 -4.59108,-9.7498 -10,-9.75 l -0.25,0 -19.5,0 -0.25,0 c -5.4089,-2e-4 -9.8668,-4.3124 -10,-9.75 l 0,-0.25 0,-39.75 0,-0.25 c -0.001,-5.3463 4.22275,-9.7791 9.59375,-10 l 0.15625,0 0.25,0 20,0 c 0.0822,0 0.1674,0 0.25,0 5.52119,-0.1353 9.8853,-4.7288 9.75,-10.25 -0.13325,-5.4376 -4.59108,-9.7498 -10,-9.75 l -0.25,0 -79.75,0 c -0.0831,0 -0.16642,0 -0.25,0 z m 139.5,0 -0.46875,0.031 c -16.1082,0.6624 -28.78055,13.9367 -28.78125,29.9687 0,0.2492 -0.01,0.4995 0,0.75 l 0,38.4687 0,0.7813 c 0,0.2492 -0.01,0.4995 0,0.75 0.3999,16.3175 13.7645,29.2617 30,29.25 0.2417,-2e-4 0.47585,0.01 0.71875,0 l 59.28125,0 c 0.0822,0 0.1674,0 0.25,0 5.52119,-0.1353 9.8853,-4.7288 9.75,-10.25 -0.13325,-5.4376 -4.59108,-9.7498 -10,-9.75 l -0.25,0 -31.46875,0 -28.03125,0 -0.25,0 c -5.4086,-2e-4 -9.8667,-4.3129 -10,-9.75 l 0,-0.25 0,-39.75 0,-0.25 c -0.001,-5.3458 4.22305,-9.7791 9.59375,-10 l 0.15625,0 0.25,0 28.28125,0 31.71875,0 c 0.0822,0 0.1674,0 0.25,0 5.52119,-0.1353 9.8853,-4.7288 9.75,-10.25 -0.13325,-5.4376 -4.59108,-9.7498 -10,-9.75 l -0.25,0 -58.9375,0 -0.8125,0 c -0.2471,1e-4 -0.5015,-0.01 -0.75,0 z" />
    </g>
  </g>
</svg>
