<?xml version="1.0" encoding="UTF-8" standalone="no"?>
<!-- Created with Inkscape (http://www.inkscape.org/) -->

<svg
   xmlns:dc="http://purl.org/dc/elements/1.1/"
   xmlns:cc="http://creativecommons.org/ns#"
   xmlns:rdf="http://www.w3.org/1999/02/22-rdf-syntax-ns#"
   xmlns:svg="http://www.w3.org/2000/svg"
   xmlns="http://www.w3.org/2000/svg"
   xmlns:sodipodi="http://sodipodi.sourceforge.net/DTD/sodipodi-0.dtd"
   xmlns:inkscape="http://www.inkscape.org/namespaces/inkscape"
   width="120.01807"
   height="119.98734"
   id="svg4116"
   version="1.1"
   inkscape:version="0.48.3.1 r9886"
   sodipodi:docname="New document 6">
  <defs
     id="defs4118" />
  <sodipodi:namedview
     id="base"
     pagecolor="#4a404e"
     bordercolor="#666666"
     borderopacity="1.0"
     inkscape:pageopacity="0"
     inkscape:pageshadow="2"
     inkscape:zoom="2.8"
     inkscape:cx="44.160774"
     inkscape:cy="74.955728"
     inkscape:document-units="px"
     inkscape:current-layer="layer1"
     showgrid="false"
     fit-margin-top="10"
     fit-margin-left="10"
     fit-margin-right="10"
     fit-margin-bottom="10"
     inkscape:window-width="1280"
     inkscape:window-height="1000"
     inkscape:window-x="0"
     inkscape:window-y="24"
     inkscape:window-maximized="1">
    <inkscape:grid
       type="xygrid"
       id="grid4161"
       empspacing="5"
       visible="true"
       enabled="true"
       snapvisiblegridlinesonly="true"
       originx="9.9999946px"
       originy="10px" />
  </sodipodi:namedview>
  <metadata
     id="metadata4121">
    <rdf:RDF>
      <cc:Work
         rdf:about="">
        <dc:format>image/svg+xml</dc:format>
        <dc:type
           rdf:resource="http://purl.org/dc/dcmitype/StillImage" />
        <dc:title></dc:title>
      </cc:Work>
    </rdf:RDF>
  </metadata>
  <g
     inkscape:label="Layer 1"
     inkscape:groupmode="layer"
     id="layer1"
     transform="translate(-314.99096,-472.36851)">
    <rect
       style="fill:#faf7f4;fill-opacity:1;stroke:none"
       id="rect4163"
       width="120"
       height="120"
       x="-5.4000002e-06"
       y="-0.012657166"
       transform="translate(314.99096,472.36851)" />
    <g
       id="g4687"
       style="fill:#413744;fill-opacity:1">
      <g
         id="g3126"
         transform="matrix(0.07135843,0,0,0.07135843,337.14918,442.31598)"
         style="fill:#413744;fill-opacity:1">
        <path
           id="path3128"
           d="m 749.25083,1452.353 -0.46875,0.031 c -16.1082,0.6624 -28.78055,13.9367 -28.78125,29.9687 0,0.2492 -0.01,0.4995 0,0.75 l 0,38.4687 0,0.7813 c 0,0.2492 -0.01,0.4995 0,0.75 0.3999,16.3175 13.7645,29.2617 30,29.25 0.2417,-2e-4 0.47585,0.01 0.71875,0 l 59.28125,0 c 0.0822,0 0.1674,0 0.25,0 5.52119,-0.1353 9.8853,-4.7288 9.75,-10.25 -0.13325,-5.4376 -4.59108,-9.7498 -10,-9.75 l -0.25,0 -31.46875,0 -28.03125,0 -0.25,0 c -5.4086,-2e-4 -9.8667,-4.3129 -10,-9.75 l 0,-0.25 0,-39.75 0,-0.25 c -10e-4,-5.3458 4.22305,-9.7791 9.59375,-10 l 0.15625,0 0.25,0 28.28125,0 31.71875,0 c 0.0822,0 0.1674,0 0.25,0 5.52119,-0.1353 9.8853,-4.7288 9.75,-10.25 -0.13325,-5.4376 -4.59108,-9.7498 -10,-9.75 l -0.25,0 -58.9375,0 -0.8125,0 c -0.2471,10e-5 -0.5015,-0.01 -0.75,0 z"
           style="fill:#413744;fill-opacity:1;stroke:none"
           inkscape:connector-curvature="0" />
        <path
           id="path3130"
           d="m 609.75083,1452.353 c -5.52119,0.1353 -9.8853,4.7288 -9.75,10.25 l 0,0.1562 c 0.22092,5.371 4.65377,9.595 10,9.5938 0.0822,0 0.1674,0 0.25,0 l 19.34375,0 0.15625,0 0.25,0 c 5.4089,2e-4 9.8667,4.3124 10,9.75 l 0,0.25 0,39.75 0,0.25 c -2e-4,5.4089 -4.3124,9.8667 -9.75,10 l -0.25,0 -20,0 c -0.0831,0 -0.16642,0 -0.25,0 -5.52119,0.1353 -9.8853,4.7288 -9.75,10.25 l 0,0.1562 c 0.22092,5.371 4.65377,9.595 10,9.5938 0.0822,0 0.1674,0 0.25,0 l 79.75,0 c 0.0822,0 0.1674,0 0.25,0 5.52119,-0.1353 9.8853,-4.7288 9.75,-10.25 -0.13325,-5.4376 -4.59108,-9.7498 -10,-9.75 l -0.25,0 -19.5,0 -0.25,0 c -5.4089,-2e-4 -9.8668,-4.3124 -10,-9.75 l 0,-0.25 0,-39.75 0,-0.25 c -10e-4,-5.3463 4.22275,-9.7791 9.59375,-10 l 0.15625,0 0.25,0 20,0 c 0.0822,0 0.1674,0 0.25,0 5.52119,-0.1353 9.8853,-4.7288 9.75,-10.25 -0.13325,-5.4376 -4.59108,-9.7498 -10,-9.75 l -0.25,0 -79.75,0 c -0.0831,0 -0.16642,0 -0.25,0 z"
           style="fill:#413744;fill-opacity:1;stroke:none"
           inkscape:connector-curvature="0" />
        <path
           id="path3132"
           d="m 489.75083,1452.353 c -5.52119,0.1353 -9.8853,4.7288 -9.75,10.25 l 0,0.1562 c 0.22092,5.371 4.65377,9.595 10,9.5938 0.0822,0 0.1674,0 0.25,0 l 19.50001,0 0.25,0 c 5.4089,2e-4 9.86669,4.3124 9.99999,9.75 l 0,0.25 0,60 c 0,0.083 -0.002,0.1664 0,0.25 l 0,0.1562 c 0.22432,5.4535 4.79354,9.7275 10.25,9.5938 5.43761,-0.1333 9.74979,-4.5911 9.75,-10 0,-0.083 0.002,-0.1664 0,-0.25 l 0,-59.3438 0,-0.1562 0,-0.25 c 2e-4,-5.4089 4.3124,-9.8668 9.75,-10 0.084,0 0.1668,0 0.25,0 l 20,0 c 0.0822,0 0.1674,0 0.25,0 5.52119,-0.1353 9.8853,-4.7288 9.75,-10.25 -0.13325,-5.4376 -4.59108,-9.7498 -10,-9.75 l -0.25,0 -79.75,0 c -0.0831,0 -0.16642,0 -0.25,0 z"
           style="fill:#413744;fill-opacity:1;stroke:none"
           inkscape:connector-curvature="0" />
        <path
           id="path3134"
           d="m 369.75083,1452.353 c -5.52119,0.1353 -9.8853,4.7288 -9.75,10.25 l 0,0.1562 c 0.22092,5.371 4.65377,9.595 10,9.5938 0.0822,0 0.1674,0 0.25,0 l 31.46875,0 28.03125,0 0.25,0 c 5.4079,2e-4 9.8668,4.3129 10,9.75 0.1353,5.5207 -4.2298,10.1147 -9.75,10.25 -0.083,0 -0.1678,0 -0.25,0 l -28.28125,0 -12.46875,0 c -16.5605,0.4059 -29.6558,14.1879 -29.25,30.75 l 0.0313,0.4687 c 0.67275,16.359 14.3524,29.1824 30.7187,28.7813 l 19.25,0 c 0.0822,0 0.1674,0 0.25,0 5.52119,-0.1353 9.8853,-4.7288 9.75,-10.25 -0.13325,-5.4376 -4.59108,-9.7498 -10,-9.75 l -0.24999,0 -19.50001,0 c -0.083,0 -0.1679,0 -0.25,0 -5.3453,0 -9.7792,-4.2233 -10,-9.5938 l 0,-0.1562 c -0.1353,-5.5207 4.2299,-10.1147 9.75,-10.25 0.084,0 0.1668,0 0.25,0 l 28.28125,0 11.46875,0 0.25,0 c 5.4079,2e-4 9.8667,4.3129 10,9.75 l 0,0.25 0,20 c 0,0.083 -0.002,0.1664 0,0.25 l 0,0.1562 c 0.22432,5.4535 4.79354,9.7275 10.25,9.5938 5.43761,-0.1333 9.74979,-4.5911 9.75,-10 0,-0.083 0.002,-0.1664 0,-0.25 l 0,-58.9375 c 0.013,-0.5118 0.013,-1.0137 0,-1.5313 -0.3999,-16.3136 -13.7733,-29.2842 -30,-29.2812 l -60,0 c -0.0831,0 -0.16642,0 -0.25,0 z"
           style="fill:#413744;fill-opacity:1;stroke:none"
           inkscape:connector-curvature="0" />
        <path
           id="path3136"
           d="m 249.75083,1452.353 c -5.43761,0.1332 -9.74979,4.5911 -9.75,10 0,0.083 -0.002,0.1664 0,0.25 l 0,0.1562 0,79.5938 c 0,0.083 -0.002,0.1664 0,0.25 l 0,0.1562 c 0.22432,5.4535 4.79354,9.7275 10.25,9.5938 5.43761,-0.1333 9.74979,-4.5911 9.75,-10 0,-0.083 0.002,-0.1664 0,-0.25 l 0,-79.75 c 0,-0.083 0.002,-0.1664 0,-0.25 -0.1353,-5.5212 -4.72881,-9.8853 -10.25,-9.75 z"
           style="fill:#413744;fill-opacity:1;stroke:none"
           inkscape:connector-curvature="0" />
        <path
           id="path3138"
           d="m 289.75083,1452.353 c -5.43761,0.1332 -9.74979,4.5911 -9.75,10 0,0.083 -0.002,0.1664 0,0.25 l 0,0.1562 0,79.5938 c 0,0.083 -0.002,0.1664 0,0.25 l 0,0.1562 c 0.22431,5.4535 4.79354,9.7275 10.25,9.5938 5.43761,-0.1333 9.74979,-4.5911 9.75,-10 0,-0.083 0.002,-0.1664 0,-0.25 l 0,-79.75 c 0,-0.083 0.002,-0.1664 0,-0.25 -0.1353,-5.5212 -4.72881,-9.8853 -10.25,-9.75 z"
           style="fill:#413744;fill-opacity:1;stroke:none"
           inkscape:connector-curvature="0" />
        <path
           id="path3140"
           d="m 329.75083,1452.353 c -5.43761,0.1332 -9.74979,4.5911 -9.75,10 0,0.083 -0.002,0.1664 0,0.25 l 0,0.1562 0,79.5938 c 0,0.083 -0.002,0.1664 0,0.25 l 0,0.1562 c 0.22431,5.4535 4.79354,9.7275 10.25,9.5938 5.43761,-0.1333 9.74979,-4.5911 9.75,-10 0,-0.083 0.002,-0.1664 0,-0.25 l 0,-79.75 c 0,-0.083 0.002,-0.1664 0,-0.25 -0.1353,-5.5212 -4.72881,-9.8853 -10.25,-9.75 z"
           style="fill:#413744;fill-opacity:1;stroke:none"
           inkscape:connector-curvature="0" />
      </g>
      <g
         id="g3144"
         transform="matrix(0.07135843,0,0,0.07135843,328.58676,450.87899)"
         style="fill:#413744;fill-opacity:1">
        <path
           id="path3146"
           d="m 489.75083,1212.353 c -5.43761,0.1333 -9.74979,4.5911 -9.75,10 0,0.083 -0.002,0.1665 0,0.25 l 0,0.1563 0,58.7812 0,0.8125 c 5e-5,0.2471 -0.006,0.5016 0,0.75 l 0.0313,0.4687 c 0.66248,16.1087 13.93624,28.7806 29.96871,28.7813 0.24922,0 0.4995,0.01 0.75,0 l 38.46874,0 0.78125,0 c 0.24921,0 0.49948,0.01 0.75,0 16.31801,-0.3999 29.26169,-13.7642 29.25,-30 -1.7e-4,-0.2417 0.006,-0.4758 0,-0.7188 l 0,-59.2812 c 0,-0.083 0.002,-0.1664 0,-0.25 -0.1353,-5.5212 -4.72881,-9.8853 -10.25,-9.75 -5.43761,0.1333 -9.74979,4.5911 -9.75,10 0,0.083 -0.002,0.1665 0,0.25 l 0,0.1563 0,31.3125 0,28.0312 c 0.002,0.084 0,0.1669 0,0.25 -2.1e-4,5.4088 -4.31268,9.8668 -9.75,10 -0.0826,0 -0.16783,0 -0.25,0 l -39.74999,0 c -0.0826,0 -0.16783,0 -0.25,0 -5.34594,0 -9.77909,-4.223 -10,-9.5938 l 0,-0.1562 c -0.002,-0.084 0,-0.1669 0,-0.25 l 0,-28.2812 0,-31.7188 c 0,-0.083 0.002,-0.1664 0,-0.25 -0.13531,-5.5212 -4.72882,-9.8853 -10.25001,-9.75 z"
           style="fill:#413744;fill-opacity:1;stroke:none"
           inkscape:connector-curvature="0" />
        <path
           id="path3148"
           d="m 729.75083,1212.353 c -5.43761,0.1333 -9.74979,4.5911 -9.75,10 0,0.083 -0.002,0.1665 0,0.25 l 0,0.1563 0,79.5937 c 0,0.083 -0.002,0.1664 0,0.25 l 0,0.1562 c 0.22432,5.4535 4.79354,9.7275 10.25,9.5938 5.43761,-0.1333 9.74979,-4.5911 9.75,-10 0,-0.083 0.002,-0.1664 0,-0.25 l 0,-19.3438 0,-0.1562 c -0.002,-0.084 0,-0.1669 0,-0.25 2.1e-4,-5.4089 4.31239,-9.8667 9.75,-10 0.0836,0 0.16686,0 0.25,0 l 39.75,0 0.25,0 c 5.40892,2e-4 9.86675,4.3124 10,9.75 0.002,0.084 0,0.1669 0,0.25 l 0,20 c 0,0.083 -0.002,0.1664 0,0.25 l 0,0.1562 c 0.22432,5.4535 4.79354,9.7275 10.25,9.5938 5.43761,-0.1333 9.74979,-4.5911 9.75,-10 0,-0.083 0.002,-0.1664 0,-0.25 l 0,-79.75 c 0,-0.083 0.002,-0.1664 0,-0.25 -0.1353,-5.5212 -4.72881,-9.8853 -10.25,-9.75 -5.43761,0.1333 -9.74979,4.5911 -9.75,10 0,0.083 -0.002,0.1665 0,0.25 l 0,0.1563 0,19.3437 c 0.002,0.084 0,0.1669 0,0.25 -2.1e-4,5.409 -4.31239,9.8668 -9.75,10 -0.0826,0 -0.16783,0 -0.25,0 l -39.75,0 c -0.0826,0 -0.16783,0 -0.25,0 -5.34623,0 -9.77909,-4.2228 -10,-9.5937 l 0,-0.1563 c -0.002,-0.084 0,-0.1668 0,-0.25 l 0,-20 c 0,-0.083 0.002,-0.1664 0,-0.25 -0.1353,-5.5212 -4.72881,-9.8853 -10.25,-9.75 z"
           style="fill:#413744;fill-opacity:1;stroke:none"
           inkscape:connector-curvature="0" />
        <path
           id="path3150"
           d="m 609.75083,1212.353 c -5.52119,0.1353 -9.8853,4.7288 -9.75,10.25 l 0,0.1563 c 0.22092,5.3709 4.65377,9.595 10,9.5937 0.0822,0 0.1674,0 0.25,0 l 19.5,0 0.25,0 c 5.40892,2e-4 9.86675,4.3124 10,9.75 0.002,0.084 0,0.1669 0,0.25 l 0,60 c 0,0.083 -0.002,0.1664 0,0.25 l 0,0.1562 c 0.22432,5.4535 4.79354,9.7275 10.25,9.5938 5.43761,-0.1333 9.74979,-4.5911 9.75,-10 0,-0.083 0.002,-0.1664 0,-0.25 l 0,-59.3437 0,-0.1563 c -0.002,-0.084 0,-0.1668 0,-0.25 2.1e-4,-5.4089 4.31239,-9.8667 9.75,-10 0.0836,0 0.16686,0 0.25,0 l 20,0 c 0.0822,0 0.1674,0 0.25,0 5.52119,-0.1353 9.8853,-4.7288 9.75,-10.25 -0.13325,-5.4376 -4.59108,-9.7498 -10,-9.75 l -0.25,0 -79.75,0 c -0.0831,0 -0.16642,0 -0.25,0 z"
           style="fill:#413744;fill-opacity:1;stroke:none"
           inkscape:connector-curvature="0" />
        <path
           id="path3152"
           d="m 369.75083,1212.353 c -5.52119,0.1353 -9.8853,4.7288 -9.75,10.25 l 0,0.1563 c 0.22092,5.3709 4.65377,9.595 10,9.5937 0.0822,0 0.1674,0 0.25,0 l 31.46875,0 28.03125,0 0.25,0 c 5.40892,2e-4 9.86675,4.3124 10,9.75 0.1353,5.5212 -4.22881,10.1147 -9.75,10.25 -0.0826,0 -0.16783,0 -0.25,0 l -28.28125,0 -12.46875,0 c -16.56357,0.4059 -29.65591,14.1864 -29.25,30.75 l 0.0313,0.4687 c 0.67289,16.3605 14.34932,29.1824 30.7187,28.7813 l 19.25,0 c 0.0822,0 0.1674,0 0.25,0 5.52119,-0.1353 9.8853,-4.7288 9.75,-10.25 -0.13325,-5.4376 -4.59108,-9.7498 -10,-9.75 l -0.24999,0 -19.50001,0 c -0.0826,0 -0.16783,0 -0.25,0 -5.34623,0 -9.77908,-4.2228 -10,-9.5938 l 0,-0.1562 c -0.1353,-5.5212 4.22881,-10.1147 9.75,-10.25 0.0836,0 0.16686,0 0.25,0 l 28.28125,0 11.46875,0 0.25,0 c 5.40892,2e-4 9.86675,4.3124 10,9.75 0.002,0.084 0,0.1669 0,0.25 l 0,20 c 0,0.083 -0.002,0.1664 0,0.25 l 0,0.1562 c 0.22432,5.4535 4.79354,9.7275 10.25,9.5938 5.43761,-0.1333 9.74979,-4.5911 9.75,-10 0,-0.083 0.002,-0.1664 0,-0.25 l 0,-58.9375 c 0.0134,-0.5118 0.0127,-1.0136 0,-1.5312 -0.39982,-16.3151 -13.77017,-29.2843 -30,-29.2813 l -60,0 c -0.0831,0 -0.16642,0 -0.25,0 z"
           style="fill:#413744;fill-opacity:1;stroke:none"
           inkscape:connector-curvature="0" />
      </g>
    </g>
    <g
       id="g4702"
       style="fill:#f2cb05;fill-opacity:1">
      <path
         style="fill:#f2cb05;fill-opacity:1;stroke:none"
         d="m 390.61225,537.39276 c -1.11912,0.0288 -2.03626,0.92075 -2.08278,2.05155 l -0.002,0.0335 c -7.1e-4,0.0177 0,0.0359 0,0.0535 l 0,0.71358 0,1.42717 0,0.66229 c -0.029,1.18177 0.90543,2.16309 2.08724,2.19205 0.0179,7.1e-4 0.0357,0 0.0535,0 l 2.80081,0 c 1.16796,0.0286 2.14403,-0.88652 2.19204,-2.05378 l 0.002,-0.0335 c 7.2e-4,-0.0177 0,-0.0359 0,-0.0535 l 0,-0.71358 0,-1.42717 0,-0.66229 c 0.029,-1.18177 -0.90542,-2.16086 -2.08723,-2.18982 -0.0179,-7.1e-4 -0.0357,0 -0.0535,0 l -2.80082,0 c -0.0365,-8.6e-4 -0.0732,-9.3e-4 -0.10926,0 z m 0.0557,1.42717 0.0178,0 2.8365,0 0.0178,0 c 0.38797,0.01 0.69573,0.32544 0.69574,0.71136 0,0.006 0,0.0118 0,0.0178 l 0,0.69574 0,1.30452 0,0.12265 0,0.71358 c 0,0.006 0,0.0118 0,0.0178 l 0,0.0112 c -0.0158,0.38321 -0.33213,0.68467 -0.71358,0.6846 l -0.0178,0 -2.8365,0 -0.0178,0 c -0.38797,-0.01 -0.69573,-0.32767 -0.69574,-0.71359 0,-0.006 0,-0.0118 0,-0.0178 l 0,-0.69574 0,-0.12265 0,-1.18187 0,-0.12265 0,-0.71358 c 0,-0.006 0,-0.0118 0,-0.0178 l 0,-0.0112 c 0.0158,-0.38321 0.33213,-0.68237 0.71358,-0.68237 z"
         id="path3142"
         inkscape:connector-curvature="0" />
      <path
         inkscape:connector-curvature="0"
         id="path3168"
         d="m 354.21865,482.37789 c -15.6831,0.4029 -28.5356,12.9032 -29.1875,28.75 l -0.031,0.4688 c -0.01,0.2484 0,0.5029 0,0.75 l 0,10 0,20 0,9.2812 c -0.4059,16.561 12.6884,30.313 29.25,30.7188 0.2505,0.01 0.5008,0 0.75,0 l 39.25,0 c 16.3674,0.4011 30.0459,-12.4234 30.7187,-28.7812 l 0.031,-0.4688 c 0.01,-0.2484 0,-0.5029 0,-0.75 l 0,-10 0,-20 0,-9.2812 c 0.4059,-16.561 -12.68841,-30.2817 -29.25001,-30.6876 -0.2505,-0.01 -0.5008,0 -0.75,0 l -39.25,0 c -0.5115,-0.012 -1.0253,-0.013 -1.5312,0 z m 0.7813,20 0.25,0 39.75,0 0.25,0 c 5.437,0.1332 9.7498,4.5607 9.75,9.9688 0,0.083 0,0.166 0,0.25 l 0,9.75 0,18.2812 0,1.7188 0,10 c 0,0.083 0,0.166 0,0.25 l 0,0.1562 c -0.2209,5.3702 -4.6544,9.5948 -10,9.5938 l -0.25,0 -39.75,0 -0.25,0 c -5.437,-0.1332 -9.7498,-4.5919 -9.75,-10 0,-0.083 0,-0.166 0,-0.25 l 0,-9.75 0,-1.7188 0,-16.5624 0,-1.7188 0,-10 c 0,-0.083 0,-0.166 0,-0.25 l 0,-0.1562 c 0.2209,-5.3702 4.6544,-9.5626 10,-9.5626 z"
         style="fill:#f2cb05;fill-opacity:1;stroke:none" />
    </g>
  </g>
</svg>
