<?xml version="1.0" encoding="UTF-8" standalone="no"?>
<!-- Created with Inkscape (http://www.inkscape.org/) -->

<svg
   xmlns:dc="http://purl.org/dc/elements/1.1/"
   xmlns:cc="http://creativecommons.org/ns#"
   xmlns:rdf="http://www.w3.org/1999/02/22-rdf-syntax-ns#"
   xmlns:svg="http://www.w3.org/2000/svg"
   xmlns="http://www.w3.org/2000/svg"
   xmlns:sodipodi="http://sodipodi.sourceforge.net/DTD/sodipodi-0.dtd"
   xmlns:inkscape="http://www.inkscape.org/namespaces/inkscape"
   width="114"
   height="114"
   id="svg4116"
   version="1.1"
   inkscape:version="0.48.3.1 r9886"
   sodipodi:docname="apple-touch-icon-iphone4.svg"
   inkscape:export-filename="/home/peto/Desktop/authomatic_logo/nove/authomatic-seo-pixelperfect-75.png"
   inkscape:export-xdpi="90"
   inkscape:export-ydpi="90">
  <defs
     id="defs4118" />
  <sodipodi:namedview
     id="base"
     pagecolor="#4a404e"
     bordercolor="#666666"
     borderopacity="1.0"
     inkscape:pageopacity="0"
     inkscape:pageshadow="2"
     inkscape:zoom="4"
     inkscape:cx="76.172431"
     inkscape:cy="28.198123"
     inkscape:document-units="px"
     inkscape:current-layer="layer1"
     showgrid="true"
     fit-margin-top="0"
     fit-margin-left="0"
     fit-margin-right="0"
     fit-margin-bottom="0"
     inkscape:window-width="1280"
     inkscape:window-height="1000"
     inkscape:window-x="0"
     inkscape:window-y="24"
     inkscape:window-maximized="1"
     showguides="true"
     inkscape:guide-bbox="true">
    <inkscape:grid
       type="xygrid"
       id="grid4161"
       empspacing="6"
       visible="true"
       enabled="true"
       snapvisiblegridlinesonly="true"
       originx="0px"
       originy="0px" />
    <sodipodi:guide
       orientation="1,0"
       position="29,40"
       id="guide3073" />
    <sodipodi:guide
       orientation="0,1"
       position="32,29"
       id="guide3075" />
    <sodipodi:guide
       orientation="1,0"
       position="85,27"
       id="guide3088" />
    <sodipodi:guide
       orientation="0,1"
       position="20,84"
       id="guide3184" />
  </sodipodi:namedview>
  <metadata
     id="metadata4121">
    <rdf:RDF>
      <cc:Work
         rdf:about="">
        <dc:format>image/svg+xml</dc:format>
        <dc:type
           rdf:resource="http://purl.org/dc/dcmitype/StillImage" />
        <dc:title></dc:title>
      </cc:Work>
    </rdf:RDF>
  </metadata>
  <g
     inkscape:label="Layer 1"
     inkscape:groupmode="layer"
     id="layer1"
     transform="translate(-247.24097,-806.10583)">
    <path
       style="fill:#f2cb05;fill-opacity:1;stroke:none"
       d="M 30 0 C 13.380003 0 3.469447e-18 13.380003 0 30 L 0 84 C 0 100.62 13.380003 114 30 114 L 84 114 C 100.62 114 114 100.62 114 84 L 114 30 C 114 13.380003 100.62 3.469447e-18 84 0 L 30 0 z M 29 20 C 29.33699 19.966 29.65375 20 30 20 L 84 20 C 89.54001 20 94 24.46 94 30 L 94 84 C 94 89.54 89.54001 94 84 94 L 30 94 C 24.45999 94 20 89.54 20 84 L 20 30 C 20 24.80624 23.94518 20.51028 29 20 z "
       transform="translate(247.24097,806.10583)"
       id="rect3097" />
    <g
       id="g3056"
       transform="matrix(1.4013546,0,0,1.4012981,-109.10341,-345.37953)">
      <g
         transform="translate(-80.008895,330.00916)"
         id="g3020"
         style="fill:#413744;fill-opacity:1">
        <g
           id="g3022"
           transform="matrix(0.07135843,0,0,0.07135843,337.14918,442.31598)"
           style="fill:#413744;fill-opacity:1">
          <path
             id="path3024"
             d="m 749.25083,1452.353 -0.46875,0.031 c -16.1082,0.6624 -28.78055,13.9367 -28.78125,29.9687 0,0.2492 -0.01,0.4995 0,0.75 l 0,38.4687 0,0.7813 c 0,0.2492 -0.01,0.4995 0,0.75 0.3999,16.3175 13.7645,29.2617 30,29.25 0.2417,-2e-4 0.47585,0.01 0.71875,0 l 59.28125,0 c 0.0822,0 0.1674,0 0.25,0 5.52119,-0.1353 9.8853,-4.7288 9.75,-10.25 -0.13325,-5.4376 -4.59108,-9.7498 -10,-9.75 l -0.25,0 -31.46875,0 -28.03125,0 -0.25,0 c -5.4086,-2e-4 -9.8667,-4.3129 -10,-9.75 l 0,-0.25 0,-39.75 0,-0.25 c -10e-4,-5.3458 4.22305,-9.7791 9.59375,-10 l 0.15625,0 0.25,0 28.28125,0 31.71875,0 c 0.0822,0 0.1674,0 0.25,0 5.52119,-0.1353 9.8853,-4.7288 9.75,-10.25 -0.13325,-5.4376 -4.59108,-9.7498 -10,-9.75 l -0.25,0 -58.9375,0 -0.8125,0 c -0.2471,10e-5 -0.5015,-0.01 -0.75,0 z"
             style="fill:#413744;fill-opacity:1;stroke:none"
             inkscape:connector-curvature="0" />
          <path
             id="path3026"
             d="m 609.75083,1452.353 c -5.52119,0.1353 -9.8853,4.7288 -9.75,10.25 l 0,0.1562 c 0.22092,5.371 4.65377,9.595 10,9.5938 0.0822,0 0.1674,0 0.25,0 l 19.34375,0 0.15625,0 0.25,0 c 5.4089,2e-4 9.8667,4.3124 10,9.75 l 0,0.25 0,39.75 0,0.25 c -2e-4,5.4089 -4.3124,9.8667 -9.75,10 l -0.25,0 -20,0 c -0.0831,0 -0.16642,0 -0.25,0 -5.52119,0.1353 -9.8853,4.7288 -9.75,10.25 l 0,0.1562 c 0.22092,5.371 4.65377,9.595 10,9.5938 0.0822,0 0.1674,0 0.25,0 l 79.75,0 c 0.0822,0 0.1674,0 0.25,0 5.52119,-0.1353 9.8853,-4.7288 9.75,-10.25 -0.13325,-5.4376 -4.59108,-9.7498 -10,-9.75 l -0.25,0 -19.5,0 -0.25,0 c -5.4089,-2e-4 -9.8668,-4.3124 -10,-9.75 l 0,-0.25 0,-39.75 0,-0.25 c -10e-4,-5.3463 4.22275,-9.7791 9.59375,-10 l 0.15625,0 0.25,0 20,0 c 0.0822,0 0.1674,0 0.25,0 5.52119,-0.1353 9.8853,-4.7288 9.75,-10.25 -0.13325,-5.4376 -4.59108,-9.7498 -10,-9.75 l -0.25,0 -79.75,0 c -0.0831,0 -0.16642,0 -0.25,0 z"
             style="fill:#413744;fill-opacity:1;stroke:none"
             inkscape:connector-curvature="0" />
          <path
             id="path3028"
             d="m 489.75083,1452.353 c -5.52119,0.1353 -9.8853,4.7288 -9.75,10.25 l 0,0.1562 c 0.22092,5.371 4.65377,9.595 10,9.5938 0.0822,0 0.1674,0 0.25,0 l 19.50001,0 0.25,0 c 5.4089,2e-4 9.86669,4.3124 9.99999,9.75 l 0,0.25 0,60 c 0,0.083 -0.002,0.1664 0,0.25 l 0,0.1562 c 0.22432,5.4535 4.79354,9.7275 10.25,9.5938 5.43761,-0.1333 9.74979,-4.5911 9.75,-10 0,-0.083 0.002,-0.1664 0,-0.25 l 0,-59.3438 0,-0.1562 0,-0.25 c 2e-4,-5.4089 4.3124,-9.8668 9.75,-10 0.084,0 0.1668,0 0.25,0 l 20,0 c 0.0822,0 0.1674,0 0.25,0 5.52119,-0.1353 9.8853,-4.7288 9.75,-10.25 -0.13325,-5.4376 -4.59108,-9.7498 -10,-9.75 l -0.25,0 -79.75,0 c -0.0831,0 -0.16642,0 -0.25,0 z"
             style="fill:#413744;fill-opacity:1;stroke:none"
             inkscape:connector-curvature="0" />
          <path
             id="path3030"
             d="m 369.75083,1452.353 c -5.52119,0.1353 -9.8853,4.7288 -9.75,10.25 l 0,0.1562 c 0.22092,5.371 4.65377,9.595 10,9.5938 0.0822,0 0.1674,0 0.25,0 l 31.46875,0 28.03125,0 0.25,0 c 5.4079,2e-4 9.8668,4.3129 10,9.75 0.1353,5.5207 -4.2298,10.1147 -9.75,10.25 -0.083,0 -0.1678,0 -0.25,0 l -28.28125,0 -12.46875,0 c -16.5605,0.4059 -29.6558,14.1879 -29.25,30.75 l 0.0313,0.4687 c 0.67275,16.359 14.3524,29.1824 30.7187,28.7813 l 19.25,0 c 0.0822,0 0.1674,0 0.25,0 5.52119,-0.1353 9.8853,-4.7288 9.75,-10.25 -0.13325,-5.4376 -4.59108,-9.7498 -10,-9.75 l -0.24999,0 -19.50001,0 c -0.083,0 -0.1679,0 -0.25,0 -5.3453,0 -9.7792,-4.2233 -10,-9.5938 l 0,-0.1562 c -0.1353,-5.5207 4.2299,-10.1147 9.75,-10.25 0.084,0 0.1668,0 0.25,0 l 28.28125,0 11.46875,0 0.25,0 c 5.4079,2e-4 9.8667,4.3129 10,9.75 l 0,0.25 0,20 c 0,0.083 -0.002,0.1664 0,0.25 l 0,0.1562 c 0.22432,5.4535 4.79354,9.7275 10.25,9.5938 5.43761,-0.1333 9.74979,-4.5911 9.75,-10 0,-0.083 0.002,-0.1664 0,-0.25 l 0,-58.9375 c 0.013,-0.5118 0.013,-1.0137 0,-1.5313 -0.3999,-16.3136 -13.7733,-29.2842 -30,-29.2812 l -60,0 c -0.0831,0 -0.16642,0 -0.25,0 z"
             style="fill:#413744;fill-opacity:1;stroke:none"
             inkscape:connector-curvature="0" />
          <path
             id="path3032"
             d="m 249.75083,1452.353 c -5.43761,0.1332 -9.74979,4.5911 -9.75,10 0,0.083 -0.002,0.1664 0,0.25 l 0,0.1562 0,79.5938 c 0,0.083 -0.002,0.1664 0,0.25 l 0,0.1562 c 0.22432,5.4535 4.79354,9.7275 10.25,9.5938 5.43761,-0.1333 9.74979,-4.5911 9.75,-10 0,-0.083 0.002,-0.1664 0,-0.25 l 0,-79.75 c 0,-0.083 0.002,-0.1664 0,-0.25 -0.1353,-5.5212 -4.72881,-9.8853 -10.25,-9.75 z"
             style="fill:#413744;fill-opacity:1;stroke:none"
             inkscape:connector-curvature="0" />
          <path
             id="path3034"
             d="m 289.75083,1452.353 c -5.43761,0.1332 -9.74979,4.5911 -9.75,10 0,0.083 -0.002,0.1664 0,0.25 l 0,0.1562 0,79.5938 c 0,0.083 -0.002,0.1664 0,0.25 l 0,0.1562 c 0.22431,5.4535 4.79354,9.7275 10.25,9.5938 5.43761,-0.1333 9.74979,-4.5911 9.75,-10 0,-0.083 0.002,-0.1664 0,-0.25 l 0,-79.75 c 0,-0.083 0.002,-0.1664 0,-0.25 -0.1353,-5.5212 -4.72881,-9.8853 -10.25,-9.75 z"
             style="fill:#413744;fill-opacity:1;stroke:none"
             inkscape:connector-curvature="0" />
          <path
             id="path3036"
             d="m 329.75083,1452.353 c -5.43761,0.1332 -9.74979,4.5911 -9.75,10 0,0.083 -0.002,0.1664 0,0.25 l 0,0.1562 0,79.5938 c 0,0.083 -0.002,0.1664 0,0.25 l 0,0.1562 c 0.22431,5.4535 4.79354,9.7275 10.25,9.5938 5.43761,-0.1333 9.74979,-4.5911 9.75,-10 0,-0.083 0.002,-0.1664 0,-0.25 l 0,-79.75 c 0,-0.083 0.002,-0.1664 0,-0.25 -0.1353,-5.5212 -4.72881,-9.8853 -10.25,-9.75 z"
             style="fill:#413744;fill-opacity:1;stroke:none"
             inkscape:connector-curvature="0" />
        </g>
        <g
           id="g3038"
           transform="matrix(0.07135843,0,0,0.07135843,328.58676,450.87899)"
           style="fill:#413744;fill-opacity:1">
          <path
             id="path3040"
             d="m 489.75083,1212.353 c -5.43761,0.1333 -9.74979,4.5911 -9.75,10 0,0.083 -0.002,0.1665 0,0.25 l 0,0.1563 0,58.7812 0,0.8125 c 5e-5,0.2471 -0.006,0.5016 0,0.75 l 0.0313,0.4687 c 0.66248,16.1087 13.93624,28.7806 29.96871,28.7813 0.24922,0 0.4995,0.01 0.75,0 l 38.46874,0 0.78125,0 c 0.24921,0 0.49948,0.01 0.75,0 16.31801,-0.3999 29.26169,-13.7642 29.25,-30 -1.7e-4,-0.2417 0.006,-0.4758 0,-0.7188 l 0,-59.2812 c 0,-0.083 0.002,-0.1664 0,-0.25 -0.1353,-5.5212 -4.72881,-9.8853 -10.25,-9.75 -5.43761,0.1333 -9.74979,4.5911 -9.75,10 0,0.083 -0.002,0.1665 0,0.25 l 0,0.1563 0,31.3125 0,28.0312 c 0.002,0.084 0,0.1669 0,0.25 -2.1e-4,5.4088 -4.31268,9.8668 -9.75,10 -0.0826,0 -0.16783,0 -0.25,0 l -39.74999,0 c -0.0826,0 -0.16783,0 -0.25,0 -5.34594,0 -9.77909,-4.223 -10,-9.5938 l 0,-0.1562 c -0.002,-0.084 0,-0.1669 0,-0.25 l 0,-28.2812 0,-31.7188 c 0,-0.083 0.002,-0.1664 0,-0.25 -0.13531,-5.5212 -4.72882,-9.8853 -10.25001,-9.75 z"
             style="fill:#413744;fill-opacity:1;stroke:none"
             inkscape:connector-curvature="0" />
          <path
             id="path3042"
             d="m 729.75083,1212.353 c -5.43761,0.1333 -9.74979,4.5911 -9.75,10 0,0.083 -0.002,0.1665 0,0.25 l 0,0.1563 0,79.5937 c 0,0.083 -0.002,0.1664 0,0.25 l 0,0.1562 c 0.22432,5.4535 4.79354,9.7275 10.25,9.5938 5.43761,-0.1333 9.74979,-4.5911 9.75,-10 0,-0.083 0.002,-0.1664 0,-0.25 l 0,-19.3438 0,-0.1562 c -0.002,-0.084 0,-0.1669 0,-0.25 2.1e-4,-5.4089 4.31239,-9.8667 9.75,-10 0.0836,0 0.16686,0 0.25,0 l 39.75,0 0.25,0 c 5.40892,2e-4 9.86675,4.3124 10,9.75 0.002,0.084 0,0.1669 0,0.25 l 0,20 c 0,0.083 -0.002,0.1664 0,0.25 l 0,0.1562 c 0.22432,5.4535 4.79354,9.7275 10.25,9.5938 5.43761,-0.1333 9.74979,-4.5911 9.75,-10 0,-0.083 0.002,-0.1664 0,-0.25 l 0,-79.75 c 0,-0.083 0.002,-0.1664 0,-0.25 -0.1353,-5.5212 -4.72881,-9.8853 -10.25,-9.75 -5.43761,0.1333 -9.74979,4.5911 -9.75,10 0,0.083 -0.002,0.1665 0,0.25 l 0,0.1563 0,19.3437 c 0.002,0.084 0,0.1669 0,0.25 -2.1e-4,5.409 -4.31239,9.8668 -9.75,10 -0.0826,0 -0.16783,0 -0.25,0 l -39.75,0 c -0.0826,0 -0.16783,0 -0.25,0 -5.34623,0 -9.77909,-4.2228 -10,-9.5937 l 0,-0.1563 c -0.002,-0.084 0,-0.1668 0,-0.25 l 0,-20 c 0,-0.083 0.002,-0.1664 0,-0.25 -0.1353,-5.5212 -4.72881,-9.8853 -10.25,-9.75 z"
             style="fill:#413744;fill-opacity:1;stroke:none"
             inkscape:connector-curvature="0" />
          <path
             id="path3044"
             d="m 609.75083,1212.353 c -5.52119,0.1353 -9.8853,4.7288 -9.75,10.25 l 0,0.1563 c 0.22092,5.3709 4.65377,9.595 10,9.5937 0.0822,0 0.1674,0 0.25,0 l 19.5,0 0.25,0 c 5.40892,2e-4 9.86675,4.3124 10,9.75 0.002,0.084 0,0.1669 0,0.25 l 0,60 c 0,0.083 -0.002,0.1664 0,0.25 l 0,0.1562 c 0.22432,5.4535 4.79354,9.7275 10.25,9.5938 5.43761,-0.1333 9.74979,-4.5911 9.75,-10 0,-0.083 0.002,-0.1664 0,-0.25 l 0,-59.3437 0,-0.1563 c -0.002,-0.084 0,-0.1668 0,-0.25 2.1e-4,-5.4089 4.31239,-9.8667 9.75,-10 0.0836,0 0.16686,0 0.25,0 l 20,0 c 0.0822,0 0.1674,0 0.25,0 5.52119,-0.1353 9.8853,-4.7288 9.75,-10.25 -0.13325,-5.4376 -4.59108,-9.7498 -10,-9.75 l -0.25,0 -79.75,0 c -0.0831,0 -0.16642,0 -0.25,0 z"
             style="fill:#413744;fill-opacity:1;stroke:none"
             inkscape:connector-curvature="0" />
          <path
             id="path3046"
             d="m 369.75083,1212.353 c -5.52119,0.1353 -9.8853,4.7288 -9.75,10.25 l 0,0.1563 c 0.22092,5.3709 4.65377,9.595 10,9.5937 0.0822,0 0.1674,0 0.25,0 l 31.46875,0 28.03125,0 0.25,0 c 5.40892,2e-4 9.86675,4.3124 10,9.75 0.1353,5.5212 -4.22881,10.1147 -9.75,10.25 -0.0826,0 -0.16783,0 -0.25,0 l -28.28125,0 -12.46875,0 c -16.56357,0.4059 -29.65591,14.1864 -29.25,30.75 l 0.0313,0.4687 c 0.67289,16.3605 14.34932,29.1824 30.7187,28.7813 l 19.25,0 c 0.0822,0 0.1674,0 0.25,0 5.52119,-0.1353 9.8853,-4.7288 9.75,-10.25 -0.13325,-5.4376 -4.59108,-9.7498 -10,-9.75 l -0.24999,0 -19.50001,0 c -0.0826,0 -0.16783,0 -0.25,0 -5.34623,0 -9.77908,-4.2228 -10,-9.5938 l 0,-0.1562 c -0.1353,-5.5212 4.22881,-10.1147 9.75,-10.25 0.0836,0 0.16686,0 0.25,0 l 28.28125,0 11.46875,0 0.25,0 c 5.40892,2e-4 9.86675,4.3124 10,9.75 0.002,0.084 0,0.1669 0,0.25 l 0,20 c 0,0.083 -0.002,0.1664 0,0.25 l 0,0.1562 c 0.22432,5.4535 4.79354,9.7275 10.25,9.5938 5.43761,-0.1333 9.74979,-4.5911 9.75,-10 0,-0.083 0.002,-0.1664 0,-0.25 l 0,-58.9375 c 0.0134,-0.5118 0.0127,-1.0136 0,-1.5312 -0.39982,-16.3151 -13.77017,-29.2843 -30,-29.2813 l -60,0 c -0.0831,0 -0.16642,0 -0.25,0 z"
             style="fill:#413744;fill-opacity:1;stroke:none"
             inkscape:connector-curvature="0" />
        </g>
      </g>
      <path
         inkscape:connector-curvature="0"
         id="path3050"
         d="m 310.60336,867.40192 c -1.11913,0.0288 -2.03627,0.92075 -2.08279,2.05155 l -0.002,0.0335 c -7.1e-4,0.0177 0,0.0359 0,0.0535 l 0,0.71358 0,1.42717 0,0.66229 c -0.029,1.18177 0.90544,2.16309 2.08724,2.19205 0.0179,7.1e-4 0.0357,0 0.0535,0 l 2.80081,0 c 1.16796,0.0286 2.14403,-0.88652 2.19205,-2.05378 l 0.002,-0.0335 c 7.2e-4,-0.0177 0,-0.0359 0,-0.0535 l 0,-0.71358 0,-1.42717 0,-0.66229 c 0.029,-1.18177 -0.90542,-2.16086 -2.08723,-2.18982 -0.0179,-7.1e-4 -0.0357,0 -0.0535,0 l -2.80082,0 c -0.0365,-8.6e-4 -0.0732,-9.3e-4 -0.10926,0 z m 0.0557,1.42717 0.0178,0 2.8365,0 0.0178,0 c 0.38797,0.01 0.69573,0.32544 0.69574,0.71136 0,0.006 0,0.0118 0,0.0178 l 0,0.69574 0,1.30452 0,0.12265 0,0.71358 c 0,0.006 0,0.0118 0,0.0178 l 0,0.0112 c -0.0158,0.38321 -0.33213,0.68467 -0.71358,0.6846 l -0.0178,0 -2.8365,0 -0.0178,0 c -0.38797,-0.01 -0.69573,-0.32767 -0.69574,-0.71359 0,-0.006 0,-0.0118 0,-0.0178 l 0,-0.69574 0,-0.12265 0,-1.18187 0,-0.12265 0,-0.71358 c 0,-0.006 0,-0.0118 0,-0.0178 l 0,-0.0112 c 0.0158,-0.38321 0.33213,-0.68237 0.71358,-0.68237 z"
         style="fill:#f2cb05;fill-opacity:1;stroke:none" />
    </g>
  </g>
</svg>
